<svg id="Calque_1" data-name="Calque 1" xmlns="http://www.w3.org/2000/svg" viewBox="0 0 439.02 322.57"><defs><style>.cls-1,.cls-3,.cls-4,.cls-6,.cls-9{fill:none;}.cls-1{stroke:#000;stroke-width:1.23px;}.cls-1,.cls-2,.cls-5,.cls-6,.cls-8,.cls-9{stroke-miterlimit:10;}.cls-2{fill:#f9dfbf;}.cls-2,.cls-3,.cls-4{stroke:#f36631;stroke-width:2.46px;}.cls-3,.cls-4{stroke-linecap:round;stroke-linejoin:round;}.cls-4{stroke-dasharray:1.23 4.91;}.cls-5{fill:#e1ffd0;}.cls-5,.cls-9{stroke:#4174a4;stroke-width:4.48px;}.cls-6,.cls-8{stroke:#f3c07f;}.cls-6{stroke-width:2.67px;}.cls-7{fill:#f3c07f;}.cls-8{fill:#fff;stroke-width:1.58px;}</style></defs><line class="cls-1" x1="20.02" y1="49.27" x2="149.03" y2="99.11"/><polygon points="146.12 102.92 155.21 101.5 149.44 94.33 146.12 102.92"/><line class="cls-1" x1="20.02" y1="101.49" x2="134.62" y2="122.47"/><polygon points="132.47 126.75 141.13 123.66 134.13 117.7 132.47 126.75"/><line class="cls-1" x1="20.02" y1="258.18" x2="147.45" y2="210.21"/><polygon points="147.81 214.99 153.65 207.87 144.57 206.38 147.81 214.99"/><line class="cls-1" x1="20.02" y1="154.58" x2="129" y2="153.77"/><polygon points="127.69 158.38 135.62 153.72 127.62 149.18 127.69 158.38"/><circle class="cls-2" cx="18.79" cy="49.27" r="17.56"/><circle class="cls-2" cx="18.79" cy="101.49" r="17.56"/><circle class="cls-2" cx="18.79" cy="153.72" r="17.56"/><circle class="cls-2" cx="18.79" cy="258.18" r="17.56"/><path d="M12,56a2.54,2.54,0,0,0,1-.53,12.67,12.67,0,0,0,1.23-1.18l2.58-2.82-1.35-4.34a1.35,1.35,0,0,0-.48-.76,2.44,2.44,0,0,0-1-.24v-.42h4.89v.39a3.51,3.51,0,0,0-.95.17.47.47,0,0,0-.24.48.78.78,0,0,0,0,.16s0,.11,0,.19l.76,2.58.83-.86.68-.72c.49-.52.8-.87.93-1a.82.82,0,0,0,.18-.49.33.33,0,0,0-.19-.35,2.91,2.91,0,0,0-.69-.12v-.39h3.26v.42a1.35,1.35,0,0,0-.59.15,4.3,4.3,0,0,0-1,.81l-3.18,3.26,1.19,3.8a3.71,3.71,0,0,0,.67,1.46,2.39,2.39,0,0,0,1.18.39v.41H16.85V56a2.66,2.66,0,0,0,.72-.1.51.51,0,0,0,.38-.5,1.74,1.74,0,0,0-.06-.45,4.26,4.26,0,0,0-.11-.42L17,52.14l-2.15,2.38a3,3,0,0,0-.38.48.56.56,0,0,0-.1.3.57.57,0,0,0,.4.54,2.42,2.42,0,0,0,.63.12v.41H12Z" transform="translate(-0.49 -1.71)"/><path d="M23.13,58.58A2.19,2.19,0,0,0,24,58.4a1,1,0,0,0,.44-.65l1.39-5.07,0-.16c0-.05,0-.09,0-.12a.29.29,0,0,0-.16-.3,1,1,0,0,0-.38-.06l-.34,0-.33,0,0-.25,1.6-.28c.25,0,.72-.14,1.39-.29L26,57.47c0,.13-.06.25-.08.36a1,1,0,0,0,0,.28.37.37,0,0,0,.28.4,4.24,4.24,0,0,0,.78.07v.25H23.13Z" transform="translate(-0.49 -1.71)"/><path d="M94.17,57.62V58a1.33,1.33,0,0,0-.61.12.73.73,0,0,0-.36.72V59s0,.08,0,.15l.63,5.6,2.39-5a1.15,1.15,0,0,0,0-.14,1.88,1.88,0,0,0-.35-1.32,1.5,1.5,0,0,0-.81-.26v-.39h4.3V58a1.48,1.48,0,0,0-.77.19c-.16.1-.23.33-.23.68,0,.07,0,.17,0,.31s0,.48.08.8L99,64.66l2.48-5.19a2.5,2.5,0,0,0,.16-.41,1.35,1.35,0,0,0,.08-.43.51.51,0,0,0-.26-.52,1.88,1.88,0,0,0-.74-.1v-.39h3V58a1.29,1.29,0,0,0-.61.19,2.61,2.61,0,0,0-.72,1l-4.57,9.44h-.46l-1-7.78-3.72,7.78h-.46L91,59.34a2,2,0,0,0-.32-1,1.49,1.49,0,0,0-.92-.29v-.39Z" transform="translate(-0.49 -1.71)"/><path d="M103.23,70.52a2,2,0,0,0,.87-.18,1,1,0,0,0,.45-.64l1.38-5.07a.5.5,0,0,0,0-.16.57.57,0,0,0,0-.12q0-.24-.15-.3a1.09,1.09,0,0,0-.39-.07l-.34,0-.32,0,0-.25,1.61-.29c.25,0,.71-.14,1.39-.28l-1.71,6.19-.09.35a2.06,2.06,0,0,0,0,.28.38.38,0,0,0,.29.4,3.29,3.29,0,0,0,.77.07v.25h-3.78Z" transform="translate(-0.49 -1.71)"/><path d="M94.17,99.61V100a1.35,1.35,0,0,0-.61.11.74.74,0,0,0-.36.72V101s0,.08,0,.14l.63,5.61,2.39-5a1,1,0,0,0,0-.15,1.85,1.85,0,0,0-.35-1.31,1.41,1.41,0,0,0-.81-.27v-.39h4.3V100a1.58,1.58,0,0,0-.77.19c-.16.11-.23.33-.23.68,0,.08,0,.18,0,.31s0,.48.08.81l.54,4.67,2.48-5.2a2.19,2.19,0,0,0,.16-.41,1.31,1.31,0,0,0,.08-.43.51.51,0,0,0-.26-.51,1.86,1.86,0,0,0-.74-.11v-.39h3V100a1.29,1.29,0,0,0-.61.2,2.48,2.48,0,0,0-.72,1l-4.57,9.44h-.46l-1-7.77-3.72,7.77h-.46L91,101.34a2.09,2.09,0,0,0-.32-1,1.63,1.63,0,0,0-.92-.29v-.39Z" transform="translate(-0.49 -1.71)"/><path d="M102.87,112.5l.95-.92c.34-.34.63-.63.85-.87a13.2,13.2,0,0,0,1.59-2,2.61,2.61,0,0,0,.37-1.27,1.49,1.49,0,0,0-.25-.89.94.94,0,0,0-.81-.34,1.36,1.36,0,0,0-.91.34,2.85,2.85,0,0,0-.54.61l-.24-.13a4,4,0,0,1,.78-1.12,2.25,2.25,0,0,1,1.62-.69,1.64,1.64,0,0,1,1.35.58,1.93,1.93,0,0,1,.47,1.27,2.35,2.35,0,0,1-.47,1.42,7,7,0,0,1-1.11,1.21l-2.17,1.84H106a2,2,0,0,0,1-.18,1.61,1.61,0,0,0,.59-.71h.28l-.87,2.12h-4.07Z" transform="translate(-0.49 -1.71)"/><path d="M94.17,139.42v.42a1.22,1.22,0,0,0-.61.12.72.72,0,0,0-.36.71v.11s0,.08,0,.14l.63,5.61,2.39-5a1,1,0,0,0,0-.15,1.87,1.87,0,0,0-.35-1.31,1.5,1.5,0,0,0-.81-.26v-.4h4.3v.4a1.48,1.48,0,0,0-.77.19c-.16.1-.23.33-.23.68,0,.07,0,.17,0,.3s0,.49.08.81l.54,4.67,2.48-5.19a2.9,2.9,0,0,0,.16-.41,1.36,1.36,0,0,0,.08-.44.51.51,0,0,0-.26-.51,1.88,1.88,0,0,0-.74-.1v-.4h3v.4a1.29,1.29,0,0,0-.61.19,2.53,2.53,0,0,0-.72,1l-4.57,9.44h-.46l-1-7.78-3.72,7.78h-.46L91,141.15a2.09,2.09,0,0,0-.32-1.05,1.57,1.57,0,0,0-.92-.28v-.4Z" transform="translate(-0.49 -1.71)"/><path d="M103.16,151.4a.6.6,0,0,1,.45-.17.68.68,0,0,1,.41.11,1.81,1.81,0,0,1,.38.42l.16.22a.89.89,0,0,0,.25.26.7.7,0,0,0,.28,0,1,1,0,0,0,.87-.52,2.25,2.25,0,0,0,.37-1.31,1.53,1.53,0,0,0-.56-1.36,2,2,0,0,0-1.17-.36l0-.24A4.78,4.78,0,0,0,106,148a1.4,1.4,0,0,0,.77-1.26,1,1,0,0,0-.24-.71.9.9,0,0,0-.68-.26,1.27,1.27,0,0,0-.7.2,2.65,2.65,0,0,0-.62.63l-.23-.14a4.7,4.7,0,0,1,.7-.86,2.12,2.12,0,0,1,1.57-.61,1.74,1.74,0,0,1,1.14.4,1.33,1.33,0,0,1,.5,1.1,1.43,1.43,0,0,1-.34.93,2.21,2.21,0,0,1-.86.67l-.13.06a2.62,2.62,0,0,1,.65.68,1.64,1.64,0,0,1,.26,1,2.7,2.7,0,0,1-1,2,3.36,3.36,0,0,1-2.31.86,1.65,1.65,0,0,1-1.21-.38.75.75,0,0,1-.23-.52A.6.6,0,0,1,103.16,151.4Z" transform="translate(-0.49 -1.71)"/><path d="M94.17,247.75v.42a1.22,1.22,0,0,0-.61.12.72.72,0,0,0-.36.71v.11s0,.08,0,.14l.63,5.61,2.39-5a1,1,0,0,0,0-.15,1.87,1.87,0,0,0-.35-1.31,1.58,1.58,0,0,0-.81-.27v-.39h4.3v.39a1.56,1.56,0,0,0-.77.2c-.16.1-.23.33-.23.67,0,.08,0,.18,0,.31s0,.49.08.81L99,254.8l2.48-5.19a2.9,2.9,0,0,0,.16-.41,1.36,1.36,0,0,0,.08-.44.51.51,0,0,0-.26-.51,2.06,2.06,0,0,0-.74-.11v-.39h3v.39a1.41,1.41,0,0,0-.61.2,2.53,2.53,0,0,0-.72,1l-4.57,9.44h-.46l-1-7.78-3.72,7.78h-.46L91,249.48a2.09,2.09,0,0,0-.32-1,1.63,1.63,0,0,0-.92-.29v-.39Z" transform="translate(-0.49 -1.71)"/><path d="M108,253.35h.71l-1.33,4.82h.76l-.29,1.08h-.76l-.46,1.66h-1.42l.46-1.66H103l.33-1.16Zm-2,4.82.85-3.09-3.09,3.09Z" transform="translate(-0.49 -1.71)"/><path d="M12,108.18a2.38,2.38,0,0,0,1-.52,11.8,11.8,0,0,0,1.23-1.19l2.58-2.81-1.35-4.35a1.31,1.31,0,0,0-.48-.75,2.59,2.59,0,0,0-1-.25V97.9h4.89v.39a3.51,3.51,0,0,0-.95.17.47.47,0,0,0-.24.48.61.61,0,0,0,0,.15s0,.12,0,.2l.76,2.58.83-.86.68-.72c.49-.53.8-.87.93-1a.85.85,0,0,0,.18-.49.33.33,0,0,0-.19-.35,2.91,2.91,0,0,0-.69-.12V97.9h3.26v.41a1.7,1.7,0,0,0-.59.15,4.14,4.14,0,0,0-1,.82l-3.18,3.26,1.19,3.8a3.64,3.64,0,0,0,.67,1.45,2.2,2.2,0,0,0,1.18.39v.42H16.85v-.42a2.75,2.75,0,0,0,.72-.09.51.51,0,0,0,.38-.5,1.74,1.74,0,0,0-.06-.45,3.63,3.63,0,0,0-.11-.42L17,104.37l-2.15,2.38a3,3,0,0,0-.38.48.53.53,0,0,0-.1.29.57.57,0,0,0,.4.55,2.49,2.49,0,0,0,.63.11v.42H12Z" transform="translate(-0.49 -1.71)"/><path d="M22.77,110.79l.95-.92c.35-.34.63-.63.86-.87a13.06,13.06,0,0,0,1.58-2,2.55,2.55,0,0,0,.37-1.26,1.42,1.42,0,0,0-.25-.89.94.94,0,0,0-.81-.34,1.37,1.37,0,0,0-.91.34,2.84,2.84,0,0,0-.53.61l-.25-.13a4,4,0,0,1,.78-1.12,2.29,2.29,0,0,1,1.63-.69,1.61,1.61,0,0,1,1.34.58,1.92,1.92,0,0,1,.48,1.27,2.44,2.44,0,0,1-.47,1.42A7.09,7.09,0,0,1,26.42,108l-2.16,1.84H25.9a2,2,0,0,0,1-.18,1.66,1.66,0,0,0,.58-.71h.29l-.88,2.12H22.77Z" transform="translate(-0.49 -1.71)"/><path d="M12,160.41a2.5,2.5,0,0,0,1-.52,13,13,0,0,0,1.23-1.19l2.58-2.82-1.35-4.34a1.38,1.38,0,0,0-.48-.76,2.83,2.83,0,0,0-1-.24v-.41h4.89v.39a3.51,3.51,0,0,0-.95.17.47.47,0,0,0-.24.48.77.77,0,0,0,0,.15c0,.05,0,.11,0,.2l.76,2.57.83-.86.68-.72c.49-.52.8-.86.93-1a.85.85,0,0,0,.18-.49.34.34,0,0,0-.19-.36,2.56,2.56,0,0,0-.69-.11v-.39h3.26v.41a1.7,1.7,0,0,0-.59.15,4.3,4.3,0,0,0-1,.81l-3.18,3.27,1.19,3.8A3.64,3.64,0,0,0,20.6,160a2.39,2.39,0,0,0,1.18.39v.41H16.85v-.41a2.75,2.75,0,0,0,.72-.09.52.52,0,0,0,.38-.51,1.72,1.72,0,0,0-.06-.44,3.83,3.83,0,0,0-.11-.43L17,156.59,14.89,159a3.49,3.49,0,0,0-.38.49.51.51,0,0,0-.1.29.56.56,0,0,0,.4.54,2.06,2.06,0,0,0,.63.12v.41H12Z" transform="translate(-0.49 -1.71)"/><path d="M23.07,162.1a.57.57,0,0,1,.45-.17.76.76,0,0,1,.41.11,1.7,1.7,0,0,1,.38.43l.15.21a.89.89,0,0,0,.25.26A.76.76,0,0,0,25,163a1.06,1.06,0,0,0,.87-.52,2.23,2.23,0,0,0,.36-1.31,1.54,1.54,0,0,0-.55-1.36,2,2,0,0,0-1.18-.36l0-.24a5,5,0,0,0,1.32-.46,1.4,1.4,0,0,0,.77-1.26,1,1,0,0,0-.25-.71.87.87,0,0,0-.67-.26,1.31,1.31,0,0,0-.71.2,2.85,2.85,0,0,0-.62.63l-.22-.14a5.15,5.15,0,0,1,.69-.86,2.13,2.13,0,0,1,1.57-.61,1.79,1.79,0,0,1,1.15.4,1.32,1.32,0,0,1,.49,1.1,1.52,1.52,0,0,1-.33.94,2.45,2.45,0,0,1-.86.66l-.13.06a2.8,2.8,0,0,1,.65.68,1.74,1.74,0,0,1,.26,1,2.72,2.72,0,0,1-1,2.05,3.36,3.36,0,0,1-2.32.86,1.69,1.69,0,0,1-1.21-.38.74.74,0,0,1-.22-.52A.57.57,0,0,1,23.07,162.1Z" transform="translate(-0.49 -1.71)"/><path d="M12,264.6a2.54,2.54,0,0,0,1-.53,12.67,12.67,0,0,0,1.23-1.18l2.58-2.82-1.35-4.34A1.35,1.35,0,0,0,15,255a2.62,2.62,0,0,0-1-.24v-.42h4.89v.39a4,4,0,0,0-.95.17.47.47,0,0,0-.24.48.78.78,0,0,0,0,.16s0,.11,0,.19l.76,2.58.83-.86.68-.72c.49-.52.8-.87.93-1a.88.88,0,0,0,.18-.5.33.33,0,0,0-.19-.35,2.91,2.91,0,0,0-.69-.12v-.39h3.26v.42a1.35,1.35,0,0,0-.59.15,4.3,4.3,0,0,0-1,.81L18.74,259l1.19,3.8a3.71,3.71,0,0,0,.67,1.46,2.39,2.39,0,0,0,1.18.39V265H16.85v-.41a2.31,2.31,0,0,0,.72-.1A.51.51,0,0,0,18,264a1.8,1.8,0,0,0-.06-.45,4.26,4.26,0,0,0-.11-.42L17,260.78l-2.15,2.38a3,3,0,0,0-.38.48.56.56,0,0,0-.1.3.57.57,0,0,0,.4.54,2.06,2.06,0,0,0,.63.12V265H12Z" transform="translate(-0.49 -1.71)"/><path d="M27.94,259.91h.71l-1.32,4.82h.75l-.29,1.08H27l-.46,1.66H25.16l.46-1.66H22.9l.32-1.16Zm-2,4.82.84-3.1-3.08,3.1Z" transform="translate(-0.49 -1.71)"/><line class="cls-3" x1="18.79" y1="181.59" x2="18.79" y2="182.21"/><line class="cls-4" x1="18.79" y1="187.12" x2="18.79" y2="227.61"/><line class="cls-3" x1="18.79" y1="230.06" x2="18.79" y2="230.68"/><ellipse class="cls-5" cx="266.62" cy="153.72" rx="126.08" ry="96.48"/><line class="cls-6" x1="168.6" y1="21.39" x2="126.75" y2="47.48"/><polygon class="cls-7" points="123.02 34.11 110.49 57.62 137.11 56.72 123.02 34.11"/><path class="cls-8" d="M236.53,37.72H173.79a4.76,4.76,0,0,1-4.7-4.82V7.32a4.75,4.75,0,0,1,4.7-4.81h62.74a4.76,4.76,0,0,1,4.7,4.81V32.9A4.77,4.77,0,0,1,236.53,37.72Z" transform="translate(-0.49 -1.71)"/><path d="M189.32,22.08v4.5h-1.59V15.2h3.74a3.32,3.32,0,0,1,2.5.95,3.47,3.47,0,0,1,.91,2.49,3.45,3.45,0,0,1-.91,2.49,3.32,3.32,0,0,1-2.5.95Zm0-1.2h2.15a1.59,1.59,0,0,0,1.36-.64,2.59,2.59,0,0,0,.46-1.58,2.65,2.65,0,0,0-.46-1.61,1.55,1.55,0,0,0-1.36-.64h-2.15Z" transform="translate(-0.49 -1.71)"/><path d="M196,21.82a4.26,4.26,0,0,1,.88-2.77,3.22,3.22,0,0,1,4.81,0,4.24,4.24,0,0,1,.89,2.77V22.9a4.27,4.27,0,0,1-.88,2.77,3.25,3.25,0,0,1-4.82,0A4.22,4.22,0,0,1,196,22.9Zm1.58,1.07A3.88,3.88,0,0,0,198,24.8a1.48,1.48,0,0,0,2.56,0,3.89,3.89,0,0,0,.42-1.91V21.81a3.83,3.83,0,0,0-.42-1.89,1.39,1.39,0,0,0-1.28-.75,1.37,1.37,0,0,0-1.28.75,3.78,3.78,0,0,0-.43,1.89Z" transform="translate(-0.49 -1.71)"/><path d="M205.74,15.91h-1.58V14.39h1.58Zm0,10.67h-1.58V18.13h1.58Z" transform="translate(-0.49 -1.71)"/><path d="M207.37,22.45a6.28,6.28,0,0,1,.73-3.25A2.28,2.28,0,0,1,210.16,18a2.12,2.12,0,0,1,1.05.26A2.57,2.57,0,0,1,212,19V14.39h1.57V26.58h-1.38l-.12-1a2.36,2.36,0,0,1-.82.84,2.1,2.1,0,0,1-1.12.29,2.31,2.31,0,0,1-2.05-1.12,5.42,5.42,0,0,1-.73-3Zm1.58.17a4.76,4.76,0,0,0,.39,2.11,1.26,1.26,0,0,0,1.21.79,1.41,1.41,0,0,0,.88-.29,2.09,2.09,0,0,0,.59-.78V20.34a2.29,2.29,0,0,0-.59-.83,1.31,1.31,0,0,0-2.09.59,6,6,0,0,0-.39,2.35Z" transform="translate(-0.49 -1.71)"/><path d="M219.38,24.46a1.15,1.15,0,0,0-.33-.83,3.91,3.91,0,0,0-1.22-.75,6.42,6.42,0,0,1-1.94-1.08,2,2,0,0,1-.62-1.49,2.13,2.13,0,0,1,.77-1.66,2.93,2.93,0,0,1,2-.68,2.89,2.89,0,0,1,2.08.74,2.33,2.33,0,0,1,.75,1.84l0,0h-1.52a1.66,1.66,0,0,0-.34-1,1.13,1.13,0,0,0-.95-.43,1.25,1.25,0,0,0-.92.33,1.11,1.11,0,0,0-.33.79,1,1,0,0,0,.28.77,5.35,5.35,0,0,0,1.23.73,5.81,5.81,0,0,1,2,1.08,2.07,2.07,0,0,1,.64,1.55,2.12,2.12,0,0,1-.8,1.71,3.22,3.22,0,0,1-2.09.65,3,3,0,0,1-2.2-.79,2.38,2.38,0,0,1-.77-1.86l0,0h1.47a1.41,1.41,0,0,0,1.5,1.54,1.4,1.4,0,0,0,1-.31A1.07,1.07,0,0,0,219.38,24.46Z" transform="translate(-0.49 -1.71)"/><path d="M153.78,156.27v5.53h-1.95v-14h4.6A4,4,0,0,1,159.5,149a4.75,4.75,0,0,1,0,6.13,4.07,4.07,0,0,1-3.07,1.16Zm0-1.48h2.65a1.94,1.94,0,0,0,1.67-.78,3.22,3.22,0,0,0,.57-1.95,3.27,3.27,0,0,0-.57-2,1.9,1.9,0,0,0-1.67-.79h-2.65Z" transform="translate(-0.49 -1.71)"/><path d="M167,153.05,166,153a1.45,1.45,0,0,0-1,.36,2.42,2.42,0,0,0-.61,1v7.41h-1.95V151.4h1.78l.14,1.57a3.35,3.35,0,0,1,.86-1.29,1.79,1.79,0,0,1,1.22-.47,1.72,1.72,0,0,1,.39,0,1.48,1.48,0,0,1,.32.08Z" transform="translate(-0.49 -1.71)"/><path d="M172.13,162a3.74,3.74,0,0,1-3-1.28,4.88,4.88,0,0,1-1.11-3.3V155.9a5.08,5.08,0,0,1,1.09-3.36,3.41,3.41,0,0,1,2.77-1.33,3.25,3.25,0,0,1,2.72,1.21,5.1,5.1,0,0,1,1,3.24V157H170v.41a3.82,3.82,0,0,0,.59,2.22,1.88,1.88,0,0,0,1.67.88,3.45,3.45,0,0,0,1.39-.25,3.8,3.8,0,0,0,1.09-.75l.62,1.22a3.73,3.73,0,0,1-1.32.91A4.88,4.88,0,0,1,172.13,162Zm-.22-9.31a1.54,1.54,0,0,0-1.36.83,4.22,4.22,0,0,0-.56,2.09h3.66v-.39a3.4,3.4,0,0,0-.44-1.82A1.45,1.45,0,0,0,171.91,152.69Zm.57-5.32h2.18l0,0-2.29,2.5h-1.56Z" transform="translate(-0.49 -1.71)"/><path d="M181.18,156.58H176.9V155.1h4.28Z" transform="translate(-0.49 -1.71)"/><path d="M188.35,161.8a6.91,6.91,0,0,1-.17-.69,4.08,4.08,0,0,1-.09-.69,3.69,3.69,0,0,1-1.08,1.14,2.51,2.51,0,0,1-1.46.44,2.62,2.62,0,0,1-2.06-.83,3.22,3.22,0,0,1-.74-2.22,2.9,2.9,0,0,1,1-2.34,4.31,4.31,0,0,1,2.85-.85h1.45V154.7a2.35,2.35,0,0,0-.42-1.48,1.45,1.45,0,0,0-1.2-.53,1.43,1.43,0,0,0-1.13.48,1.71,1.71,0,0,0-.43,1.19H183l0,0a2.72,2.72,0,0,1,1-2.15,3.69,3.69,0,0,1,2.6-.94,3.21,3.21,0,0,1,3.45,3.5v4.82a8.72,8.72,0,0,0,.08,1.17,5.81,5.81,0,0,0,.23,1.1ZM186,160.52a2.06,2.06,0,0,0,1.24-.4,2.32,2.32,0,0,0,.82-1V157h-1.48a1.75,1.75,0,0,0-1.39.57,2.09,2.09,0,0,0-.49,1.41,1.78,1.78,0,0,0,.34,1.14A1.13,1.13,0,0,0,186,160.52Z" transform="translate(-0.49 -1.71)"/><path d="M195.85,160.52a1.58,1.58,0,0,0,1.23-.56,2.17,2.17,0,0,0,.5-1.5h1.75v.06a3.16,3.16,0,0,1-1,2.47,3.42,3.42,0,0,1-2.5,1,3.58,3.58,0,0,1-3-1.31,5.28,5.28,0,0,1-1-3.36V155.9a5.28,5.28,0,0,1,1-3.36,3.53,3.53,0,0,1,3-1.33,3.35,3.35,0,0,1,2.56,1,3.77,3.77,0,0,1,.95,2.73l0,.06h-1.75a2.79,2.79,0,0,0-.48-1.7,1.49,1.49,0,0,0-1.26-.66,1.62,1.62,0,0,0-1.58.91,5,5,0,0,0-.47,2.29v1.44a5,5,0,0,0,.47,2.3A1.64,1.64,0,0,0,195.85,160.52Z" transform="translate(-0.49 -1.71)"/><path d="M203.57,148.82v2.58h1.63v1.4h-1.63V159a2,2,0,0,0,.24,1.14.74.74,0,0,0,.63.35,3,3,0,0,0,.43,0l.46-.09.2,1.35a3.68,3.68,0,0,1-.73.21,3.86,3.86,0,0,1-.84.08,2.14,2.14,0,0,1-1.72-.72,3.58,3.58,0,0,1-.61-2.29V152.8h-1.35v-1.4h1.35v-2.58Z" transform="translate(-0.49 -1.71)"/><path d="M209.19,148.67h-1.95v-1.86h1.95Zm0,13.13h-1.95V151.4h1.95Z" transform="translate(-0.49 -1.71)"/><path d="M214.58,158.68l.16.81h.06l.16-.81,1.77-7.28h2l-3.12,10.4H213.9l-3.13-10.4h2Z" transform="translate(-0.49 -1.71)"/><path d="M225.28,161.8a6.91,6.91,0,0,1-.17-.69,4.08,4.08,0,0,1-.09-.69,3.69,3.69,0,0,1-1.08,1.14,2.51,2.51,0,0,1-1.46.44,2.62,2.62,0,0,1-2.06-.83,3.22,3.22,0,0,1-.74-2.22,2.9,2.9,0,0,1,1-2.34,4.31,4.31,0,0,1,2.85-.85H225V154.7a2.35,2.35,0,0,0-.42-1.48,1.6,1.6,0,0,0-2.33-.05,1.71,1.71,0,0,0-.43,1.19H220l0,0a2.72,2.72,0,0,1,1-2.15,3.69,3.69,0,0,1,2.6-.94,3.21,3.21,0,0,1,3.45,3.5v4.82a8.72,8.72,0,0,0,.08,1.17,5.81,5.81,0,0,0,.23,1.1Zm-2.35-1.28a2.06,2.06,0,0,0,1.24-.4,2.32,2.32,0,0,0,.82-1V157h-1.48a1.75,1.75,0,0,0-1.39.57,2.09,2.09,0,0,0-.49,1.41,1.78,1.78,0,0,0,.34,1.14A1.13,1.13,0,0,0,222.93,160.52Z" transform="translate(-0.49 -1.71)"/><path d="M231.65,148.82v2.58h1.63v1.4h-1.63V159a2,2,0,0,0,.24,1.14.74.74,0,0,0,.63.35,2.77,2.77,0,0,0,.42,0l.47-.09.2,1.35a3.68,3.68,0,0,1-.73.21,3.92,3.92,0,0,1-.84.08,2.14,2.14,0,0,1-1.72-.72,3.52,3.52,0,0,1-.61-2.29V152.8h-1.35v-1.4h1.35v-2.58Z" transform="translate(-0.49 -1.71)"/><path d="M237.27,148.67h-2v-1.86h2Zm0,13.13h-2V151.4h2Z" transform="translate(-0.49 -1.71)"/><path d="M239.25,156a5.23,5.23,0,0,1,1.08-3.4,4,4,0,0,1,5.93,0,5.25,5.25,0,0,1,1.08,3.41v1.33a5.19,5.19,0,0,1-1.08,3.4,3.6,3.6,0,0,1-2.95,1.32,3.65,3.65,0,0,1-3-1.32,5.19,5.19,0,0,1-1.08-3.4Zm1.95,1.32a4.77,4.77,0,0,0,.52,2.34,1.71,1.71,0,0,0,1.59.91,1.69,1.69,0,0,0,1.56-.91,4.66,4.66,0,0,0,.52-2.34v-1.33a4.65,4.65,0,0,0-.52-2.33,1.81,1.81,0,0,0-3.15,0,4.73,4.73,0,0,0-.52,2.33Z" transform="translate(-0.49 -1.71)"/><path d="M251,151.4l.1,1.54a3.52,3.52,0,0,1,1.1-1.27,2.54,2.54,0,0,1,1.5-.46,2.5,2.5,0,0,1,2.12,1,5.19,5.19,0,0,1,.76,3.13v6.45h-2v-6.43a3.78,3.78,0,0,0-.41-2,1.42,1.42,0,0,0-1.25-.6,1.63,1.63,0,0,0-1.06.37,2.66,2.66,0,0,0-.75,1v7.7h-1.95V151.4Z" transform="translate(-0.49 -1.71)"/><path d="M298.22,158.27h-4.46l-1,3.53h-2l4.31-14H297l4.27,14h-2Zm-4-1.55h3.57L296,150.61H296Z" transform="translate(-0.49 -1.71)"/><path d="M306.16,160.52a1.58,1.58,0,0,0,1.23-.56,2.17,2.17,0,0,0,.5-1.5h1.74l0,.06a3.16,3.16,0,0,1-1,2.47,3.42,3.42,0,0,1-2.5,1,3.58,3.58,0,0,1-3-1.31,5.28,5.28,0,0,1-1-3.36V155.9a5.28,5.28,0,0,1,1-3.36,3.53,3.53,0,0,1,3-1.33,3.35,3.35,0,0,1,2.56,1,3.77,3.77,0,0,1,1,2.73l0,.06h-1.74a2.79,2.79,0,0,0-.48-1.7,1.49,1.49,0,0,0-1.26-.66,1.62,1.62,0,0,0-1.58.91,5,5,0,0,0-.47,2.29v1.44a5,5,0,0,0,.47,2.3A1.64,1.64,0,0,0,306.16,160.52Z" transform="translate(-0.49 -1.71)"/><path d="M313.88,148.82v2.58h1.63v1.4h-1.63V159a2,2,0,0,0,.24,1.14.74.74,0,0,0,.63.35,3,3,0,0,0,.43,0l.46-.09.2,1.35a3.68,3.68,0,0,1-.73.21,3.92,3.92,0,0,1-.84.08,2.14,2.14,0,0,1-1.72-.72,3.52,3.52,0,0,1-.61-2.29V152.8h-1.35v-1.4h1.35v-2.58Z" transform="translate(-0.49 -1.71)"/><path d="M319.5,148.67h-1.95v-1.86h1.95Zm0,13.13h-1.95V151.4h1.95Z" transform="translate(-0.49 -1.71)"/><path d="M324.88,158.68l.17.81h.06l.16-.81L327,151.4h2l-3.12,10.4h-1.72l-3.13-10.4h2Z" transform="translate(-0.49 -1.71)"/><path d="M335.59,161.8a6.91,6.91,0,0,1-.17-.69,5.43,5.43,0,0,1-.09-.69,3.69,3.69,0,0,1-1.08,1.14,2.51,2.51,0,0,1-1.46.44,2.62,2.62,0,0,1-2.06-.83A3.22,3.22,0,0,1,330,159a2.9,2.9,0,0,1,1-2.34,4.31,4.31,0,0,1,2.85-.85h1.45V154.7a2.35,2.35,0,0,0-.42-1.48,1.6,1.6,0,0,0-2.33-.05,1.76,1.76,0,0,0-.43,1.19h-1.85l0,0a2.72,2.72,0,0,1,1-2.15,3.69,3.69,0,0,1,2.6-.94,3.47,3.47,0,0,1,2.5.91,3.4,3.4,0,0,1,.95,2.59v4.82a8.72,8.72,0,0,0,.08,1.17,5.81,5.81,0,0,0,.23,1.1Zm-2.35-1.28a2.06,2.06,0,0,0,1.24-.4,2.32,2.32,0,0,0,.82-1V157h-1.48a1.73,1.73,0,0,0-1.38.57,2.1,2.1,0,0,0-.5,1.41,1.78,1.78,0,0,0,.34,1.14A1.13,1.13,0,0,0,333.24,160.52Z" transform="translate(-0.49 -1.71)"/><path d="M342,148.82v2.58h1.63v1.4H342V159a2,2,0,0,0,.24,1.14.74.74,0,0,0,.63.35,3,3,0,0,0,.43,0l.46-.09.2,1.35a3.68,3.68,0,0,1-.73.21,3.92,3.92,0,0,1-.84.08,2.14,2.14,0,0,1-1.72-.72A3.52,3.52,0,0,1,340,159V152.8h-1.35v-1.4H340v-2.58Z" transform="translate(-0.49 -1.71)"/><path d="M347.58,148.67h-1.95v-1.86h1.95Zm0,13.13h-1.95V151.4h1.95Z" transform="translate(-0.49 -1.71)"/><path d="M349.56,156a5.23,5.23,0,0,1,1.08-3.4,4,4,0,0,1,5.93,0,5.25,5.25,0,0,1,1.08,3.41v1.33a5.19,5.19,0,0,1-1.08,3.4,3.6,3.6,0,0,1-2.95,1.32,3.65,3.65,0,0,1-3-1.32,5.19,5.19,0,0,1-1.08-3.4Zm1.95,1.32a4.77,4.77,0,0,0,.52,2.34,1.71,1.71,0,0,0,1.59.91,1.69,1.69,0,0,0,1.56-.91,4.66,4.66,0,0,0,.52-2.34v-1.33a4.65,4.65,0,0,0-.52-2.33,1.81,1.81,0,0,0-3.15,0,4.73,4.73,0,0,0-.52,2.33Z" transform="translate(-0.49 -1.71)"/><path d="M361.28,151.4l.1,1.54a3.52,3.52,0,0,1,1.1-1.27,2.54,2.54,0,0,1,1.5-.46,2.5,2.5,0,0,1,2.12,1,5.19,5.19,0,0,1,.76,3.13v6.45h-1.95v-6.43a3.78,3.78,0,0,0-.41-2,1.43,1.43,0,0,0-1.25-.6,1.63,1.63,0,0,0-1.06.37,2.66,2.66,0,0,0-.75,1v7.7h-1.95V151.4Z" transform="translate(-0.49 -1.71)"/><line class="cls-6" x1="168.6" y1="295.48" x2="126.75" y2="269.4"/><polygon class="cls-7" points="137.11 260.16 110.49 259.25 123.02 282.76 137.11 260.16"/><path class="cls-8" d="M236.53,282.58H173.79a4.76,4.76,0,0,0-4.7,4.82V313a4.76,4.76,0,0,0,4.7,4.82h62.74a4.77,4.77,0,0,0,4.7-4.82V287.4A4.77,4.77,0,0,0,236.53,282.58Z" transform="translate(-0.49 -1.71)"/><path d="M189.32,302.68v4.5h-1.59V295.81h3.74a3.28,3.28,0,0,1,2.5.95,3.86,3.86,0,0,1,0,5,3.31,3.31,0,0,1-2.5.94Zm0-1.2h2.15a1.58,1.58,0,0,0,1.36-.63,2.6,2.6,0,0,0,.46-1.59,2.67,2.67,0,0,0-.46-1.61,1.55,1.55,0,0,0-1.36-.64h-2.15Z" transform="translate(-0.49 -1.71)"/><path d="M196,302.42a4.21,4.21,0,0,1,.88-2.76,2.94,2.94,0,0,1,2.41-1.09,2.91,2.91,0,0,1,2.4,1.09,4.21,4.21,0,0,1,.89,2.76v1.08a4.26,4.26,0,0,1-.88,2.77,3.23,3.23,0,0,1-4.82,0,4.2,4.2,0,0,1-.88-2.77Zm1.58,1.08a3.84,3.84,0,0,0,.43,1.9,1.48,1.48,0,0,0,2.56,0,3.84,3.84,0,0,0,.42-1.9v-1.08a3.84,3.84,0,0,0-.42-1.9,1.4,1.4,0,0,0-1.28-.74,1.36,1.36,0,0,0-1.28.74,3.84,3.84,0,0,0-.43,1.9Z" transform="translate(-0.49 -1.71)"/><path d="M205.74,296.51h-1.58V295h1.58Zm0,10.67h-1.58v-8.45h1.58Z" transform="translate(-0.49 -1.71)"/><path d="M207.37,303.06a6.32,6.32,0,0,1,.73-3.26,2.28,2.28,0,0,1,2.06-1.23,2,2,0,0,1,1.05.27,2.53,2.53,0,0,1,.81.76V295h1.57v12.18h-1.38l-.12-1a2.39,2.39,0,0,1-.82.85,2.2,2.2,0,0,1-1.12.29,2.32,2.32,0,0,1-2.05-1.13,5.42,5.42,0,0,1-.73-3Zm1.58.16a4.8,4.8,0,0,0,.39,2.12,1.26,1.26,0,0,0,1.21.78,1.4,1.4,0,0,0,.88-.28,2.13,2.13,0,0,0,.59-.79v-4.11a2.38,2.38,0,0,0-.59-.83,1.33,1.33,0,0,0-.87-.3,1.29,1.29,0,0,0-1.22.9,5.93,5.93,0,0,0-.39,2.35Z" transform="translate(-0.49 -1.71)"/><path d="M219.38,305.07a1.17,1.17,0,0,0-.33-.84,4.14,4.14,0,0,0-1.22-.74,6.42,6.42,0,0,1-1.94-1.08,2,2,0,0,1-.62-1.49,2.11,2.11,0,0,1,.77-1.66,3.28,3.28,0,0,1,4.09.05,2.34,2.34,0,0,1,.75,1.84l0,.05h-1.52a1.68,1.68,0,0,0-.34-1,1.13,1.13,0,0,0-.95-.43,1.21,1.21,0,0,0-.92.34,1.07,1.07,0,0,0-.33.78,1,1,0,0,0,.28.77,5,5,0,0,0,1.23.73,5.64,5.64,0,0,1,2,1.09,2.06,2.06,0,0,1,.64,1.55,2.1,2.1,0,0,1-.8,1.7,3.17,3.17,0,0,1-2.09.66,3,3,0,0,1-2.2-.8,2.35,2.35,0,0,1-.77-1.85l0-.05h1.47a1.41,1.41,0,0,0,1.5,1.55,1.4,1.4,0,0,0,1-.32A1.05,1.05,0,0,0,219.38,305.07Z" transform="translate(-0.49 -1.71)"/><path d="M289.86,302.85a5.47,5.47,0,0,1-.9,3.3,2.93,2.93,0,0,1-2.52,1.23A2.72,2.72,0,0,1,285,307a2.92,2.92,0,0,1-1-1.06l-.14,1.22h-1.69v-15h1.95v5.69a2.89,2.89,0,0,1,1-1,2.64,2.64,0,0,1,1.34-.33,2.88,2.88,0,0,1,2.53,1.32,6.2,6.2,0,0,1,.9,3.53Zm-1.95-1.41a5.24,5.24,0,0,0-.47-2.42,1.6,1.6,0,0,0-1.5-.91,1.68,1.68,0,0,0-1.12.39,2.64,2.64,0,0,0-.71,1v5a2.32,2.32,0,0,0,.72,1,1.82,1.82,0,0,0,1.12.35,1.61,1.61,0,0,0,1.5-.82,4.48,4.48,0,0,0,.46-2.21Z" transform="translate(-0.49 -1.71)"/><line class="cls-9" x1="266.62" y1="57.24" x2="266.62" y2="322.57"/><line class="cls-6" x1="366.09" y1="297.06" x2="319.8" y2="298.31"/><polygon class="cls-7" points="323.33 284.89 300.63 298.83 324.05 311.52 323.33 284.89"/><path class="cls-8" d="M434,316.38H371.28a4.76,4.76,0,0,1-4.7-4.82V286a4.76,4.76,0,0,1,4.7-4.82H434a4.77,4.77,0,0,1,4.7,4.82v25.58A4.77,4.77,0,0,1,434,316.38Z" transform="translate(-0.49 -1.71)"/><path d="M387.45,305.24V293.86h3.17a3.79,3.79,0,0,1,2.52.77,2.83,2.83,0,0,1,.9,2.29,2.58,2.58,0,0,1-.41,1.44,2.35,2.35,0,0,1-1.14.91,2.18,2.18,0,0,1,1.42,1,3.23,3.23,0,0,1,.5,1.79,3.1,3.1,0,0,1-.89,2.39,3.46,3.46,0,0,1-2.45.83Zm1.59-6.45h1.74a1.63,1.63,0,0,0,1.23-.47,2,2,0,0,0,.44-1.37,1.92,1.92,0,0,0-.46-1.41,1.82,1.82,0,0,0-1.37-.47H389Zm0,1.14V304h2a1.62,1.62,0,0,0,1.3-.52,2.13,2.13,0,0,0,.46-1.48,2.67,2.67,0,0,0-.39-1.53,1.36,1.36,0,0,0-1.21-.57Z" transform="translate(-0.49 -1.71)"/><path d="M397.71,294.57h-1.59v-1.52h1.59Zm0,10.67h-1.59v-8.46h1.59Z" transform="translate(-0.49 -1.71)"/><path d="M403.94,305.24a4,4,0,0,1-.14-.57,3.43,3.43,0,0,1-.07-.56,3,3,0,0,1-.89.93,2,2,0,0,1-1.18.36,2.12,2.12,0,0,1-1.67-.67,2.64,2.64,0,0,1-.61-1.81,2.38,2.38,0,0,1,.83-1.91,3.5,3.5,0,0,1,2.31-.69h1.18v-.86a1.88,1.88,0,0,0-.34-1.2,1.31,1.31,0,0,0-1.9,0,1.4,1.4,0,0,0-.34,1h-1.51l0-.05a2.17,2.17,0,0,1,.78-1.74,3,3,0,0,1,2.11-.76,2.79,2.79,0,0,1,2,.74,2.75,2.75,0,0,1,.78,2.1v3.92a7.23,7.23,0,0,0,.06.95,5.33,5.33,0,0,0,.19.9Zm-1.92-1a1.67,1.67,0,0,0,1-.33,1.92,1.92,0,0,0,.67-.83v-1.73h-1.2a1.4,1.4,0,0,0-1.13.47,1.67,1.67,0,0,0-.4,1.14,1.46,1.46,0,0,0,.27.92A.94.94,0,0,0,402,304.2Z" transform="translate(-0.49 -1.71)"/><path d="M408.78,294.57h-1.59v-1.52h1.59Zm0,10.67h-1.59v-8.46h1.59Z" transform="translate(-0.49 -1.71)"/><path d="M414.64,303.12a1.16,1.16,0,0,0-.32-.83,4.12,4.12,0,0,0-1.23-.75,6.35,6.35,0,0,1-1.93-1.08,1.92,1.92,0,0,1-.63-1.49,2.16,2.16,0,0,1,.77-1.66,3,3,0,0,1,2-.68,2.86,2.86,0,0,1,2.08.74,2.35,2.35,0,0,1,.74,1.84l0,0H414.6a1.6,1.6,0,0,0-.34-1,1.14,1.14,0,0,0-.94-.44,1.29,1.29,0,0,0-.93.34,1.09,1.09,0,0,0-.33.79,1,1,0,0,0,.29.76,4.94,4.94,0,0,0,1.23.74,5.85,5.85,0,0,1,2,1.08,2,2,0,0,1,.64,1.55,2.11,2.11,0,0,1-.79,1.71,3.23,3.23,0,0,1-2.1.65,3,3,0,0,1-2.2-.79,2.4,2.4,0,0,1-.76-1.86v0h1.48a1.4,1.4,0,0,0,1.5,1.54,1.37,1.37,0,0,0,1-.31A1,1,0,0,0,414.64,303.12Z" transform="translate(-0.49 -1.71)"/></svg>