<?xml version="1.0" encoding="utf-8"?>
<!-- Generator: Adobe Illustrator 26.0.3, SVG Export Plug-In . SVG Version: 6.00 Build 0)  -->
<svg version="1.1" id="Calque_1" xmlns="http://www.w3.org/2000/svg" xmlns:xlink="http://www.w3.org/1999/xlink" x="0px" y="0px"
	 viewBox="0 0 394.4 394.4" style="enable-background:new 0 0 394.4 394.4;" xml:space="preserve">
<style type="text/css">
	.st0{fill:none;stroke:#4174A4;stroke-width:3.4206;stroke-miterlimit:10;}
	.st1{fill:#4174A4;}
	.st2{fill:#008B5A;}
	.st3{fill:#984808;}
	.st4{fill-rule:evenodd;clip-rule:evenodd;fill:#984808;}
</style>
<circle class="st0" cx="197" cy="197" r="195.5"/>
<ellipse class="st0" cx="197" cy="297.6" rx="113.1" ry="94.9"/>
<ellipse class="st0" cx="197" cy="246.1" rx="164.7" ry="146.4"/>
<g>
	<path class="st1" d="M108.3,91.7V80.2h2.4v11.4H108.3z"/>
	<path class="st1" d="M121.4,91.7H119v-5.1c0-0.6-0.1-1.1-0.3-1.4c-0.2-0.3-0.6-0.5-1.1-0.5c-0.7,0-1.1,0.2-1.4,0.7
		s-0.4,1.2-0.4,2.2v4.1h-2.4v-8.7h1.8l0.3,1.1h0.1c0.3-0.4,0.6-0.7,1.1-1c0.5-0.2,1-0.3,1.6-0.3c1,0,1.8,0.3,2.3,0.8
		c0.5,0.5,0.8,1.3,0.8,2.4V91.7z"/>
	<path class="st1" d="M127.6,89.9c0.4,0,0.9-0.1,1.5-0.3v1.8c-0.6,0.3-1.3,0.4-2.2,0.4c-1,0-1.6-0.2-2.1-0.7
		c-0.4-0.5-0.7-1.2-0.7-2.2v-4.2H123v-1l1.3-0.8l0.7-1.8h1.5v1.9h2.4v1.8h-2.4v4.2c0,0.3,0.1,0.6,0.3,0.8
		C127,89.8,127.2,89.9,127.6,89.9z"/>
	<path class="st1" d="M134.8,91.8c-1.4,0-2.5-0.4-3.3-1.2c-0.8-0.8-1.2-1.9-1.2-3.3c0-1.5,0.4-2.6,1.1-3.4c0.7-0.8,1.7-1.2,3-1.2
		c1.2,0,2.2,0.4,2.9,1.1s1,1.7,1,2.9v1.2h-5.6c0,0.7,0.2,1.2,0.6,1.6c0.4,0.4,0.9,0.6,1.6,0.6c0.5,0,1-0.1,1.5-0.2s1-0.3,1.5-0.5
		v1.8c-0.4,0.2-0.9,0.4-1.3,0.5C136,91.8,135.5,91.8,134.8,91.8z M134.4,84.5c-0.5,0-0.9,0.2-1.2,0.5c-0.3,0.3-0.5,0.8-0.5,1.4h3.3
		c0-0.6-0.2-1-0.5-1.4S134.9,84.5,134.4,84.5z"/>
	<path class="st1" d="M142.7,91.7h-2.4V79.5h2.4V91.7z"/>
	<path class="st1" d="M147.5,91.7h-2.4V79.5h2.4V91.7z"/>
	<path class="st1" d="M149.9,80.7c0-0.8,0.4-1.2,1.3-1.2c0.9,0,1.3,0.4,1.3,1.2c0,0.4-0.1,0.7-0.3,0.9c-0.2,0.2-0.5,0.3-1,0.3
		C150.4,81.8,149.9,81.4,149.9,80.7z M152.4,91.7H150v-8.7h2.4V91.7z"/>
	<path class="st1" d="M162.5,82.9v1.2l-1.4,0.4c0.2,0.4,0.4,0.8,0.4,1.3c0,0.9-0.3,1.7-1,2.2c-0.7,0.5-1.6,0.8-2.7,0.8l-0.4,0
		l-0.4,0c-0.2,0.2-0.4,0.4-0.4,0.6c0,0.3,0.4,0.5,1.3,0.5h1.5c1,0,1.7,0.2,2.2,0.6c0.5,0.4,0.8,1,0.8,1.8c0,1-0.4,1.8-1.3,2.4
		s-2.1,0.8-3.7,0.8c-1.2,0-2.1-0.2-2.8-0.6c-0.6-0.4-1-1-1-1.8c0-0.5,0.2-1,0.5-1.3s0.8-0.6,1.4-0.8c-0.2-0.1-0.5-0.3-0.6-0.5
		c-0.2-0.2-0.3-0.5-0.3-0.8c0-0.3,0.1-0.6,0.3-0.8c0.2-0.2,0.5-0.4,0.8-0.7c-0.5-0.2-0.8-0.5-1.1-1c-0.3-0.4-0.4-1-0.4-1.5
		c0-1,0.3-1.7,0.9-2.2c0.6-0.5,1.5-0.8,2.7-0.8c0.2,0,0.5,0,0.9,0.1c0.3,0,0.6,0.1,0.6,0.1H162.5z M155.8,92.9
		c0,0.3,0.2,0.6,0.5,0.8c0.3,0.2,0.8,0.3,1.3,0.3c0.9,0,1.5-0.1,2-0.4s0.7-0.6,0.7-1c0-0.3-0.1-0.6-0.4-0.7
		c-0.3-0.1-0.7-0.2-1.3-0.2h-1.2c-0.4,0-0.8,0.1-1.1,0.3C155.9,92.3,155.8,92.6,155.8,92.9z M156.7,85.8c0,0.5,0.1,0.8,0.3,1.1
		c0.2,0.3,0.5,0.4,1,0.4c0.4,0,0.8-0.1,1-0.4c0.2-0.3,0.3-0.7,0.3-1.1c0-1.1-0.4-1.6-1.3-1.6C157.1,84.2,156.7,84.7,156.7,85.8z"/>
	<path class="st1" d="M167.9,91.8c-1.4,0-2.5-0.4-3.3-1.2c-0.8-0.8-1.2-1.9-1.2-3.3c0-1.5,0.4-2.6,1.1-3.4c0.7-0.8,1.7-1.2,3-1.2
		c1.2,0,2.2,0.4,2.9,1.1s1,1.7,1,2.9v1.2h-5.6c0,0.7,0.2,1.2,0.6,1.6c0.4,0.4,0.9,0.6,1.6,0.6c0.5,0,1-0.1,1.5-0.2s1-0.3,1.5-0.5
		v1.8c-0.4,0.2-0.9,0.4-1.3,0.5C169.2,91.8,168.6,91.8,167.9,91.8z M167.6,84.5c-0.5,0-0.9,0.2-1.2,0.5c-0.3,0.3-0.5,0.8-0.5,1.4
		h3.3c0-0.6-0.2-1-0.5-1.4S168.1,84.5,167.6,84.5z"/>
	<path class="st1" d="M181.5,91.7h-2.4v-5.1c0-0.6-0.1-1.1-0.3-1.4c-0.2-0.3-0.6-0.5-1.1-0.5c-0.7,0-1.1,0.2-1.4,0.7
		s-0.4,1.2-0.4,2.2v4.1h-2.4v-8.7h1.8l0.3,1.1h0.1c0.3-0.4,0.6-0.7,1.1-1c0.5-0.2,1-0.3,1.6-0.3c1,0,1.8,0.3,2.3,0.8
		c0.5,0.5,0.8,1.3,0.8,2.4V91.7z"/>
	<path class="st1" d="M187.5,91.8c-2.7,0-4.1-1.5-4.1-4.5c0-1.5,0.4-2.6,1.1-3.4c0.7-0.8,1.8-1.2,3.2-1.2c1,0,1.9,0.2,2.7,0.6
		l-0.7,1.8c-0.4-0.2-0.7-0.3-1-0.4c-0.3-0.1-0.6-0.1-1-0.1c-1.2,0-1.9,0.9-1.9,2.6c0,1.7,0.6,2.6,1.9,2.6c0.5,0,0.9-0.1,1.3-0.2
		c0.4-0.1,0.8-0.3,1.2-0.6v2c-0.4,0.2-0.8,0.4-1.2,0.5C188.6,91.8,188.1,91.8,187.5,91.8z"/>
	<path class="st1" d="M196.1,91.8c-1.4,0-2.5-0.4-3.3-1.2c-0.8-0.8-1.2-1.9-1.2-3.3c0-1.5,0.4-2.6,1.1-3.4c0.7-0.8,1.7-1.2,3-1.2
		c1.2,0,2.2,0.4,2.9,1.1c0.7,0.7,1,1.7,1,2.9v1.2H194c0,0.7,0.2,1.2,0.6,1.6c0.4,0.4,0.9,0.6,1.6,0.6c0.5,0,1-0.1,1.5-0.2
		c0.5-0.1,1-0.3,1.5-0.5v1.8c-0.4,0.2-0.9,0.4-1.3,0.5C197.4,91.8,196.8,91.8,196.1,91.8z M195.8,84.5c-0.5,0-0.9,0.2-1.2,0.5
		c-0.3,0.3-0.5,0.8-0.5,1.4h3.3c0-0.6-0.2-1-0.5-1.4S196.3,84.5,195.8,84.5z"/>
	<path class="st1" d="M211.3,91.7l-0.5-1.2h-0.1c-0.4,0.5-0.8,0.9-1.2,1.1s-1,0.3-1.7,0.3c-0.8,0-1.5-0.2-2-0.7
		c-0.5-0.5-0.7-1.2-0.7-2c0-0.9,0.3-1.6,1-2.1c0.6-0.4,1.6-0.7,2.9-0.7l1.5,0v-0.4c0-0.9-0.5-1.3-1.4-1.3c-0.7,0-1.5,0.2-2.5,0.6
		l-0.8-1.6c1-0.5,2.1-0.8,3.3-0.8c1.2,0,2.1,0.3,2.7,0.8c0.6,0.5,0.9,1.3,0.9,2.3v5.8H211.3z M210.6,87.6l-0.9,0
		c-0.7,0-1.2,0.1-1.5,0.4c-0.3,0.2-0.5,0.6-0.5,1c0,0.7,0.4,1,1.2,1c0.6,0,1-0.2,1.3-0.5c0.3-0.3,0.5-0.7,0.5-1.3V87.6z"/>
	<path class="st1" d="M220.3,82.8c0.3,0,0.6,0,0.8,0.1l-0.2,2.2c-0.2-0.1-0.4-0.1-0.7-0.1c-0.8,0-1.4,0.2-1.8,0.6s-0.6,0.9-0.6,1.6
		v4.4h-2.4v-8.7h1.8l0.4,1.5h0.1c0.3-0.5,0.6-0.9,1.1-1.2C219.3,82.9,219.8,82.8,220.3,82.8z"/>
	<path class="st1" d="M226.4,89.9c0.4,0,0.9-0.1,1.5-0.3v1.8c-0.6,0.3-1.3,0.4-2.2,0.4c-1,0-1.6-0.2-2.1-0.7
		c-0.4-0.5-0.7-1.2-0.7-2.2v-4.2h-1.1v-1l1.3-0.8l0.7-1.8h1.5v1.9h2.4v1.8h-2.4v4.2c0,0.3,0.1,0.6,0.3,0.8
		C225.8,89.8,226.1,89.9,226.4,89.9z"/>
	<path class="st1" d="M229.5,80.7c0-0.8,0.4-1.2,1.3-1.2s1.3,0.4,1.3,1.2c0,0.4-0.1,0.7-0.3,0.9c-0.2,0.2-0.5,0.3-1,0.3
		C230,81.8,229.5,81.4,229.5,80.7z M232,91.7h-2.4v-8.7h2.4V91.7z"/>
	<path class="st1" d="M239.4,84.7h-2.1v6.9h-2.4v-6.9h-1.3v-1.1l1.3-0.6v-0.6c0-1,0.2-1.7,0.7-2.2c0.5-0.5,1.3-0.7,2.4-0.7
		c0.8,0,1.6,0.1,2.2,0.4l-0.6,1.8c-0.5-0.2-0.9-0.2-1.3-0.2c-0.3,0-0.6,0.1-0.7,0.3c-0.2,0.2-0.2,0.5-0.2,0.8v0.5h2.1V84.7z
		 M240.6,80.7c0-0.8,0.4-1.2,1.3-1.2s1.3,0.4,1.3,1.2c0,0.4-0.1,0.7-0.3,0.9c-0.2,0.2-0.5,0.3-1,0.3
		C241.1,81.8,240.6,81.4,240.6,80.7z M243.1,91.7h-2.4v-8.7h2.4V91.7z"/>
	<path class="st1" d="M249.1,91.8c-2.7,0-4.1-1.5-4.1-4.5c0-1.5,0.4-2.6,1.1-3.4c0.7-0.8,1.8-1.2,3.2-1.2c1,0,1.9,0.2,2.7,0.6
		l-0.7,1.8c-0.4-0.2-0.7-0.3-1-0.4c-0.3-0.1-0.6-0.1-1-0.1c-1.2,0-1.9,0.9-1.9,2.6c0,1.7,0.6,2.6,1.9,2.6c0.5,0,0.9-0.1,1.3-0.2
		c0.4-0.1,0.8-0.3,1.2-0.6v2c-0.4,0.2-0.8,0.4-1.2,0.5S249.7,91.8,249.1,91.8z"/>
	<path class="st1" d="M253.7,80.7c0-0.8,0.4-1.2,1.3-1.2s1.3,0.4,1.3,1.2c0,0.4-0.1,0.7-0.3,0.9c-0.2,0.2-0.5,0.3-1,0.3
		C254.2,81.8,253.7,81.4,253.7,80.7z M256.2,91.7h-2.4v-8.7h2.4V91.7z"/>
	<path class="st1" d="M262.7,91.8c-1.4,0-2.5-0.4-3.3-1.2c-0.8-0.8-1.2-1.9-1.2-3.3c0-1.5,0.4-2.6,1.1-3.4c0.7-0.8,1.7-1.2,3-1.2
		c1.2,0,2.2,0.4,2.9,1.1s1,1.7,1,2.9v1.2h-5.6c0,0.7,0.2,1.2,0.6,1.6c0.4,0.4,0.9,0.6,1.6,0.6c0.5,0,1-0.1,1.5-0.2s1-0.3,1.5-0.5
		v1.8c-0.4,0.2-0.9,0.4-1.3,0.5S263.3,91.8,262.7,91.8z M262.3,84.5c-0.5,0-0.9,0.2-1.2,0.5s-0.5,0.8-0.5,1.4h3.3
		c0-0.6-0.2-1-0.5-1.4S262.8,84.5,262.3,84.5z"/>
	<path class="st1" d="M270.5,91.7h-2.4V79.5h2.4V91.7z"/>
	<path class="st1" d="M275.4,91.7H273V79.5h2.4V91.7z"/>
	<path class="st1" d="M281.9,91.8c-1.4,0-2.5-0.4-3.3-1.2c-0.8-0.8-1.2-1.9-1.2-3.3c0-1.5,0.4-2.6,1.1-3.4c0.7-0.8,1.7-1.2,3-1.2
		c1.2,0,2.2,0.4,2.9,1.1s1,1.7,1,2.9v1.2h-5.6c0,0.7,0.2,1.2,0.6,1.6c0.4,0.4,0.9,0.6,1.6,0.6c0.5,0,1-0.1,1.5-0.2s1-0.3,1.5-0.5
		v1.8c-0.4,0.2-0.9,0.4-1.3,0.5S282.6,91.8,281.9,91.8z M281.5,84.5c-0.5,0-0.9,0.2-1.2,0.5s-0.5,0.8-0.5,1.4h3.3
		c0-0.6-0.2-1-0.5-1.4S282,84.5,281.5,84.5z"/>
</g>
<g>
	<path class="st2" d="M93.5,191.6l-0.8-2.7h-4.2l-0.8,2.7H85l4-11.5h3l4,11.5H93.5z M92,186.8c-0.8-2.5-1.2-3.9-1.3-4.2
		c-0.1-0.3-0.2-0.6-0.2-0.8c-0.2,0.7-0.7,2.3-1.5,4.9H92z"/>
	<path class="st2" d="M102.1,191.7c-1,0-1.8-0.4-2.4-1.1h-0.1c0.1,0.7,0.1,1.2,0.1,1.3v3.5h-2.4v-12.6h1.9l0.3,1.1h0.1
		c0.6-0.9,1.4-1.3,2.5-1.3c1,0,1.8,0.4,2.4,1.2c0.6,0.8,0.9,1.9,0.9,3.3c0,0.9-0.1,1.7-0.4,2.4s-0.7,1.2-1.2,1.6
		C103.4,191.5,102.8,191.7,102.1,191.7z M101.4,184.6c-0.6,0-1,0.2-1.3,0.5c-0.3,0.4-0.4,1-0.4,1.8v0.3c0,0.9,0.1,1.6,0.4,2
		c0.3,0.4,0.7,0.6,1.3,0.6c1.1,0,1.6-0.9,1.6-2.6c0-0.9-0.1-1.5-0.4-1.9C102.4,184.8,102,184.6,101.4,184.6z"/>
	<path class="st2" d="M112.2,191.7c-1,0-1.8-0.4-2.4-1.1h-0.1c0.1,0.7,0.1,1.2,0.1,1.3v3.5h-2.4v-12.6h1.9l0.3,1.1h0.1
		c0.6-0.9,1.4-1.3,2.5-1.3c1,0,1.8,0.4,2.4,1.2c0.6,0.8,0.9,1.9,0.9,3.3c0,0.9-0.1,1.7-0.4,2.4s-0.7,1.2-1.2,1.6
		C113.5,191.5,112.9,191.7,112.2,191.7z M111.5,184.6c-0.6,0-1,0.2-1.3,0.5c-0.3,0.4-0.4,1-0.4,1.8v0.3c0,0.9,0.1,1.6,0.4,2
		c0.3,0.4,0.7,0.6,1.3,0.6c1.1,0,1.6-0.9,1.6-2.6c0-0.9-0.1-1.5-0.4-1.9C112.5,184.8,112.1,184.6,111.5,184.6z"/>
	<path class="st2" d="M122.4,182.7c0.3,0,0.6,0,0.8,0.1l-0.2,2.2c-0.2-0.1-0.4-0.1-0.7-0.1c-0.8,0-1.4,0.2-1.8,0.6
		c-0.4,0.4-0.6,0.9-0.6,1.6v4.4h-2.4v-8.7h1.8l0.4,1.5h0.1c0.3-0.5,0.6-0.9,1.1-1.2C121.4,182.8,121.9,182.7,122.4,182.7z"/>
	<path class="st2" d="M128.8,191.7c-1.4,0-2.5-0.4-3.3-1.2c-0.8-0.8-1.2-1.9-1.2-3.3c0-1.5,0.4-2.6,1.1-3.4c0.7-0.8,1.7-1.2,3-1.2
		c1.2,0,2.2,0.4,2.9,1.1s1,1.7,1,2.9v1.2h-5.6c0,0.7,0.2,1.2,0.6,1.6c0.4,0.4,0.9,0.6,1.6,0.6c0.5,0,1-0.1,1.5-0.2s1-0.3,1.5-0.5
		v1.8c-0.4,0.2-0.9,0.4-1.3,0.5C130,191.7,129.5,191.7,128.8,191.7z M128.4,184.4c-0.5,0-0.9,0.2-1.2,0.5c-0.3,0.3-0.5,0.8-0.5,1.4
		h3.3c0-0.6-0.2-1-0.5-1.4S128.9,184.4,128.4,184.4z"/>
	<path class="st2" d="M142.3,191.6H140v-5.1c0-0.6-0.1-1.1-0.3-1.4c-0.2-0.3-0.6-0.5-1.1-0.5c-0.7,0-1.1,0.2-1.4,0.7
		s-0.4,1.2-0.4,2.2v4.1h-2.4v-8.7h1.8l0.3,1.1h0.1c0.3-0.4,0.6-0.7,1.1-1c0.5-0.2,1-0.3,1.6-0.3c1,0,1.8,0.3,2.3,0.8
		c0.5,0.5,0.8,1.3,0.8,2.4V191.6z"/>
	<path class="st2" d="M148.5,189.8c0.4,0,0.9-0.1,1.5-0.3v1.8c-0.6,0.3-1.3,0.4-2.2,0.4c-1,0-1.6-0.2-2.1-0.7
		c-0.4-0.5-0.7-1.2-0.7-2.2v-4.2h-1.1v-1l1.3-0.8l0.7-1.8h1.5v1.9h2.4v1.8h-2.4v4.2c0,0.3,0.1,0.6,0.3,0.8
		C147.9,189.7,148.2,189.8,148.5,189.8z"/>
	<path class="st2" d="M151.6,180.6c0-0.8,0.4-1.2,1.3-1.2c0.9,0,1.3,0.4,1.3,1.2c0,0.4-0.1,0.7-0.3,0.9c-0.2,0.2-0.5,0.3-1,0.3
		C152.1,181.8,151.6,181.4,151.6,180.6z M154.1,191.6h-2.4v-8.7h2.4V191.6z"/>
	<path class="st2" d="M162.7,189c0,0.9-0.3,1.6-0.9,2c-0.6,0.5-1.6,0.7-2.8,0.7c-0.6,0-1.2,0-1.6-0.1c-0.4-0.1-0.9-0.2-1.3-0.4v-2
		c0.4,0.2,0.9,0.4,1.5,0.5s1,0.2,1.5,0.2c0.9,0,1.3-0.2,1.3-0.8c0-0.2-0.1-0.3-0.2-0.5c-0.1-0.1-0.3-0.2-0.6-0.4s-0.7-0.3-1.1-0.5
		c-0.7-0.3-1.2-0.5-1.5-0.8c-0.3-0.2-0.5-0.5-0.7-0.8c-0.1-0.3-0.2-0.7-0.2-1.1c0-0.8,0.3-1.4,0.9-1.8c0.6-0.4,1.5-0.6,2.6-0.6
		c1.1,0,2.1,0.2,3.1,0.7l-0.7,1.7c-0.4-0.2-0.8-0.3-1.2-0.5c-0.4-0.1-0.8-0.2-1.2-0.2c-0.7,0-1.1,0.2-1.1,0.6c0,0.2,0.1,0.4,0.3,0.6
		s0.7,0.4,1.5,0.7c0.7,0.3,1.2,0.5,1.5,0.8c0.3,0.2,0.6,0.5,0.7,0.8C162.6,188.2,162.7,188.5,162.7,189z"/>
	<path class="st2" d="M170.7,189c0,0.9-0.3,1.6-0.9,2c-0.6,0.5-1.6,0.7-2.8,0.7c-0.6,0-1.2,0-1.6-0.1c-0.4-0.1-0.9-0.2-1.3-0.4v-2
		c0.4,0.2,0.9,0.4,1.5,0.5s1,0.2,1.5,0.2c0.9,0,1.3-0.2,1.3-0.8c0-0.2-0.1-0.3-0.2-0.5c-0.1-0.1-0.3-0.2-0.6-0.4s-0.7-0.3-1.1-0.5
		c-0.7-0.3-1.2-0.5-1.5-0.8c-0.3-0.2-0.5-0.5-0.7-0.8c-0.1-0.3-0.2-0.7-0.2-1.1c0-0.8,0.3-1.4,0.9-1.8c0.6-0.4,1.5-0.6,2.6-0.6
		c1.1,0,2.1,0.2,3.1,0.7l-0.7,1.7c-0.4-0.2-0.8-0.3-1.2-0.5c-0.4-0.1-0.8-0.2-1.2-0.2c-0.7,0-1.1,0.2-1.1,0.6c0,0.2,0.1,0.4,0.3,0.6
		s0.7,0.4,1.5,0.7c0.7,0.3,1.2,0.5,1.5,0.8c0.3,0.2,0.6,0.5,0.7,0.8C170.6,188.2,170.7,188.5,170.7,189z"/>
	<path class="st2" d="M178.1,191.6l-0.5-1.2h-0.1c-0.4,0.5-0.8,0.9-1.2,1.1c-0.4,0.2-1,0.3-1.7,0.3c-0.8,0-1.5-0.2-2-0.7
		c-0.5-0.5-0.7-1.2-0.7-2c0-0.9,0.3-1.6,1-2.1c0.6-0.4,1.6-0.7,2.9-0.7l1.5,0v-0.4c0-0.9-0.5-1.3-1.4-1.3c-0.7,0-1.5,0.2-2.5,0.6
		l-0.8-1.6c1-0.5,2.1-0.8,3.3-0.8c1.2,0,2.1,0.3,2.7,0.8c0.6,0.5,0.9,1.3,0.9,2.3v5.8H178.1z M177.4,187.5l-0.9,0
		c-0.7,0-1.2,0.1-1.5,0.4c-0.3,0.2-0.5,0.6-0.5,1c0,0.7,0.4,1,1.2,1c0.6,0,1-0.2,1.3-0.5c0.3-0.3,0.5-0.7,0.5-1.3V187.5z"/>
	<path class="st2" d="M189.8,182.8v1.2l-1.4,0.4c0.2,0.4,0.4,0.8,0.4,1.3c0,0.9-0.3,1.7-1,2.2c-0.7,0.5-1.6,0.8-2.7,0.8l-0.4,0
		l-0.4,0c-0.2,0.2-0.4,0.4-0.4,0.6c0,0.3,0.4,0.5,1.3,0.5h1.5c1,0,1.7,0.2,2.2,0.6c0.5,0.4,0.8,1,0.8,1.8c0,1-0.4,1.8-1.3,2.4
		s-2.1,0.8-3.7,0.8c-1.2,0-2.1-0.2-2.8-0.6c-0.6-0.4-1-1-1-1.8c0-0.5,0.2-1,0.5-1.3s0.8-0.6,1.4-0.8c-0.2-0.1-0.5-0.3-0.6-0.5
		c-0.2-0.2-0.3-0.5-0.3-0.8c0-0.3,0.1-0.6,0.3-0.8c0.2-0.2,0.5-0.4,0.8-0.7c-0.5-0.2-0.8-0.5-1.1-1c-0.3-0.4-0.4-1-0.4-1.5
		c0-1,0.3-1.7,0.9-2.2c0.6-0.5,1.5-0.8,2.7-0.8c0.2,0,0.5,0,0.9,0.1c0.3,0,0.6,0.1,0.6,0.1H189.8z M183.1,192.8
		c0,0.3,0.2,0.6,0.5,0.8c0.3,0.2,0.8,0.3,1.3,0.3c0.9,0,1.5-0.1,2-0.4s0.7-0.6,0.7-1c0-0.3-0.1-0.6-0.4-0.7
		c-0.3-0.1-0.7-0.2-1.3-0.2h-1.2c-0.4,0-0.8,0.1-1.1,0.3C183.2,192.2,183.1,192.5,183.1,192.8z M183.9,185.7c0,0.5,0.1,0.8,0.3,1.1
		c0.2,0.3,0.5,0.4,1,0.4c0.4,0,0.8-0.1,1-0.4c0.2-0.3,0.3-0.7,0.3-1.1c0-1.1-0.4-1.6-1.3-1.6C184.4,184.1,183.9,184.6,183.9,185.7z"
		/>
	<path class="st2" d="M195.2,191.7c-1.4,0-2.5-0.4-3.3-1.2c-0.8-0.8-1.2-1.9-1.2-3.3c0-1.5,0.4-2.6,1.1-3.4c0.7-0.8,1.7-1.2,3-1.2
		c1.2,0,2.2,0.4,2.9,1.1c0.7,0.7,1,1.7,1,2.9v1.2h-5.6c0,0.7,0.2,1.2,0.6,1.6c0.4,0.4,0.9,0.6,1.6,0.6c0.5,0,1-0.1,1.5-0.2
		s1-0.3,1.5-0.5v1.8c-0.4,0.2-0.9,0.4-1.3,0.5C196.4,191.7,195.9,191.7,195.2,191.7z M194.9,184.4c-0.5,0-0.9,0.2-1.2,0.5
		c-0.3,0.3-0.5,0.8-0.5,1.4h3.3c0-0.6-0.2-1-0.5-1.4S195.4,184.4,194.9,184.4z"/>
	<path class="st2" d="M210.4,191.6l-0.5-1.2h-0.1c-0.4,0.5-0.8,0.9-1.2,1.1s-1,0.3-1.7,0.3c-0.8,0-1.5-0.2-2-0.7
		c-0.5-0.5-0.7-1.2-0.7-2c0-0.9,0.3-1.6,1-2.1c0.6-0.4,1.6-0.7,2.9-0.7l1.5,0v-0.4c0-0.9-0.5-1.3-1.4-1.3c-0.7,0-1.5,0.2-2.5,0.6
		l-0.8-1.6c1-0.5,2.1-0.8,3.3-0.8c1.2,0,2.1,0.3,2.7,0.8c0.6,0.5,0.9,1.3,0.9,2.3v5.8H210.4z M209.7,187.5l-0.9,0
		c-0.7,0-1.2,0.1-1.5,0.4c-0.3,0.2-0.5,0.6-0.5,1c0,0.7,0.4,1,1.2,1c0.6,0,1-0.2,1.3-0.5c0.3-0.3,0.5-0.7,0.5-1.3V187.5z"/>
	<path class="st2" d="M220.7,191.6l-0.3-1.1h-0.1c-0.3,0.4-0.6,0.7-1.1,0.9s-1,0.3-1.6,0.3c-1,0-1.8-0.3-2.3-0.8
		c-0.5-0.5-0.8-1.3-0.8-2.4v-5.7h2.4v5.1c0,0.6,0.1,1.1,0.3,1.4c0.2,0.3,0.6,0.5,1.1,0.5c0.7,0,1.1-0.2,1.4-0.7s0.4-1.2,0.4-2.2
		v-4.1h2.4v8.7H220.7z"/>
	<path class="st2" d="M228.7,189.8c0.4,0,0.9-0.1,1.5-0.3v1.8c-0.6,0.3-1.3,0.4-2.2,0.4c-1,0-1.6-0.2-2.1-0.7
		c-0.4-0.5-0.7-1.2-0.7-2.2v-4.2h-1.1v-1l1.3-0.8l0.7-1.8h1.5v1.9h2.4v1.8h-2.4v4.2c0,0.3,0.1,0.6,0.3,0.8
		C228.1,189.7,228.4,189.8,228.7,189.8z"/>
	<path class="st2" d="M239.9,187.2c0,1.4-0.4,2.5-1.1,3.3c-0.8,0.8-1.8,1.2-3.1,1.2c-0.8,0-1.6-0.2-2.2-0.6s-1.1-0.9-1.5-1.6
		s-0.5-1.5-0.5-2.4c0-1.4,0.4-2.5,1.1-3.3c0.7-0.8,1.8-1.2,3.1-1.2c0.8,0,1.6,0.2,2.2,0.5c0.6,0.4,1.1,0.9,1.5,1.6
		C239.7,185.5,239.9,186.3,239.9,187.2z M233.9,187.2c0,0.9,0.1,1.5,0.4,2c0.3,0.4,0.7,0.7,1.4,0.7c0.6,0,1.1-0.2,1.4-0.7
		c0.3-0.4,0.4-1.1,0.4-2c0-0.9-0.1-1.5-0.4-1.9c-0.3-0.4-0.7-0.6-1.4-0.6c-0.6,0-1.1,0.2-1.4,0.6S233.9,186.3,233.9,187.2z"/>
	<path class="st2" d="M249.7,191.6h-2.4v-5.1c0-0.6-0.1-1.1-0.3-1.4c-0.2-0.3-0.5-0.5-1-0.5c-0.6,0-1.1,0.2-1.3,0.7
		c-0.3,0.4-0.4,1.2-0.4,2.2v4.1h-2.4v-8.7h1.8l0.3,1.1h0.1c0.2-0.4,0.6-0.7,1-0.9s1-0.3,1.5-0.3c1.3,0,2.2,0.4,2.7,1.3h0.2
		c0.2-0.4,0.6-0.7,1-0.9c0.5-0.2,1-0.3,1.5-0.3c1,0,1.7,0.3,2.2,0.8s0.8,1.3,0.8,2.4v5.7h-2.4v-5.1c0-0.6-0.1-1.1-0.3-1.4
		c-0.2-0.3-0.5-0.5-1-0.5c-0.6,0-1,0.2-1.3,0.6c-0.3,0.4-0.4,1.1-0.4,2V191.6z"/>
	<path class="st2" d="M263.1,191.6l-0.5-1.2h-0.1c-0.4,0.5-0.8,0.9-1.2,1.1s-1,0.3-1.7,0.3c-0.8,0-1.5-0.2-2-0.7
		c-0.5-0.5-0.7-1.2-0.7-2c0-0.9,0.3-1.6,1-2.1c0.6-0.4,1.6-0.7,2.9-0.7l1.5,0v-0.4c0-0.9-0.5-1.3-1.4-1.3c-0.7,0-1.5,0.2-2.5,0.6
		l-0.8-1.6c1-0.5,2.1-0.8,3.3-0.8c1.2,0,2.1,0.3,2.7,0.8c0.6,0.5,0.9,1.3,0.9,2.3v5.8H263.1z M262.4,187.5l-0.9,0
		c-0.7,0-1.2,0.1-1.5,0.4c-0.3,0.2-0.5,0.6-0.5,1c0,0.7,0.4,1,1.2,1c0.6,0,1-0.2,1.3-0.5c0.3-0.3,0.5-0.7,0.5-1.3V187.5z"/>
	<path class="st2" d="M270.9,189.8c0.4,0,0.9-0.1,1.5-0.3v1.8c-0.6,0.3-1.3,0.4-2.2,0.4c-1,0-1.6-0.2-2.1-0.7
		c-0.4-0.5-0.7-1.2-0.7-2.2v-4.2h-1.1v-1l1.3-0.8l0.7-1.8h1.5v1.9h2.4v1.8h-2.4v4.2c0,0.3,0.1,0.6,0.3,0.8
		C270.4,189.7,270.6,189.8,270.9,189.8z"/>
	<path class="st2" d="M274.1,180.6c0-0.8,0.4-1.2,1.3-1.2s1.3,0.4,1.3,1.2c0,0.4-0.1,0.7-0.3,0.9c-0.2,0.2-0.5,0.3-1,0.3
		C274.5,181.8,274.1,181.4,274.1,180.6z M276.6,191.6h-2.4v-8.7h2.4V191.6z"/>
	<path class="st2" d="M281.8,191.7c-1,0-1.8-0.4-2.4-1.2c-0.6-0.8-0.9-1.9-0.9-3.3c0-1.4,0.3-2.5,0.9-3.3c0.6-0.8,1.4-1.2,2.4-1.2
		c0.6,0,1,0.1,1.4,0.3c0.4,0.2,0.8,0.5,1.1,1h0.1l0.2-1.1h2v12.6h-2.4v-3.7c0-0.3,0-0.8,0.1-1.3h-0.1c-0.3,0.4-0.6,0.7-1,1
		S282.4,191.7,281.8,191.7z M282.7,189.9c0.6,0,1-0.2,1.3-0.5c0.3-0.3,0.4-1,0.5-1.8v-0.3c0-0.9-0.1-1.6-0.4-2s-0.8-0.6-1.4-0.6
		c-1.1,0-1.7,0.9-1.7,2.6c0,0.9,0.1,1.5,0.4,2C281.7,189.6,282.1,189.9,282.7,189.9z"/>
	<path class="st2" d="M295.4,191.6l-0.3-1.1h-0.1c-0.3,0.4-0.6,0.7-1.1,0.9s-1,0.3-1.6,0.3c-1,0-1.8-0.3-2.3-0.8
		c-0.5-0.5-0.8-1.3-0.8-2.4v-5.7h2.4v5.1c0,0.6,0.1,1.1,0.3,1.4c0.2,0.3,0.6,0.5,1.1,0.5c0.7,0,1.1-0.2,1.4-0.7s0.4-1.2,0.4-2.2
		v-4.1h2.4v8.7H295.4z"/>
	<path class="st2" d="M303.7,191.7c-1.4,0-2.5-0.4-3.3-1.2c-0.8-0.8-1.2-1.9-1.2-3.3c0-1.5,0.4-2.6,1.1-3.4c0.7-0.8,1.7-1.2,3-1.2
		c1.2,0,2.2,0.4,2.9,1.1s1,1.7,1,2.9v1.2h-5.6c0,0.7,0.2,1.2,0.6,1.6c0.4,0.4,0.9,0.6,1.6,0.6c0.5,0,1-0.1,1.5-0.2s1-0.3,1.5-0.5
		v1.8c-0.4,0.2-0.9,0.4-1.3,0.5S304.4,191.7,303.7,191.7z M303.3,184.4c-0.5,0-0.9,0.2-1.2,0.5s-0.5,0.8-0.5,1.4h3.3
		c0-0.6-0.2-1-0.5-1.4S303.8,184.4,303.3,184.4z"/>
</g>
<g>
	<path class="st3" d="M113.6,327.1l-0.8-2.7h-4.2l-0.8,2.7h-2.6l4-11.5h3l4,11.5H113.6z M112.2,322.3c-0.8-2.5-1.2-3.9-1.3-4.2
		c-0.1-0.3-0.2-0.6-0.2-0.8c-0.2,0.7-0.7,2.3-1.5,4.9H112.2z"/>
	<path class="st3" d="M122.3,327.2c-1,0-1.8-0.4-2.4-1.1h-0.1c0.1,0.7,0.1,1.2,0.1,1.3v3.5h-2.4v-12.6h1.9l0.3,1.1h0.1
		c0.6-0.9,1.4-1.3,2.5-1.3c1,0,1.8,0.4,2.4,1.2c0.6,0.8,0.9,1.9,0.9,3.3c0,0.9-0.1,1.7-0.4,2.4s-0.7,1.2-1.2,1.6
		C123.5,327,122.9,327.2,122.3,327.2z M121.6,320.1c-0.6,0-1,0.2-1.3,0.5c-0.3,0.4-0.4,1-0.4,1.8v0.3c0,0.9,0.1,1.6,0.4,2
		c0.3,0.4,0.7,0.6,1.3,0.6c1.1,0,1.6-0.9,1.6-2.6c0-0.9-0.1-1.5-0.4-1.9C122.5,320.3,122.1,320.1,121.6,320.1z"/>
	<path class="st3" d="M132.4,327.2c-1,0-1.8-0.4-2.4-1.1h-0.1c0.1,0.7,0.1,1.2,0.1,1.3v3.5h-2.4v-12.6h1.9l0.3,1.1h0.1
		c0.6-0.9,1.4-1.3,2.5-1.3c1,0,1.8,0.4,2.4,1.2c0.6,0.8,0.9,1.9,0.9,3.3c0,0.9-0.1,1.7-0.4,2.4s-0.7,1.2-1.2,1.6
		C133.7,327,133.1,327.2,132.4,327.2z M131.7,320.1c-0.6,0-1,0.2-1.3,0.5c-0.3,0.4-0.4,1-0.4,1.8v0.3c0,0.9,0.1,1.6,0.4,2
		c0.3,0.4,0.7,0.6,1.3,0.6c1.1,0,1.6-0.9,1.6-2.6c0-0.9-0.1-1.5-0.4-1.9C132.7,320.3,132.2,320.1,131.7,320.1z"/>
	<path class="st3" d="M142.6,318.2c0.3,0,0.6,0,0.8,0.1l-0.2,2.2c-0.2-0.1-0.4-0.1-0.7-0.1c-0.8,0-1.4,0.2-1.8,0.6
		c-0.4,0.4-0.6,0.9-0.6,1.6v4.4h-2.4v-8.7h1.8l0.4,1.5h0.1c0.3-0.5,0.6-0.9,1.1-1.2C141.5,318.3,142,318.2,142.6,318.2z"/>
	<path class="st3" d="M148.9,327.2c-1.4,0-2.5-0.4-3.3-1.2c-0.8-0.8-1.2-1.9-1.2-3.3c0-1.5,0.4-2.6,1.1-3.4c0.7-0.8,1.7-1.2,3-1.2
		c1.2,0,2.2,0.4,2.9,1.1s1,1.7,1,2.9v1.2h-5.6c0,0.7,0.2,1.2,0.6,1.6c0.4,0.4,0.9,0.6,1.6,0.6c0.5,0,1-0.1,1.5-0.2s1-0.3,1.5-0.5
		v1.8c-0.4,0.2-0.9,0.4-1.3,0.5C150.2,327.2,149.6,327.2,148.9,327.2z M148.6,319.9c-0.5,0-0.9,0.2-1.2,0.5
		c-0.3,0.3-0.5,0.8-0.5,1.4h3.3c0-0.6-0.2-1-0.5-1.4S149.1,319.9,148.6,319.9z"/>
	<path class="st3" d="M162.5,327.1h-2.4V322c0-0.6-0.1-1.1-0.3-1.4c-0.2-0.3-0.6-0.5-1.1-0.5c-0.7,0-1.1,0.2-1.4,0.7
		s-0.4,1.2-0.4,2.2v4.1h-2.4v-8.7h1.8l0.3,1.1h0.1c0.3-0.4,0.6-0.7,1.1-1c0.5-0.2,1-0.3,1.6-0.3c1,0,1.8,0.3,2.3,0.8
		c0.5,0.5,0.8,1.3,0.8,2.4V327.1z"/>
	<path class="st3" d="M168.6,325.3c0.4,0,0.9-0.1,1.5-0.3v1.8c-0.6,0.3-1.3,0.4-2.2,0.4c-1,0-1.6-0.2-2.1-0.7
		c-0.4-0.5-0.7-1.2-0.7-2.2v-4.2h-1.1v-1l1.3-0.8l0.7-1.8h1.5v1.9h2.4v1.8h-2.4v4.2c0,0.3,0.1,0.6,0.3,0.8
		C168.1,325.2,168.3,325.3,168.6,325.3z"/>
	<path class="st3" d="M171.8,316.1c0-0.8,0.4-1.2,1.3-1.2c0.9,0,1.3,0.4,1.3,1.2c0,0.4-0.1,0.7-0.3,0.9c-0.2,0.2-0.5,0.3-1,0.3
		C172.2,317.2,171.8,316.8,171.8,316.1z M174.3,327.1h-2.4v-8.7h2.4V327.1z"/>
	<path class="st3" d="M182.9,324.5c0,0.9-0.3,1.6-0.9,2c-0.6,0.5-1.6,0.7-2.8,0.7c-0.6,0-1.2,0-1.6-0.1c-0.4-0.1-0.9-0.2-1.3-0.4v-2
		c0.4,0.2,0.9,0.4,1.5,0.5s1,0.2,1.5,0.2c0.9,0,1.3-0.2,1.3-0.8c0-0.2-0.1-0.3-0.2-0.5c-0.1-0.1-0.3-0.2-0.6-0.4s-0.7-0.3-1.1-0.5
		c-0.7-0.3-1.2-0.5-1.5-0.8c-0.3-0.2-0.5-0.5-0.7-0.8c-0.1-0.3-0.2-0.7-0.2-1.1c0-0.8,0.3-1.4,0.9-1.8c0.6-0.4,1.5-0.6,2.6-0.6
		c1.1,0,2.1,0.2,3.1,0.7l-0.7,1.7c-0.4-0.2-0.8-0.3-1.2-0.5c-0.4-0.1-0.8-0.2-1.2-0.2c-0.7,0-1.1,0.2-1.1,0.6c0,0.2,0.1,0.4,0.3,0.6
		s0.7,0.4,1.5,0.7c0.7,0.3,1.2,0.5,1.5,0.8c0.3,0.2,0.6,0.5,0.7,0.8C182.8,323.7,182.9,324,182.9,324.5z"/>
	<path class="st3" d="M190.8,324.5c0,0.9-0.3,1.6-0.9,2c-0.6,0.5-1.6,0.7-2.8,0.7c-0.6,0-1.2,0-1.6-0.1c-0.4-0.1-0.9-0.2-1.3-0.4v-2
		c0.4,0.2,0.9,0.4,1.5,0.5s1,0.2,1.5,0.2c0.9,0,1.3-0.2,1.3-0.8c0-0.2-0.1-0.3-0.2-0.5c-0.1-0.1-0.3-0.2-0.6-0.4s-0.7-0.3-1.1-0.5
		c-0.7-0.3-1.2-0.5-1.5-0.8c-0.3-0.2-0.5-0.5-0.7-0.8c-0.1-0.3-0.2-0.7-0.2-1.1c0-0.8,0.3-1.4,0.9-1.8c0.6-0.4,1.5-0.6,2.6-0.6
		c1.1,0,2.1,0.2,3.1,0.7l-0.7,1.7c-0.4-0.2-0.8-0.3-1.2-0.5c-0.4-0.1-0.8-0.2-1.2-0.2c-0.7,0-1.1,0.2-1.1,0.6c0,0.2,0.1,0.4,0.3,0.6
		s0.7,0.4,1.5,0.7c0.7,0.3,1.2,0.5,1.5,0.8c0.3,0.2,0.6,0.5,0.7,0.8C190.7,323.7,190.8,324,190.8,324.5z"/>
	<path class="st3" d="M198.2,327.1l-0.5-1.2h-0.1c-0.4,0.5-0.8,0.9-1.2,1.1c-0.4,0.2-1,0.3-1.7,0.3c-0.8,0-1.5-0.2-2-0.7
		c-0.5-0.5-0.7-1.2-0.7-2c0-0.9,0.3-1.6,1-2.1c0.6-0.4,1.6-0.7,2.9-0.7l1.5,0v-0.4c0-0.9-0.5-1.3-1.4-1.3c-0.7,0-1.5,0.2-2.5,0.6
		l-0.8-1.6c1-0.5,2.1-0.8,3.3-0.8c1.2,0,2.1,0.3,2.7,0.8c0.6,0.5,0.9,1.3,0.9,2.3v5.8H198.2z M197.5,323l-0.9,0
		c-0.7,0-1.2,0.1-1.5,0.4c-0.3,0.2-0.5,0.6-0.5,1c0,0.7,0.4,1,1.2,1c0.6,0,1-0.2,1.3-0.5c0.3-0.3,0.5-0.7,0.5-1.3V323z"/>
	<path class="st3" d="M209.9,318.3v1.2l-1.4,0.4c0.2,0.4,0.4,0.8,0.4,1.3c0,0.9-0.3,1.7-1,2.2s-1.6,0.8-2.7,0.8l-0.4,0l-0.4,0
		c-0.2,0.2-0.4,0.4-0.4,0.6c0,0.3,0.4,0.5,1.3,0.5h1.5c1,0,1.7,0.2,2.2,0.6c0.5,0.4,0.8,1,0.8,1.8c0,1-0.4,1.8-1.3,2.4
		s-2.1,0.8-3.7,0.8c-1.2,0-2.1-0.2-2.8-0.6s-1-1-1-1.8c0-0.5,0.2-1,0.5-1.3c0.3-0.4,0.8-0.6,1.4-0.8c-0.2-0.1-0.5-0.3-0.6-0.5
		c-0.2-0.2-0.3-0.5-0.3-0.8c0-0.3,0.1-0.6,0.3-0.8c0.2-0.2,0.5-0.4,0.8-0.7c-0.5-0.2-0.8-0.5-1.1-1s-0.4-1-0.4-1.5
		c0-1,0.3-1.7,0.9-2.2c0.6-0.5,1.5-0.8,2.7-0.8c0.2,0,0.5,0,0.9,0.1c0.3,0,0.6,0.1,0.6,0.1H209.9z M203.2,328.3
		c0,0.3,0.2,0.6,0.5,0.8s0.8,0.3,1.3,0.3c0.9,0,1.5-0.1,2-0.4s0.7-0.6,0.7-1c0-0.3-0.1-0.6-0.4-0.7s-0.7-0.2-1.3-0.2h-1.2
		c-0.4,0-0.8,0.1-1.1,0.3S203.2,328,203.2,328.3z M204.1,321.2c0,0.5,0.1,0.8,0.3,1.1c0.2,0.3,0.5,0.4,1,0.4c0.4,0,0.8-0.1,1-0.4
		c0.2-0.3,0.3-0.7,0.3-1.1c0-1.1-0.4-1.6-1.3-1.6C204.5,319.6,204.1,320.1,204.1,321.2z"/>
	<path class="st3" d="M215.3,327.2c-1.4,0-2.5-0.4-3.3-1.2c-0.8-0.8-1.2-1.9-1.2-3.3c0-1.5,0.4-2.6,1.1-3.4c0.7-0.8,1.7-1.2,3-1.2
		c1.2,0,2.2,0.4,2.9,1.1s1,1.7,1,2.9v1.2h-5.6c0,0.7,0.2,1.2,0.6,1.6c0.4,0.4,0.9,0.6,1.6,0.6c0.5,0,1-0.1,1.5-0.2s1-0.3,1.5-0.5
		v1.8c-0.4,0.2-0.9,0.4-1.3,0.5S216,327.2,215.3,327.2z M215,319.9c-0.5,0-0.9,0.2-1.2,0.5s-0.5,0.8-0.5,1.4h3.3
		c0-0.6-0.2-1-0.5-1.4S215.5,319.9,215,319.9z"/>
	<path class="st3" d="M229.8,327.2c-1,0-1.8-0.4-2.4-1.1h-0.1c0.1,0.7,0.1,1.2,0.1,1.3v3.5H225v-12.6h1.9l0.3,1.1h0.1
		c0.6-0.9,1.4-1.3,2.5-1.3c1,0,1.8,0.4,2.4,1.2s0.9,1.9,0.9,3.3c0,0.9-0.1,1.7-0.4,2.4s-0.7,1.2-1.2,1.6S230.5,327.2,229.8,327.2z
		 M229.1,320.1c-0.6,0-1,0.2-1.3,0.5c-0.3,0.4-0.4,1-0.4,1.8v0.3c0,0.9,0.1,1.6,0.4,2s0.7,0.6,1.3,0.6c1.1,0,1.6-0.9,1.6-2.6
		c0-0.9-0.1-1.5-0.4-1.9S229.6,320.1,229.1,320.1z"/>
	<path class="st3" d="M240,318.2c0.3,0,0.6,0,0.8,0.1l-0.2,2.2c-0.2-0.1-0.4-0.1-0.7-0.1c-0.8,0-1.4,0.2-1.8,0.6s-0.6,0.9-0.6,1.6
		v4.4h-2.4v-8.7h1.8l0.4,1.5h0.1c0.3-0.5,0.6-0.9,1.1-1.2C238.9,318.3,239.4,318.2,240,318.2z"/>
	<path class="st3" d="M250.3,322.7c0,1.4-0.4,2.5-1.1,3.3c-0.8,0.8-1.8,1.2-3.1,1.2c-0.8,0-1.6-0.2-2.2-0.6s-1.1-0.9-1.5-1.6
		s-0.5-1.5-0.5-2.4c0-1.4,0.4-2.5,1.1-3.3c0.7-0.8,1.8-1.2,3.1-1.2c0.8,0,1.6,0.2,2.2,0.5c0.6,0.4,1.1,0.9,1.5,1.6
		C250.1,321,250.3,321.8,250.3,322.7z M244.3,322.7c0,0.9,0.1,1.5,0.4,2c0.3,0.4,0.7,0.7,1.4,0.7c0.6,0,1.1-0.2,1.4-0.7
		c0.3-0.4,0.4-1.1,0.4-2c0-0.9-0.1-1.5-0.4-1.9c-0.3-0.4-0.7-0.6-1.4-0.6c-0.6,0-1.1,0.2-1.4,0.6S244.3,321.8,244.3,322.7z"/>
	<path class="st3" d="M257.1,320.1H255v6.9h-2.4v-6.9h-1.3V319l1.3-0.6v-0.6c0-1,0.2-1.7,0.7-2.2c0.5-0.5,1.3-0.7,2.4-0.7
		c0.8,0,1.6,0.1,2.2,0.4l-0.6,1.8c-0.5-0.2-0.9-0.2-1.3-0.2c-0.3,0-0.6,0.1-0.7,0.3c-0.2,0.2-0.2,0.5-0.2,0.8v0.5h2.1V320.1z"/>
	<path class="st3" d="M266.4,322.7c0,1.4-0.4,2.5-1.1,3.3c-0.8,0.8-1.8,1.2-3.1,1.2c-0.8,0-1.6-0.2-2.2-0.6s-1.1-0.9-1.5-1.6
		s-0.5-1.5-0.5-2.4c0-1.4,0.4-2.5,1.1-3.3c0.7-0.8,1.8-1.2,3.1-1.2c0.8,0,1.6,0.2,2.2,0.5c0.6,0.4,1.1,0.9,1.5,1.6
		C266.2,321,266.4,321.8,266.4,322.7z M260.4,322.7c0,0.9,0.1,1.5,0.4,2c0.3,0.4,0.7,0.7,1.4,0.7c0.6,0,1.1-0.2,1.4-0.7
		c0.3-0.4,0.4-1.1,0.4-2c0-0.9-0.1-1.5-0.4-1.9c-0.3-0.4-0.7-0.6-1.4-0.6c-0.6,0-1.1,0.2-1.4,0.6S260.4,321.8,260.4,322.7z"/>
	<path class="st3" d="M276.4,327.1h-2.4V322c0-0.6-0.1-1.1-0.3-1.4c-0.2-0.3-0.6-0.5-1.1-0.5c-0.7,0-1.1,0.2-1.4,0.7
		s-0.4,1.2-0.4,2.2v4.1h-2.4v-8.7h1.8l0.3,1.1h0.1c0.3-0.4,0.6-0.7,1.1-1c0.5-0.2,1-0.3,1.6-0.3c1,0,1.8,0.3,2.3,0.8
		c0.5,0.5,0.8,1.3,0.8,2.4V327.1z"/>
	<path class="st3" d="M281.7,327.2c-1,0-1.8-0.4-2.4-1.2s-0.9-1.9-0.9-3.3c0-1.4,0.3-2.5,0.9-3.3c0.6-0.8,1.4-1.2,2.5-1.2
		c1.1,0,1.9,0.4,2.5,1.3h0.1c-0.1-0.7-0.2-1.2-0.2-1.7v-2.8h2.4v12.2h-1.8l-0.5-1.1h-0.1C283.6,326.8,282.8,327.2,281.7,327.2z
		 M282.5,325.3c0.6,0,1.1-0.2,1.3-0.5c0.3-0.4,0.4-1,0.5-1.8v-0.3c0-0.9-0.1-1.6-0.4-2s-0.8-0.6-1.4-0.6c-0.5,0-0.9,0.2-1.2,0.7
		c-0.3,0.5-0.4,1.1-0.4,2s0.1,1.5,0.4,1.9S282,325.3,282.5,325.3z"/>
</g>
<g>
	<g>
		<path class="st1" d="M196.6,71.9V11.2c0-0.3-0.2-0.5-0.5-0.5s-0.5,0.2-0.5,0.5v60.7c0,0.3,0.2,0.5,0.5,0.5S196.6,72.1,196.6,71.9"
			/>
		<path class="st1" d="M210.5,16c0,0.7-0.6,1.3-1.3,1.3c-0.7,0-1.3-0.6-1.3-1.3c0-0.7,0.6-1.3,1.3-1.3
			C209.9,14.7,210.5,15.3,210.5,16z"/>
		<path class="st1" d="M211.9,23.8c0,0.7-0.6,1.3-1.3,1.3c-0.7,0-1.3-0.6-1.3-1.3c0-0.7,0.6-1.3,1.3-1.3
			C211.3,22.5,211.9,23.1,211.9,23.8z"/>
		<path class="st1" d="M209.2,15.5h-5.3l-2-2.3h-5.8c-0.3,0-0.5,0.2-0.5,0.5c0,0.3,0.2,0.5,0.5,0.5l5.3,0l2,2.3h5.8
			c0.3,0,0.5-0.2,0.5-0.5C209.7,15.8,209.5,15.5,209.2,15.5L209.2,15.5z"/>
		<path class="st1" d="M217.8,20.4c0,0.7-0.6,1.3-1.3,1.3c-0.7,0-1.3-0.6-1.3-1.3c0-0.7,0.6-1.3,1.3-1.3
			C217.2,19,217.8,19.6,217.8,20.4z"/>
		<path class="st1" d="M216.5,19.9h-5.9l-2.5-2.3h-11.9c-0.3,0-0.5,0.2-0.5,0.5c0,0.3,0.2,0.5,0.5,0.5l11.6,0l2.5,2.3h6.3
			c0.3,0,0.5-0.2,0.5-0.5C217,20.1,216.8,19.9,216.5,19.9L216.5,19.9z"/>
		<path class="st1" d="M210.9,23.4l-3.3-3.3h-11.5c-0.3,0-0.5,0.2-0.5,0.5c0,0.3,0.2,0.5,0.5,0.5l11.1,0l3,3c0.2,0.2,0.5,0.2,0.7,0
			C211.1,23.9,211.1,23.6,210.9,23.4L210.9,23.4z"/>
		<path class="st1" d="M204.6,10.7h-5.8c-0.3,0-0.5,0.2-0.5,0.5c0,0.3,0.2,0.5,0.5,0.5h5.8c0.3,0,0.5-0.2,0.5-0.5
			C205.1,10.9,204.8,10.7,204.6,10.7"/>
		<path class="st1" d="M200.1,11.2c0,0.7-0.6,1.3-1.3,1.3c-0.7,0-1.3-0.6-1.3-1.3c0-0.7,0.6-1.3,1.3-1.3
			C199.5,9.9,200.1,10.5,200.1,11.2z"/>
		<path class="st1" d="M206.1,11.2c0,0.7-0.6,1.3-1.3,1.3c-0.7,0-1.3-0.6-1.3-1.3c0-0.7,0.6-1.3,1.3-1.3
			C205.5,9.9,206.1,10.5,206.1,11.2z"/>
		<path class="st1" d="M205.5,23h-5.8c-0.3,0-0.5,0.2-0.5,0.5c0,0.3,0.2,0.5,0.5,0.5h5.8c0.3,0,0.5-0.2,0.5-0.5
			C206,23.2,205.7,23,205.5,23"/>
		<path class="st1" d="M201,23.5c0,0.7-0.6,1.3-1.3,1.3c-0.7,0-1.3-0.6-1.3-1.3c0-0.7,0.6-1.3,1.3-1.3C200.4,22.2,201,22.8,201,23.5
			z"/>
		<path class="st1" d="M207,23.5c0,0.7-0.6,1.3-1.3,1.3c-0.7,0-1.3-0.6-1.3-1.3c0-0.7,0.6-1.3,1.3-1.3C206.4,22.2,207,22.8,207,23.5
			z"/>
		<path class="st1" d="M219.8,21.1l-2.2,2.2l-3.3,0c-0.3,0-0.5,0.2-0.5,0.5c0,0.3,0.2,0.5,0.5,0.5l3.7,0l2.5-2.5
			c0.2-0.2,0.2-0.5,0-0.7C220.3,20.9,220,20.9,219.8,21.1L219.8,21.1z"/>
		<path class="st1" d="M215.5,23.8c0,0.7-0.6,1.3-1.3,1.3s-1.3-0.6-1.3-1.3c0-0.7,0.6-1.3,1.3-1.3S215.5,23.1,215.5,23.8z"/>
		<path class="st1" d="M221.5,21.4c0,0.7-0.6,1.3-1.3,1.3c-0.7,0-1.3-0.6-1.3-1.3c0-0.7,0.6-1.3,1.3-1.3
			C220.9,20.1,221.5,20.7,221.5,21.4z"/>
		<path class="st1" d="M196.1,16.2h3.6c0.3,0,0.5-0.2,0.5-0.5c0-0.3-0.2-0.5-0.5-0.5h-3.6c-0.3,0-0.5,0.2-0.5,0.5
			C195.6,16,195.9,16.2,196.1,16.2"/>
		<path class="st1" d="M212.1,18.1h3.4c0.3,0,0.5-0.2,0.5-0.5c0-0.3-0.2-0.5-0.5-0.5h-3.4c-0.3,0-0.5,0.2-0.5,0.5
			C211.6,17.9,211.8,18.1,212.1,18.1"/>
		<path class="st1" d="M206.6,13.3h2.4c0.3,0,0.5-0.2,0.5-0.5c0-0.3-0.2-0.5-0.5-0.5h-2.4c-0.3,0-0.5,0.2-0.5,0.5
			C206.2,13,206.4,13.3,206.6,13.3"/>
		<path class="st1" d="M210.5,29.2c0,0.7-0.6,1.3-1.3,1.3c-0.7,0-1.3-0.6-1.3-1.3c0-0.7,0.6-1.3,1.3-1.3
			C209.9,27.8,210.5,28.4,210.5,29.2z"/>
		<path class="st1" d="M211.9,36.9c0,0.7-0.6,1.3-1.3,1.3c-0.7,0-1.3-0.6-1.3-1.3c0-0.7,0.6-1.3,1.3-1.3
			C211.3,35.6,211.9,36.2,211.9,36.9z"/>
		<path class="st1" d="M209.2,28.7h-5.3l-2-2.3h-5.8c-0.3,0-0.5,0.2-0.5,0.5c0,0.3,0.2,0.5,0.5,0.5l5.3,0l2,2.3h5.8
			c0.3,0,0.5-0.2,0.5-0.5C209.7,28.9,209.5,28.7,209.2,28.7L209.2,28.7z"/>
		<path class="st1" d="M217.8,33.5c0,0.7-0.6,1.3-1.3,1.3c-0.7,0-1.3-0.6-1.3-1.3c0-0.7,0.6-1.3,1.3-1.3
			C217.2,32.2,217.8,32.8,217.8,33.5z"/>
		<path class="st1" d="M216.5,33h-5.9l-2.5-2.3h-11.9c-0.3,0-0.5,0.2-0.5,0.5c0,0.3,0.2,0.5,0.5,0.5l11.6,0l2.5,2.3h6.3
			c0.3,0,0.5-0.2,0.5-0.5C217,33.3,216.8,33,216.5,33L216.5,33z"/>
		<path class="st1" d="M210.9,36.6l-3.3-3.3h-11.5c-0.3,0-0.5,0.2-0.5,0.5c0,0.3,0.2,0.5,0.5,0.5l11.1,0l3,3c0.2,0.2,0.5,0.2,0.7,0
			C211.1,37.1,211.1,36.8,210.9,36.6L210.9,36.6z"/>
		<path class="st1" d="M219.1,28.3h-4.8l-1.8-2.7H208c-0.3,0-0.5,0.2-0.5,0.5c0,0.3,0.2,0.5,0.5,0.5l4,0l1.8,2.7h5.3
			c0.3,0,0.5-0.2,0.5-0.5C219.6,28.5,219.4,28.3,219.1,28.3L219.1,28.3z"/>
		<path class="st1" d="M209.3,26c0,0.7-0.6,1.3-1.3,1.3c-0.7,0-1.3-0.6-1.3-1.3c0-0.7,0.6-1.3,1.3-1.3
			C208.7,24.7,209.3,25.3,209.3,26z"/>
		<path class="st1" d="M220.4,28.9c0,0.7-0.6,1.3-1.3,1.3c-0.7,0-1.3-0.6-1.3-1.3c0-0.7,0.6-1.3,1.3-1.3
			C219.8,27.6,220.4,28.2,220.4,28.9z"/>
		<path class="st1" d="M205.5,36.2h-5.8c-0.3,0-0.5,0.2-0.5,0.5c0,0.3,0.2,0.5,0.5,0.5h5.8c0.3,0,0.5-0.2,0.5-0.5
			C206,36.4,205.7,36.2,205.5,36.2"/>
		<path class="st1" d="M201,36.7c0,0.7-0.6,1.3-1.3,1.3c-0.7,0-1.3-0.6-1.3-1.3c0-0.7,0.6-1.3,1.3-1.3C200.4,35.3,201,35.9,201,36.7
			z"/>
		<path class="st1" d="M207,36.7c0,0.7-0.6,1.3-1.3,1.3c-0.7,0-1.3-0.6-1.3-1.3c0-0.7,0.6-1.3,1.3-1.3C206.4,35.3,207,35.9,207,36.7
			z"/>
		<path class="st1" d="M222.6,25.7h-5.8c-0.3,0-0.5,0.2-0.5,0.5c0,0.3,0.2,0.5,0.5,0.5h5.8c0.3,0,0.5-0.2,0.5-0.5
			C223.1,26,222.9,25.7,222.6,25.7"/>
		<path class="st1" d="M218.2,26.2c0,0.7-0.6,1.3-1.3,1.3c-0.7,0-1.3-0.6-1.3-1.3c0-0.7,0.6-1.3,1.3-1.3
			C217.6,24.9,218.2,25.5,218.2,26.2z"/>
		<path class="st1" d="M224.1,26.2c0,0.7-0.6,1.3-1.3,1.3c-0.7,0-1.3-0.6-1.3-1.3c0-0.7,0.6-1.3,1.3-1.3
			C223.5,24.9,224.1,25.5,224.1,26.2z"/>
		<path class="st1" d="M224.1,31.1c0,0.7-0.6,1.3-1.3,1.3c-0.7,0-1.3-0.6-1.3-1.3c0-0.7,0.6-1.3,1.3-1.3
			C223.5,29.7,224.1,30.3,224.1,31.1z"/>
		<path class="st1" d="M219.8,34.2l-2.2,2.2l-3.3,0c-0.3,0-0.5,0.2-0.5,0.5c0,0.3,0.2,0.5,0.5,0.5l3.7,0l2.5-2.5
			c0.2-0.2,0.2-0.5,0-0.7C220.3,34,220,34,219.8,34.2L219.8,34.2z"/>
		<path class="st1" d="M215.5,36.9c0,0.7-0.6,1.3-1.3,1.3s-1.3-0.6-1.3-1.3c0-0.7,0.6-1.3,1.3-1.3S215.5,36.2,215.5,36.9z"/>
		<path class="st1" d="M221.5,34.5c0,0.7-0.6,1.3-1.3,1.3c-0.7,0-1.3-0.6-1.3-1.3c0-0.7,0.6-1.3,1.3-1.3
			C220.9,33.2,221.5,33.8,221.5,34.5z"/>
		<path class="st1" d="M196.1,29.3h3.6c0.3,0,0.5-0.2,0.5-0.5c0-0.3-0.2-0.5-0.5-0.5h-3.6c-0.3,0-0.5,0.2-0.5,0.5
			C195.6,29.1,195.9,29.3,196.1,29.3"/>
		<path class="st1" d="M212.1,31.7h9.6c0.3,0,0.5-0.2,0.5-0.5c0-0.3-0.2-0.5-0.5-0.5h-9.6c-0.3,0-0.5,0.2-0.5,0.5
			C211.6,31.5,211.8,31.7,212.1,31.7"/>
		<path class="st1" d="M222.8,34.1h3.6c0.3,0,0.5-0.2,0.5-0.5c0-0.3-0.2-0.5-0.5-0.5h-3.6c-0.3,0-0.5,0.2-0.5,0.5
			C222.4,33.8,222.6,34.1,222.8,34.1"/>
		<path class="st1" d="M210.5,67.8c0-0.7-0.6-1.3-1.3-1.3c-0.7,0-1.3,0.6-1.3,1.3c0,0.7,0.6,1.3,1.3,1.3
			C209.9,69.1,210.5,68.5,210.5,67.8z"/>
		<path class="st1" d="M211.9,60c0-0.7-0.6-1.3-1.3-1.3c-0.7,0-1.3,0.6-1.3,1.3c0,0.7,0.6,1.3,1.3,1.3
			C211.3,61.4,211.9,60.8,211.9,60z"/>
		<path class="st1" d="M209.2,67.3h-5.8l-2,2.3l-5.3,0c-0.3,0-0.5,0.2-0.5,0.5c0,0.3,0.2,0.5,0.5,0.5l5.8,0l2-2.3l5.3,0
			c0.3,0,0.5-0.2,0.5-0.5C209.7,67.5,209.5,67.3,209.2,67.3L209.2,67.3z"/>
		<path class="st1" d="M217.8,63.4c0-0.7-0.6-1.3-1.3-1.3c-0.7,0-1.3,0.6-1.3,1.3c0,0.7,0.6,1.3,1.3,1.3
			C217.2,64.8,217.8,64.2,217.8,63.4z"/>
		<path class="st1" d="M216.5,62.9h-6.3l-2.5,2.3l-11.6,0c-0.3,0-0.5,0.2-0.5,0.5c0,0.3,0.2,0.5,0.5,0.5l11.9,0l2.5-2.3h5.9
			c0.3,0,0.5-0.2,0.5-0.5C217,63.2,216.8,62.9,216.5,62.9L216.5,62.9z"/>
		<path class="st1" d="M210.2,59.7l-3,3l-11.1,0c-0.3,0-0.5,0.2-0.5,0.5c0,0.3,0.2,0.5,0.5,0.5l11.5,0l3.3-3.3
			c0.2-0.2,0.2-0.5,0-0.7C210.7,59.5,210.4,59.5,210.2,59.7L210.2,59.7z"/>
		<path class="st1" d="M204.6,72.1h-5.8c-0.3,0-0.5,0.2-0.5,0.5c0,0.3,0.2,0.5,0.5,0.5h5.8c0.3,0,0.5-0.2,0.5-0.5
			C205.1,72.3,204.8,72.1,204.6,72.1"/>
		<path class="st1" d="M200.1,72.6c0-0.7-0.6-1.3-1.3-1.3c-0.7,0-1.3,0.6-1.3,1.3c0,0.7,0.6,1.3,1.3,1.3
			C199.5,73.9,200.1,73.3,200.1,72.6z"/>
		<path class="st1" d="M206.1,72.6c0-0.7-0.6-1.3-1.3-1.3c-0.7,0-1.3,0.6-1.3,1.3c0,0.7,0.6,1.3,1.3,1.3
			C205.5,73.9,206.1,73.3,206.1,72.6z"/>
		<path class="st1" d="M205.5,59.8h-5.8c-0.3,0-0.5,0.2-0.5,0.5c0,0.3,0.2,0.5,0.5,0.5h5.8c0.3,0,0.5-0.2,0.5-0.5
			C206,60,205.7,59.8,205.5,59.8"/>
		<path class="st1" d="M201,60.3c0-0.7-0.6-1.3-1.3-1.3c-0.7,0-1.3,0.6-1.3,1.3c0,0.7,0.6,1.3,1.3,1.3C200.4,61.6,201,61,201,60.3z"
			/>
		<path class="st1" d="M207,60.3c0-0.7-0.6-1.3-1.3-1.3c-0.7,0-1.3,0.6-1.3,1.3c0,0.7,0.6,1.3,1.3,1.3C206.4,61.6,207,61,207,60.3z"
			/>
		<path class="st1" d="M218.1,66.8L216,69l-3.3,0c-0.3,0-0.5,0.2-0.5,0.5c0,0.3,0.2,0.5,0.5,0.5l3.7,0l2.5-2.5
			c0.2-0.2,0.2-0.5,0-0.7C218.6,66.6,218.3,66.6,218.1,66.8L218.1,66.8z"/>
		<path class="st1" d="M213.9,69.5c0,0.7-0.6,1.3-1.3,1.3c-0.7,0-1.3-0.6-1.3-1.3c0-0.7,0.6-1.3,1.3-1.3
			C213.3,68.2,213.9,68.8,213.9,69.5z"/>
		<path class="st1" d="M219.8,67.1c0,0.7-0.6,1.3-1.3,1.3c-0.7,0-1.3-0.6-1.3-1.3c0-0.7,0.6-1.3,1.3-1.3
			C219.2,65.8,219.8,66.4,219.8,67.1z"/>
		<path class="st1" d="M196.1,68.6h3.6c0.3,0,0.5-0.2,0.5-0.5c0-0.3-0.2-0.5-0.5-0.5h-3.6c-0.3,0-0.5,0.2-0.5,0.5
			C195.6,68.4,195.9,68.6,196.1,68.6"/>
		<path class="st1" d="M212.1,66.7h3.4c0.3,0,0.5-0.2,0.5-0.5c0-0.3-0.2-0.5-0.5-0.5h-3.4c-0.3,0-0.5,0.2-0.5,0.5
			C211.6,66.4,211.8,66.7,212.1,66.7"/>
		<path class="st1" d="M206.6,71.5h2.4c0.3,0,0.5-0.2,0.5-0.5c0-0.3-0.2-0.5-0.5-0.5h-2.4c-0.3,0-0.5,0.2-0.5,0.5
			C206.2,71.3,206.4,71.5,206.6,71.5"/>
		<path class="st1" d="M210.5,54.6c0-0.7-0.6-1.3-1.3-1.3c-0.7,0-1.3,0.6-1.3,1.3c0,0.7,0.6,1.3,1.3,1.3
			C209.9,56,210.5,55.4,210.5,54.6z"/>
		<path class="st1" d="M209.2,54.1h-5.8l-2,2.3h-5.3c-0.3,0-0.5,0.2-0.5,0.5c0,0.3,0.2,0.5,0.5,0.5l5.8,0l2-2.3l5.3,0
			c0.3,0,0.5-0.2,0.5-0.5C209.7,54.4,209.5,54.1,209.2,54.1L209.2,54.1z"/>
		<path class="st1" d="M210,49.9l-2.4,2.2l-11.6,0c-0.3,0-0.5,0.2-0.5,0.5c0,0.3,0.2,0.5,0.5,0.5l11.9,0l2.6-2.4
			c0.2-0.2,0.2-0.5,0-0.7C210.6,49.8,210.2,49.7,210,49.9L210,49.9z"/>
		<path class="st1" d="M219.1,54.5h-5.3l-1.8,2.7l-4,0c-0.3,0-0.5,0.2-0.5,0.5c0,0.3,0.2,0.5,0.5,0.5l4.5,0l1.8-2.7h4.8
			c0.3,0,0.5-0.2,0.5-0.5C219.6,54.8,219.4,54.5,219.1,54.5L219.1,54.5z"/>
		<path class="st1" d="M209.3,57.8c0-0.7-0.6-1.3-1.3-1.3c-0.7,0-1.3,0.6-1.3,1.3c0,0.7,0.6,1.3,1.3,1.3
			C208.7,59.1,209.3,58.5,209.3,57.8z"/>
		<path class="st1" d="M220.4,54.9c0-0.7-0.6-1.3-1.3-1.3c-0.7,0-1.3,0.6-1.3,1.3c0,0.7,0.6,1.3,1.3,1.3
			C219.8,56.2,220.4,55.6,220.4,54.9z"/>
		<path class="st1" d="M229,49h-5.8c-0.3,0-0.5,0.2-0.5,0.5c0,0.3,0.2,0.5,0.5,0.5h5.8c0.3,0,0.5-0.2,0.5-0.5
			C229.5,49.3,229.2,49,229,49"/>
		<path class="st1" d="M224.5,49.5c0-0.7-0.6-1.3-1.3-1.3c-0.7,0-1.3,0.6-1.3,1.3s0.6,1.3,1.3,1.3C223.9,50.9,224.5,50.3,224.5,49.5
			z"/>
		<path class="st1" d="M230.5,49.5c0-0.7-0.6-1.3-1.3-1.3s-1.3,0.6-1.3,1.3s0.6,1.3,1.3,1.3S230.5,50.3,230.5,49.5z"/>
		<path class="st1" d="M220.4,59.3h-5.8c-0.3,0-0.5,0.2-0.5,0.5c0,0.3,0.2,0.5,0.5,0.5h5.8c0.3,0,0.5-0.2,0.5-0.5
			C220.9,59.6,220.6,59.3,220.4,59.3"/>
		<path class="st1" d="M215.9,59.8c0-0.7-0.6-1.3-1.3-1.3c-0.7,0-1.3,0.6-1.3,1.3c0,0.7,0.6,1.3,1.3,1.3
			C215.3,61.2,215.9,60.6,215.9,59.8z"/>
		<path class="st1" d="M221.9,59.8c0-0.7-0.6-1.3-1.3-1.3c-0.7,0-1.3,0.6-1.3,1.3c0,0.7,0.6,1.3,1.3,1.3
			C221.3,61.2,221.9,60.6,221.9,59.8z"/>
		<path class="st1" d="M226.8,52.8c0-0.7-0.6-1.3-1.3-1.3c-0.7,0-1.3,0.6-1.3,1.3c0,0.7,0.6,1.3,1.3,1.3
			C226.2,54.1,226.8,53.5,226.8,52.8z"/>
		<path class="st1" d="M227.8,54.1l-2.2,2.2h-3.3c-0.3,0-0.5,0.2-0.5,0.5c0,0.3,0.2,0.5,0.5,0.5l3.7,0l2.5-2.5
			c0.2-0.2,0.2-0.5,0-0.7C228.4,53.9,228,53.9,227.8,54.1L227.8,54.1z"/>
		<path class="st1" d="M223.6,56.8c0,0.7-0.6,1.3-1.3,1.3c-0.7,0-1.3-0.6-1.3-1.3c0-0.7,0.6-1.3,1.3-1.3
			C223,55.5,223.6,56.1,223.6,56.8z"/>
		<path class="st1" d="M229.5,54.4c0,0.7-0.6,1.3-1.3,1.3c-0.7,0-1.3-0.6-1.3-1.3c0-0.7,0.6-1.3,1.3-1.3
			C228.9,53.1,229.5,53.7,229.5,54.4z"/>
		<path class="st1" d="M196.1,55.5h3.6c0.3,0,0.5-0.2,0.5-0.5c0-0.3-0.2-0.5-0.5-0.5h-3.6c-0.3,0-0.5,0.2-0.5,0.5
			C195.6,55.2,195.9,55.5,196.1,55.5"/>
		<path class="st1" d="M212.1,53.1h13.2c0.3,0,0.5-0.2,0.5-0.5c0-0.3-0.2-0.5-0.5-0.5h-13.2c-0.3,0-0.5,0.2-0.5,0.5
			C211.6,52.8,211.8,53.1,212.1,53.1"/>
		<path class="st1" d="M215.1,57.7h3.6c0.3,0,0.5-0.2,0.5-0.5c0-0.3-0.2-0.5-0.5-0.5h-3.6c-0.3,0-0.5,0.2-0.5,0.5
			C214.6,57.5,214.8,57.7,215.1,57.7"/>
		<path class="st1" d="M210.5,42.5c0,0.7-0.6,1.3-1.3,1.3c-0.7,0-1.3-0.6-1.3-1.3c0-0.7,0.6-1.3,1.3-1.3
			C209.9,41.2,210.5,41.8,210.5,42.5z"/>
		<path class="st1" d="M211.9,50.3c0,0.7-0.6,1.3-1.3,1.3c-0.7,0-1.3-0.6-1.3-1.3c0-0.7,0.6-1.3,1.3-1.3
			C211.3,48.9,211.9,49.5,211.9,50.3z"/>
		<path class="st1" d="M209.2,42h-5.3l-2-2.3h-5.8c-0.3,0-0.5,0.2-0.5,0.5c0,0.3,0.2,0.5,0.5,0.5l5.3,0l2,2.3h5.8
			c0.3,0,0.5-0.2,0.5-0.5C209.7,42.3,209.5,42,209.2,42L209.2,42z"/>
		
			<ellipse transform="matrix(2.443524e-03 -1 1 2.443524e-03 169.084 263.2401)" class="st1" cx="216.5" cy="46.9" rx="1.3" ry="1.3"/>
		<path class="st1" d="M216.5,46.4h-5.9l-2.5-2.3h-11.9c-0.3,0-0.5,0.2-0.5,0.5c0,0.3,0.2,0.5,0.5,0.5l11.6,0l2.5,2.3h6.3
			c0.3,0,0.5-0.2,0.5-0.5C217,46.6,216.8,46.4,216.5,46.4L216.5,46.4z"/>
		<path class="st1" d="M210.9,49.9l-3.3-3.3h-11.5c-0.3,0-0.5,0.2-0.5,0.5c0,0.3,0.2,0.5,0.5,0.5l11.1,0l3,3c0.2,0.2,0.5,0.2,0.7,0
			C211.1,50.4,211.1,50.1,210.9,49.9L210.9,49.9z"/>
		<path class="st1" d="M219.1,41.6h-4.8l-1.8-2.7H208c-0.3,0-0.5,0.2-0.5,0.5c0,0.3,0.2,0.5,0.5,0.5l4,0l1.8,2.7h5.3
			c0.3,0,0.5-0.2,0.5-0.5C219.6,41.9,219.4,41.6,219.1,41.6L219.1,41.6z"/>
		<path class="st1" d="M209.3,39.4c0,0.7-0.6,1.3-1.3,1.3c-0.7,0-1.3-0.6-1.3-1.3c0-0.7,0.6-1.3,1.3-1.3
			C208.7,38,209.3,38.6,209.3,39.4z"/>
		<path class="st1" d="M220.4,42.3c0,0.7-0.6,1.3-1.3,1.3c-0.7,0-1.3-0.6-1.3-1.3c0-0.7,0.6-1.3,1.3-1.3
			C219.8,40.9,220.4,41.5,220.4,42.3z"/>
		<path class="st1" d="M205.5,49.5h-5.8c-0.3,0-0.5,0.2-0.5,0.5c0,0.3,0.2,0.5,0.5,0.5h5.8c0.3,0,0.5-0.2,0.5-0.5
			C206,49.7,205.7,49.5,205.5,49.5"/>
		<path class="st1" d="M201,50c0,0.7-0.6,1.3-1.3,1.3c-0.7,0-1.3-0.6-1.3-1.3c0-0.7,0.6-1.3,1.3-1.3C200.4,48.7,201,49.3,201,50z"/>
		<path class="st1" d="M207,50c0,0.7-0.6,1.3-1.3,1.3c-0.7,0-1.3-0.6-1.3-1.3c0-0.7,0.6-1.3,1.3-1.3C206.4,48.7,207,49.3,207,50z"/>
		<path class="st1" d="M228.3,40.4h-5.8c-0.3,0-0.5,0.2-0.5,0.5c0,0.3,0.2,0.5,0.5,0.5h5.8c0.3,0,0.5-0.2,0.5-0.5
			C228.8,40.6,228.6,40.4,228.3,40.4"/>
		<path class="st1" d="M223.9,40.9c0,0.7-0.6,1.3-1.3,1.3c-0.7,0-1.3-0.6-1.3-1.3c0-0.7,0.6-1.3,1.3-1.3
			C223.3,39.5,223.9,40.1,223.9,40.9z"/>
		<path class="st1" d="M229.8,40.9c0,0.7-0.6,1.3-1.3,1.3c-0.7,0-1.3-0.6-1.3-1.3c0-0.7,0.6-1.3,1.3-1.3
			C229.2,39.5,229.8,40.1,229.8,40.9z"/>
		<path class="st1" d="M227,35.4h-3.5l-3.6,3.7l-3.1,0c-0.3,0-0.5,0.2-0.5,0.5c0,0.3,0.2,0.5,0.5,0.5l3.5,0l3.6-3.7l3.1,0
			c0.3,0,0.5-0.2,0.5-0.5C227.5,35.6,227.3,35.4,227,35.4L227,35.4z"/>
		<path class="st1" d="M218.2,39.6c0,0.7-0.6,1.3-1.3,1.3c-0.7,0-1.3-0.6-1.3-1.3c0-0.7,0.6-1.3,1.3-1.3
			C217.6,38.2,218.2,38.8,218.2,39.6z"/>
		<path class="st1" d="M228.4,35.9c0,0.7-0.6,1.3-1.3,1.3c-0.7,0-1.3-0.6-1.3-1.3c0-0.7,0.6-1.3,1.3-1.3
			C227.8,34.5,228.4,35.1,228.4,35.9z"/>
		<path class="st1" d="M224.1,44.4c0,0.7-0.6,1.3-1.3,1.3c-0.7,0-1.3-0.6-1.3-1.3c0-0.7,0.6-1.3,1.3-1.3
			C223.5,43.1,224.1,43.7,224.1,44.4z"/>
		<path class="st1" d="M219.8,47.5l-2.2,2.2l-3.3,0c-0.3,0-0.5,0.2-0.5,0.5c0,0.3,0.2,0.5,0.5,0.5l3.7,0l2.5-2.5
			c0.2-0.2,0.2-0.5,0-0.7C220.3,47.3,220,47.3,219.8,47.5L219.8,47.5z"/>
		<path class="st1" d="M215.5,50.3c0,0.7-0.6,1.3-1.3,1.3s-1.3-0.6-1.3-1.3c0-0.7,0.6-1.3,1.3-1.3S215.5,49.5,215.5,50.3z"/>
		<path class="st1" d="M221.5,47.9c0,0.7-0.6,1.3-1.3,1.3c-0.7,0-1.3-0.6-1.3-1.3c0-0.7,0.6-1.3,1.3-1.3
			C220.9,46.6,221.5,47.2,221.5,47.9z"/>
		<path class="st1" d="M196.1,42.7h3.6c0.3,0,0.5-0.2,0.5-0.5c0-0.3-0.2-0.5-0.5-0.5h-3.6c-0.3,0-0.5,0.2-0.5,0.5
			C195.6,42.5,195.9,42.7,196.1,42.7"/>
		<path class="st1" d="M212.1,45.1h9.6c0.3,0,0.5-0.2,0.5-0.5c0-0.3-0.2-0.5-0.5-0.5h-9.6c-0.3,0-0.5,0.2-0.5,0.5
			C211.6,44.9,211.8,45.1,212.1,45.1"/>
		<path class="st1" d="M222.8,47.4h3.6c0.3,0,0.5-0.2,0.5-0.5c0-0.3-0.2-0.5-0.5-0.5h-3.6c-0.3,0-0.5,0.2-0.5,0.5
			C222.4,47.2,222.6,47.4,222.8,47.4"/>
		<path class="st1" d="M225.2,44.4h2.6c0.3,0,0.5-0.2,0.5-0.5c0-0.3-0.2-0.5-0.5-0.5h-2.6c-0.3,0-0.5,0.2-0.5,0.5
			C224.7,44.1,225,44.4,225.2,44.4"/>
		<path class="st1" d="M224.4,38.8h3.6c0.3,0,0.5-0.2,0.5-0.5c0-0.3-0.2-0.5-0.5-0.5h-3.6c-0.3,0-0.5,0.2-0.5,0.5
			C223.9,38.5,224.1,38.8,224.4,38.8"/>
		<path class="st1" d="M195.9,71.9V11.2c0-0.3,0.2-0.5,0.5-0.5s0.5,0.2,0.5,0.5v60.7c0,0.3-0.2,0.5-0.5,0.5S195.9,72.1,195.9,71.9"
			/>
		<path class="st1" d="M182,16c0,0.7,0.6,1.3,1.3,1.3c0.7,0,1.3-0.6,1.3-1.3c0-0.7-0.6-1.3-1.3-1.3C182.6,14.7,182,15.3,182,16z"/>
		<path class="st1" d="M180.6,23.8c0,0.7,0.6,1.3,1.3,1.3c0.7,0,1.3-0.6,1.3-1.3c0-0.7-0.6-1.3-1.3-1.3
			C181.2,22.5,180.6,23.1,180.6,23.8z"/>
		<path class="st1" d="M183.3,15.5h5.3l2-2.3h5.8c0.3,0,0.5,0.2,0.5,0.5c0,0.3-0.2,0.5-0.5,0.5l-5.3,0l-2,2.3h-5.8
			c-0.3,0-0.5-0.2-0.5-0.5C182.8,15.8,183,15.5,183.3,15.5L183.3,15.5z"/>
		<path class="st1" d="M174.7,20.4c0,0.7,0.6,1.3,1.3,1.3c0.7,0,1.3-0.6,1.3-1.3c0-0.7-0.6-1.3-1.3-1.3
			C175.3,19,174.7,19.6,174.7,20.4z"/>
		<path class="st1" d="M176,19.9h5.9l2.5-2.3h11.9c0.3,0,0.5,0.2,0.5,0.5c0,0.3-0.2,0.5-0.5,0.5l-11.6,0l-2.5,2.3H176
			c-0.3,0-0.5-0.2-0.5-0.5C175.5,20.1,175.8,19.9,176,19.9L176,19.9z"/>
		<path class="st1" d="M181.6,23.4l3.3-3.3h11.5c0.3,0,0.5,0.2,0.5,0.5c0,0.3-0.2,0.5-0.5,0.5l-11.1,0l-3,3c-0.2,0.2-0.5,0.2-0.7,0
			C181.4,23.9,181.4,23.6,181.6,23.4L181.6,23.4z"/>
		<path class="st1" d="M187.9,10.7h5.8c0.3,0,0.5,0.2,0.5,0.5c0,0.3-0.2,0.5-0.5,0.5h-5.8c-0.3,0-0.5-0.2-0.5-0.5
			C187.4,10.9,187.7,10.7,187.9,10.7"/>
		<path class="st1" d="M192.4,11.2c0,0.7,0.6,1.3,1.3,1.3c0.7,0,1.3-0.6,1.3-1.3c0-0.7-0.6-1.3-1.3-1.3
			C193,9.9,192.4,10.5,192.4,11.2z"/>
		<path class="st1" d="M186.4,11.2c0,0.7,0.6,1.3,1.3,1.3c0.7,0,1.3-0.6,1.3-1.3c0-0.7-0.6-1.3-1.3-1.3
			C187,9.9,186.4,10.5,186.4,11.2z"/>
		<path class="st1" d="M187,23h5.8c0.3,0,0.5,0.2,0.5,0.5c0,0.3-0.2,0.5-0.5,0.5H187c-0.3,0-0.5-0.2-0.5-0.5
			C186.5,23.2,186.8,23,187,23"/>
		<path class="st1" d="M191.5,23.5c0,0.7,0.6,1.3,1.3,1.3c0.7,0,1.3-0.6,1.3-1.3c0-0.7-0.6-1.3-1.3-1.3
			C192.1,22.2,191.5,22.8,191.5,23.5z"/>
		<path class="st1" d="M185.5,23.5c0,0.7,0.6,1.3,1.3,1.3c0.7,0,1.3-0.6,1.3-1.3c0-0.7-0.6-1.3-1.3-1.3
			C186.1,22.2,185.5,22.8,185.5,23.5z"/>
		<path class="st1" d="M172.7,21.1l2.2,2.2l3.3,0c0.3,0,0.5,0.2,0.5,0.5c0,0.3-0.2,0.5-0.5,0.5l-3.7,0l-2.5-2.5
			c-0.2-0.2-0.2-0.5,0-0.7C172.2,20.9,172.6,20.9,172.7,21.1L172.7,21.1z"/>
		<path class="st1" d="M177,23.8c0,0.7,0.6,1.3,1.3,1.3s1.3-0.6,1.3-1.3c0-0.7-0.6-1.3-1.3-1.3S177,23.1,177,23.8z"/>
		<path class="st1" d="M171.1,21.4c0,0.7,0.6,1.3,1.3,1.3c0.7,0,1.3-0.6,1.3-1.3c0-0.7-0.6-1.3-1.3-1.3
			C171.7,20.1,171.1,20.7,171.1,21.4z"/>
		<path class="st1" d="M196.4,16.2h-3.6c-0.3,0-0.5-0.2-0.5-0.5c0-0.3,0.2-0.5,0.5-0.5h3.6c0.3,0,0.5,0.2,0.5,0.5
			C196.9,16,196.7,16.2,196.4,16.2"/>
		<path class="st1" d="M180.4,18.1H177c-0.3,0-0.5-0.2-0.5-0.5c0-0.3,0.2-0.5,0.5-0.5h3.4c0.3,0,0.5,0.2,0.5,0.5
			C180.9,17.9,180.7,18.1,180.4,18.1"/>
		<path class="st1" d="M185.9,13.3h-2.4c-0.3,0-0.5-0.2-0.5-0.5c0-0.3,0.2-0.5,0.5-0.5h2.4c0.3,0,0.5,0.2,0.5,0.5
			C186.4,13,186.1,13.3,185.9,13.3"/>
		<path class="st1" d="M182,29.2c0,0.7,0.6,1.3,1.3,1.3c0.7,0,1.3-0.6,1.3-1.3c0-0.7-0.6-1.3-1.3-1.3C182.6,27.8,182,28.4,182,29.2z
			"/>
		<path class="st1" d="M180.6,36.9c0,0.7,0.6,1.3,1.3,1.3c0.7,0,1.3-0.6,1.3-1.3c0-0.7-0.6-1.3-1.3-1.3
			C181.2,35.6,180.6,36.2,180.6,36.9z"/>
		<path class="st1" d="M183.3,28.7h5.3l2-2.3h5.8c0.3,0,0.5,0.2,0.5,0.5c0,0.3-0.2,0.5-0.5,0.5l-5.3,0l-2,2.3h-5.8
			c-0.3,0-0.5-0.2-0.5-0.5C182.8,28.9,183,28.7,183.3,28.7L183.3,28.7z"/>
		<path class="st1" d="M174.7,33.5c0,0.7,0.6,1.3,1.3,1.3c0.7,0,1.3-0.6,1.3-1.3c0-0.7-0.6-1.3-1.3-1.3
			C175.3,32.2,174.7,32.8,174.7,33.5z"/>
		<path class="st1" d="M176,33h5.9l2.5-2.3h11.9c0.3,0,0.5,0.2,0.5,0.5c0,0.3-0.2,0.5-0.5,0.5l-11.6,0l-2.5,2.3H176
			c-0.3,0-0.5-0.2-0.5-0.5C175.5,33.3,175.8,33,176,33L176,33z"/>
		<path class="st1" d="M181.6,36.6l3.3-3.3h11.5c0.3,0,0.5,0.2,0.5,0.5c0,0.3-0.2,0.5-0.5,0.5l-11.1,0l-3,3c-0.2,0.2-0.5,0.2-0.7,0
			C181.4,37.1,181.4,36.8,181.6,36.6L181.6,36.6z"/>
		<path class="st1" d="M173.4,28.3h4.8l1.8-2.7h4.5c0.3,0,0.5,0.2,0.5,0.5c0,0.3-0.2,0.5-0.5,0.5l-4,0l-1.8,2.7h-5.3
			c-0.3,0-0.5-0.2-0.5-0.5C172.9,28.5,173.2,28.3,173.4,28.3L173.4,28.3z"/>
		<path class="st1" d="M183.2,26c0,0.7,0.6,1.3,1.3,1.3c0.7,0,1.3-0.6,1.3-1.3c0-0.7-0.6-1.3-1.3-1.3
			C183.8,24.7,183.2,25.3,183.2,26z"/>
		<path class="st1" d="M172.1,28.9c0,0.7,0.6,1.3,1.3,1.3c0.7,0,1.3-0.6,1.3-1.3c0-0.7-0.6-1.3-1.3-1.3
			C172.7,27.6,172.1,28.2,172.1,28.9z"/>
		<path class="st1" d="M187,36.2h5.8c0.3,0,0.5,0.2,0.5,0.5c0,0.3-0.2,0.5-0.5,0.5H187c-0.3,0-0.5-0.2-0.5-0.5
			C186.5,36.4,186.8,36.2,187,36.2"/>
		<path class="st1" d="M191.5,36.7c0,0.7,0.6,1.3,1.3,1.3c0.7,0,1.3-0.6,1.3-1.3c0-0.7-0.6-1.3-1.3-1.3
			C192.1,35.3,191.5,35.9,191.5,36.7z"/>
		<path class="st1" d="M185.5,36.7c0,0.7,0.6,1.3,1.3,1.3c0.7,0,1.3-0.6,1.3-1.3c0-0.7-0.6-1.3-1.3-1.3
			C186.1,35.3,185.5,35.9,185.5,36.7z"/>
		<path class="st1" d="M169.9,25.7h5.8c0.3,0,0.5,0.2,0.5,0.5c0,0.3-0.2,0.5-0.5,0.5h-5.8c-0.3,0-0.5-0.2-0.5-0.5
			C169.4,26,169.6,25.7,169.9,25.7"/>
		<path class="st1" d="M174.3,26.2c0,0.7,0.6,1.3,1.3,1.3c0.7,0,1.3-0.6,1.3-1.3c0-0.7-0.6-1.3-1.3-1.3
			C174.9,24.9,174.3,25.5,174.3,26.2z"/>
		<path class="st1" d="M168.4,26.2c0,0.7,0.6,1.3,1.3,1.3c0.7,0,1.3-0.6,1.3-1.3c0-0.7-0.6-1.3-1.3-1.3
			C169,24.9,168.4,25.5,168.4,26.2z"/>
		<path class="st1" d="M168.5,31.1c0,0.7,0.6,1.3,1.3,1.3c0.7,0,1.3-0.6,1.3-1.3c0-0.7-0.6-1.3-1.3-1.3
			C169.1,29.7,168.5,30.3,168.5,31.1z"/>
		<path class="st1" d="M172.7,34.2l2.2,2.2l3.3,0c0.3,0,0.5,0.2,0.5,0.5c0,0.3-0.2,0.5-0.5,0.5l-3.7,0l-2.5-2.5
			c-0.2-0.2-0.2-0.5,0-0.7S172.6,34,172.7,34.2L172.7,34.2z"/>
		<path class="st1" d="M177,36.9c0,0.7,0.6,1.3,1.3,1.3s1.3-0.6,1.3-1.3c0-0.7-0.6-1.3-1.3-1.3S177,36.2,177,36.9z"/>
		<path class="st1" d="M171.1,34.5c0,0.7,0.6,1.3,1.3,1.3c0.7,0,1.3-0.6,1.3-1.3c0-0.7-0.6-1.3-1.3-1.3
			C171.7,33.2,171.1,33.8,171.1,34.5z"/>
		<path class="st1" d="M196.4,29.3h-3.6c-0.3,0-0.5-0.2-0.5-0.5c0-0.3,0.2-0.5,0.5-0.5h3.6c0.3,0,0.5,0.2,0.5,0.5
			C196.9,29.1,196.7,29.3,196.4,29.3"/>
		<path class="st1" d="M180.4,31.7h-9.6c-0.3,0-0.5-0.2-0.5-0.5c0-0.3,0.2-0.5,0.5-0.5h9.6c0.3,0,0.5,0.2,0.5,0.5
			C180.9,31.5,180.7,31.7,180.4,31.7"/>
		<path class="st1" d="M169.7,34.1h-3.6c-0.3,0-0.5-0.2-0.5-0.5c0-0.3,0.2-0.5,0.5-0.5h3.6c0.3,0,0.5,0.2,0.5,0.5
			C170.2,33.8,169.9,34.1,169.7,34.1"/>
		<path class="st1" d="M182,67.8c0-0.7,0.6-1.3,1.3-1.3c0.7,0,1.3,0.6,1.3,1.3c0,0.7-0.6,1.3-1.3,1.3C182.6,69.1,182,68.5,182,67.8z
			"/>
		<path class="st1" d="M180.6,60c0-0.7,0.6-1.3,1.3-1.3c0.7,0,1.3,0.6,1.3,1.3c0,0.7-0.6,1.3-1.3,1.3
			C181.2,61.4,180.6,60.8,180.6,60z"/>
		<path class="st1" d="M183.3,67.3h5.8l2,2.3l5.3,0c0.3,0,0.5,0.2,0.5,0.5c0,0.3-0.2,0.5-0.5,0.5l-5.8,0l-2-2.3l-5.3,0
			c-0.3,0-0.5-0.2-0.5-0.5C182.8,67.5,183,67.3,183.3,67.3L183.3,67.3z"/>
		<path class="st1" d="M174.7,63.4c0-0.7,0.6-1.3,1.3-1.3c0.7,0,1.3,0.6,1.3,1.3c0,0.7-0.6,1.3-1.3,1.3
			C175.3,64.8,174.7,64.2,174.7,63.4z"/>
		<path class="st1" d="M176,62.9h6.3l2.5,2.3l11.6,0c0.3,0,0.5,0.2,0.5,0.5c0,0.3-0.2,0.5-0.5,0.5l-11.9,0l-2.5-2.3H176
			c-0.3,0-0.5-0.2-0.5-0.5C175.5,63.2,175.8,62.9,176,62.9L176,62.9z"/>
		<path class="st1" d="M182.3,59.7l3,3l11.1,0c0.3,0,0.5,0.2,0.5,0.5c0,0.3-0.2,0.5-0.5,0.5l-11.5,0l-3.3-3.3
			c-0.2-0.2-0.2-0.5,0-0.7C181.8,59.5,182.1,59.5,182.3,59.7L182.3,59.7z"/>
		<path class="st1" d="M187.9,72.1h5.8c0.3,0,0.5,0.2,0.5,0.5c0,0.3-0.2,0.5-0.5,0.5h-5.8c-0.3,0-0.5-0.2-0.5-0.5
			C187.4,72.3,187.7,72.1,187.9,72.1"/>
		<path class="st1" d="M192.4,72.6c0-0.7,0.6-1.3,1.3-1.3c0.7,0,1.3,0.6,1.3,1.3c0,0.7-0.6,1.3-1.3,1.3
			C193,73.9,192.4,73.3,192.4,72.6z"/>
		<path class="st1" d="M186.4,72.6c0-0.7,0.6-1.3,1.3-1.3c0.7,0,1.3,0.6,1.3,1.3c0,0.7-0.6,1.3-1.3,1.3
			C187,73.9,186.4,73.3,186.4,72.6z"/>
		<path class="st1" d="M187,59.8h5.8c0.3,0,0.5,0.2,0.5,0.5c0,0.3-0.2,0.5-0.5,0.5H187c-0.3,0-0.5-0.2-0.5-0.5
			C186.5,60,186.8,59.8,187,59.8"/>
		<path class="st1" d="M191.5,60.3c0-0.7,0.6-1.3,1.3-1.3c0.7,0,1.3,0.6,1.3,1.3c0,0.7-0.6,1.3-1.3,1.3
			C192.1,61.6,191.5,61,191.5,60.3z"/>
		<path class="st1" d="M185.5,60.3c0-0.7,0.6-1.3,1.3-1.3c0.7,0,1.3,0.6,1.3,1.3c0,0.7-0.6,1.3-1.3,1.3
			C186.1,61.6,185.5,61,185.5,60.3z"/>
		<path class="st1" d="M174.4,66.8l2.2,2.2l3.3,0c0.3,0,0.5,0.2,0.5,0.5c0,0.3-0.2,0.5-0.5,0.5l-3.7,0l-2.5-2.5
			c-0.2-0.2-0.2-0.5,0-0.7C173.9,66.6,174.2,66.6,174.4,66.8L174.4,66.8z"/>
		<path class="st1" d="M178.6,69.5c0,0.7,0.6,1.3,1.3,1.3c0.7,0,1.3-0.6,1.3-1.3c0-0.7-0.6-1.3-1.3-1.3
			C179.2,68.2,178.6,68.8,178.6,69.5z"/>
		<path class="st1" d="M172.7,67.1c0,0.7,0.6,1.3,1.3,1.3c0.7,0,1.3-0.6,1.3-1.3c0-0.7-0.6-1.3-1.3-1.3
			C173.3,65.8,172.7,66.4,172.7,67.1z"/>
		<path class="st1" d="M196.4,68.6h-3.6c-0.3,0-0.5-0.2-0.5-0.5c0-0.3,0.2-0.5,0.5-0.5h3.6c0.3,0,0.5,0.2,0.5,0.5
			C196.9,68.4,196.7,68.6,196.4,68.6"/>
		<path class="st1" d="M180.4,66.7H177c-0.3,0-0.5-0.2-0.5-0.5c0-0.3,0.2-0.5,0.5-0.5h3.4c0.3,0,0.5,0.2,0.5,0.5
			C180.9,66.4,180.7,66.7,180.4,66.7"/>
		<path class="st1" d="M185.9,71.5h-2.4c-0.3,0-0.5-0.2-0.5-0.5c0-0.3,0.2-0.5,0.5-0.5h2.4c0.3,0,0.5,0.2,0.5,0.5
			C186.4,71.3,186.1,71.5,185.9,71.5"/>
		<path class="st1" d="M182,54.6c0-0.7,0.6-1.3,1.3-1.3c0.7,0,1.3,0.6,1.3,1.3c0,0.7-0.6,1.3-1.3,1.3C182.6,56,182,55.4,182,54.6z"
			/>
		<path class="st1" d="M183.3,54.1h5.8l2,2.3h5.3c0.3,0,0.5,0.2,0.5,0.5c0,0.3-0.2,0.5-0.5,0.5l-5.8,0l-2-2.3l-5.3,0
			c-0.3,0-0.5-0.2-0.5-0.5C182.8,54.4,183,54.1,183.3,54.1L183.3,54.1z"/>
		<path class="st1" d="M182.5,49.9l2.4,2.2l11.6,0c0.3,0,0.5,0.2,0.5,0.5c0,0.3-0.2,0.5-0.5,0.5l-11.9,0l-2.6-2.4
			c-0.2-0.2-0.2-0.5,0-0.7C182,49.8,182.3,49.7,182.5,49.9L182.5,49.9z"/>
		<path class="st1" d="M173.4,54.5h5.3l1.8,2.7l4,0c0.3,0,0.5,0.2,0.5,0.5c0,0.3-0.2,0.5-0.5,0.5l-4.5,0l-1.8-2.7h-4.8
			c-0.3,0-0.5-0.2-0.5-0.5C172.9,54.8,173.2,54.5,173.4,54.5L173.4,54.5z"/>
		<path class="st1" d="M183.2,57.8c0-0.7,0.6-1.3,1.3-1.3c0.7,0,1.3,0.6,1.3,1.3c0,0.7-0.6,1.3-1.3,1.3
			C183.8,59.1,183.2,58.5,183.2,57.8z"/>
		<path class="st1" d="M172.1,54.9c0-0.7,0.6-1.3,1.3-1.3c0.7,0,1.3,0.6,1.3,1.3c0,0.7-0.6,1.3-1.3,1.3
			C172.7,56.2,172.1,55.6,172.1,54.9z"/>
		<path class="st1" d="M163.6,49h5.8c0.3,0,0.5,0.2,0.5,0.5c0,0.3-0.2,0.5-0.5,0.5h-5.8c-0.3,0-0.5-0.2-0.5-0.5
			C163.1,49.3,163.3,49,163.6,49"/>
		<path class="st1" d="M168,49.5c0-0.7,0.6-1.3,1.3-1.3c0.7,0,1.3,0.6,1.3,1.3s-0.6,1.3-1.3,1.3C168.6,50.9,168,50.3,168,49.5z"/>
		<path class="st1" d="M162.1,49.5c0-0.7,0.6-1.3,1.3-1.3s1.3,0.6,1.3,1.3s-0.6,1.3-1.3,1.3S162.1,50.3,162.1,49.5z"/>
		<path class="st1" d="M172.2,59.3h5.8c0.3,0,0.5,0.2,0.5,0.5c0,0.3-0.2,0.5-0.5,0.5h-5.8c-0.3,0-0.5-0.2-0.5-0.5
			C171.7,59.6,171.9,59.3,172.2,59.3"/>
		<path class="st1" d="M176.6,59.8c0-0.7,0.6-1.3,1.3-1.3c0.7,0,1.3,0.6,1.3,1.3c0,0.7-0.6,1.3-1.3,1.3
			C177.2,61.2,176.6,60.6,176.6,59.8z"/>
		<path class="st1" d="M170.7,59.8c0-0.7,0.6-1.3,1.3-1.3c0.7,0,1.3,0.6,1.3,1.3c0,0.7-0.6,1.3-1.3,1.3
			C171.3,61.2,170.7,60.6,170.7,59.8z"/>
		<path class="st1" d="M165.7,52.8c0-0.7,0.6-1.3,1.3-1.3c0.7,0,1.3,0.6,1.3,1.3c0,0.7-0.6,1.3-1.3,1.3
			C166.3,54.1,165.7,53.5,165.7,52.8z"/>
		<path class="st1" d="M164.7,54.1l2.2,2.2h3.3c0.3,0,0.5,0.2,0.5,0.5c0,0.3-0.2,0.5-0.5,0.5l-3.7,0l-2.5-2.5
			c-0.2-0.2-0.2-0.5,0-0.7C164.2,53.9,164.5,53.9,164.7,54.1L164.7,54.1z"/>
		<path class="st1" d="M168.9,56.8c0,0.7,0.6,1.3,1.3,1.3c0.7,0,1.3-0.6,1.3-1.3c0-0.7-0.6-1.3-1.3-1.3
			C169.5,55.5,168.9,56.1,168.9,56.8z"/>
		<path class="st1" d="M163,54.4c0,0.7,0.6,1.3,1.3,1.3c0.7,0,1.3-0.6,1.3-1.3c0-0.7-0.6-1.3-1.3-1.3C163.6,53.1,163,53.7,163,54.4z
			"/>
		<path class="st1" d="M196.4,55.5h-3.6c-0.3,0-0.5-0.2-0.5-0.5c0-0.3,0.2-0.5,0.5-0.5h3.6c0.3,0,0.5,0.2,0.5,0.5
			C196.9,55.2,196.7,55.5,196.4,55.5"/>
		<path class="st1" d="M180.4,53.1h-13.2c-0.3,0-0.5-0.2-0.5-0.5c0-0.3,0.2-0.5,0.5-0.5h13.2c0.3,0,0.5,0.2,0.5,0.5
			C180.9,52.8,180.7,53.1,180.4,53.1"/>
		<path class="st1" d="M177.4,57.7h-3.6c-0.3,0-0.5-0.2-0.5-0.5c0-0.3,0.2-0.5,0.5-0.5h3.6c0.3,0,0.5,0.2,0.5,0.5
			C177.9,57.5,177.7,57.7,177.4,57.7"/>
		<path class="st1" d="M182,42.5c0,0.7,0.6,1.3,1.3,1.3c0.7,0,1.3-0.6,1.3-1.3c0-0.7-0.6-1.3-1.3-1.3C182.6,41.2,182,41.8,182,42.5z
			"/>
		<path class="st1" d="M180.6,50.3c0,0.7,0.6,1.3,1.3,1.3c0.7,0,1.3-0.6,1.3-1.3c0-0.7-0.6-1.3-1.3-1.3
			C181.2,48.9,180.6,49.5,180.6,50.3z"/>
		<path class="st1" d="M183.3,42h5.3l2-2.3h5.8c0.3,0,0.5,0.2,0.5,0.5c0,0.3-0.2,0.5-0.5,0.5l-5.3,0l-2,2.3h-5.8
			c-0.3,0-0.5-0.2-0.5-0.5C182.8,42.3,183,42,183.3,42L183.3,42z"/>
		<ellipse transform="matrix(1 -2.443524e-03 2.443524e-03 1 -0.114 0.4303)" class="st1" cx="176" cy="46.9" rx="1.3" ry="1.3"/>
		<path class="st1" d="M176,46.4h5.9l2.5-2.3h11.9c0.3,0,0.5,0.2,0.5,0.5c0,0.3-0.2,0.5-0.5,0.5l-11.6,0l-2.5,2.3H176
			c-0.3,0-0.5-0.2-0.5-0.5C175.5,46.6,175.8,46.4,176,46.4L176,46.4z"/>
		<path class="st1" d="M181.6,49.9l3.3-3.3h11.5c0.3,0,0.5,0.2,0.5,0.5c0,0.3-0.2,0.5-0.5,0.5l-11.1,0l-3,3c-0.2,0.2-0.5,0.2-0.7,0
			C181.4,50.4,181.4,50.1,181.6,49.9L181.6,49.9z"/>
		<path class="st1" d="M173.4,41.6h4.8l1.8-2.7h4.5c0.3,0,0.5,0.2,0.5,0.5c0,0.3-0.2,0.5-0.5,0.5l-4,0l-1.8,2.7h-5.3
			c-0.3,0-0.5-0.2-0.5-0.5C172.9,41.9,173.2,41.6,173.4,41.6L173.4,41.6z"/>
		<path class="st1" d="M183.2,39.4c0,0.7,0.6,1.3,1.3,1.3c0.7,0,1.3-0.6,1.3-1.3c0-0.7-0.6-1.3-1.3-1.3
			C183.8,38,183.2,38.6,183.2,39.4z"/>
		<path class="st1" d="M172.1,42.3c0,0.7,0.6,1.3,1.3,1.3c0.7,0,1.3-0.6,1.3-1.3c0-0.7-0.6-1.3-1.3-1.3
			C172.7,40.9,172.1,41.5,172.1,42.3z"/>
		<path class="st1" d="M187,49.5h5.8c0.3,0,0.5,0.2,0.5,0.5c0,0.3-0.2,0.5-0.5,0.5H187c-0.3,0-0.5-0.2-0.5-0.5
			C186.5,49.7,186.8,49.5,187,49.5"/>
		<path class="st1" d="M191.5,50c0,0.7,0.6,1.3,1.3,1.3c0.7,0,1.3-0.6,1.3-1.3c0-0.7-0.6-1.3-1.3-1.3
			C192.1,48.7,191.5,49.3,191.5,50z"/>
		<path class="st1" d="M185.5,50c0,0.7,0.6,1.3,1.3,1.3c0.7,0,1.3-0.6,1.3-1.3c0-0.7-0.6-1.3-1.3-1.3
			C186.1,48.7,185.5,49.3,185.5,50z"/>
		<path class="st1" d="M164.2,40.4h5.8c0.3,0,0.5,0.2,0.5,0.5c0,0.3-0.2,0.5-0.5,0.5h-5.8c-0.3,0-0.5-0.2-0.5-0.5
			C163.7,40.6,163.9,40.4,164.2,40.4"/>
		<path class="st1" d="M168.6,40.9c0,0.7,0.6,1.3,1.3,1.3c0.7,0,1.3-0.6,1.3-1.3c0-0.7-0.6-1.3-1.3-1.3
			C169.2,39.5,168.6,40.1,168.6,40.9z"/>
		<path class="st1" d="M162.7,40.9c0,0.7,0.6,1.3,1.3,1.3c0.7,0,1.3-0.6,1.3-1.3c0-0.7-0.6-1.3-1.3-1.3
			C163.3,39.5,162.7,40.1,162.7,40.9z"/>
		<path class="st1" d="M165.5,35.4h3.5l3.6,3.7l3.1,0c0.3,0,0.5,0.2,0.5,0.5c0,0.3-0.2,0.5-0.5,0.5l-3.5,0l-3.6-3.7l-3.1,0
			c-0.3,0-0.5-0.2-0.5-0.5C165,35.6,165.2,35.4,165.5,35.4L165.5,35.4z"/>
		<path class="st1" d="M174.3,39.6c0,0.7,0.6,1.3,1.3,1.3c0.7,0,1.3-0.6,1.3-1.3c0-0.7-0.6-1.3-1.3-1.3
			C174.9,38.2,174.3,38.8,174.3,39.6z"/>
		<path class="st1" d="M164.2,35.9c0,0.7,0.6,1.3,1.3,1.3c0.7,0,1.3-0.6,1.3-1.3c0-0.7-0.6-1.3-1.3-1.3
			C164.8,34.5,164.2,35.1,164.2,35.9z"/>
		<path class="st1" d="M168.5,44.4c0,0.7,0.6,1.3,1.3,1.3c0.7,0,1.3-0.6,1.3-1.3c0-0.7-0.6-1.3-1.3-1.3
			C169.1,43.1,168.5,43.7,168.5,44.4z"/>
		<path class="st1" d="M172.7,47.5l2.2,2.2l3.3,0c0.3,0,0.5,0.2,0.5,0.5c0,0.3-0.2,0.5-0.5,0.5l-3.7,0l-2.5-2.5
			c-0.2-0.2-0.2-0.5,0-0.7C172.2,47.3,172.6,47.3,172.7,47.5L172.7,47.5z"/>
		<path class="st1" d="M177,50.3c0,0.7,0.6,1.3,1.3,1.3s1.3-0.6,1.3-1.3c0-0.7-0.6-1.3-1.3-1.3S177,49.5,177,50.3z"/>
		<path class="st1" d="M171.1,47.9c0,0.7,0.6,1.3,1.3,1.3c0.7,0,1.3-0.6,1.3-1.3c0-0.7-0.6-1.3-1.3-1.3
			C171.7,46.6,171.1,47.2,171.1,47.9z"/>
		<path class="st1" d="M196.4,42.7h-3.6c-0.3,0-0.5-0.2-0.5-0.5c0-0.3,0.2-0.5,0.5-0.5h3.6c0.3,0,0.5,0.2,0.5,0.5
			C196.9,42.5,196.7,42.7,196.4,42.7"/>
		<path class="st1" d="M180.4,45.1h-9.6c-0.3,0-0.5-0.2-0.5-0.5c0-0.3,0.2-0.5,0.5-0.5h9.6c0.3,0,0.5,0.2,0.5,0.5
			C180.9,44.9,180.7,45.1,180.4,45.1"/>
		<path class="st1" d="M169.7,47.4h-3.6c-0.3,0-0.5-0.2-0.5-0.5c0-0.3,0.2-0.5,0.5-0.5h3.6c0.3,0,0.5,0.2,0.5,0.5
			C170.2,47.2,169.9,47.4,169.7,47.4"/>
		<path class="st1" d="M167.3,44.4h-2.6c-0.3,0-0.5-0.2-0.5-0.5c0-0.3,0.2-0.5,0.5-0.5h2.6c0.3,0,0.5,0.2,0.5,0.5
			C167.8,44.1,167.6,44.4,167.3,44.4"/>
		<path class="st1" d="M168.1,38.8h-3.6c-0.3,0-0.5-0.2-0.5-0.5c0-0.3,0.2-0.5,0.5-0.5h3.6c0.3,0,0.5,0.2,0.5,0.5
			C168.6,38.5,168.4,38.8,168.1,38.8"/>
	</g>
</g>
<g>
	<path class="st4" d="M226.3,275.6v1c0,0.2-0.1,0.4-0.3,0.4h-11.3c-0.2,0-0.3-0.2-0.3-0.4v-1c0-0.2,0.1-0.4,0.3-0.4h11.3
		C226.1,275.2,226.3,275.4,226.3,275.6 M226.3,281.9v1c0,0.2-0.1,0.4-0.3,0.4h-11.3c-0.2,0-0.3-0.2-0.3-0.4v-1
		c0-0.2,0.1-0.4,0.3-0.4h11.3C226.1,281.5,226.3,281.6,226.3,281.9z M167.5,275.6v1c0,0.2,0.1,0.4,0.3,0.4h11.3
		c0.2,0,0.3-0.2,0.3-0.4v-1c0-0.2-0.1-0.4-0.3-0.4h-11.3C167.7,275.2,167.5,275.4,167.5,275.6z M167.5,281.9v1
		c0,0.2,0.1,0.4,0.3,0.4h11.3c0.2,0,0.3-0.2,0.3-0.4v-1c0-0.2-0.1-0.4-0.3-0.4h-11.3C167.7,281.5,167.5,281.6,167.5,281.9z
		 M197.4,246.7h-1c-0.2,0-0.4,0.1-0.4,0.3v11.3c0,0.2,0.2,0.3,0.4,0.3h1c0.2,0,0.4-0.1,0.4-0.3V247
		C197.7,246.8,197.6,246.7,197.4,246.7z M191.1,246.7h-1c-0.2,0-0.4,0.1-0.4,0.3v11.3c0,0.2,0.2,0.3,0.4,0.3h1
		c0.2,0,0.4-0.1,0.4-0.3V247C191.5,246.8,191.3,246.7,191.1,246.7z M203.7,246.7h-1c-0.2,0-0.4,0.1-0.4,0.3v11.3
		c0,0.2,0.2,0.3,0.4,0.3h1c0.2,0,0.4-0.1,0.4-0.3V247C204,246.8,203.9,246.7,203.7,246.7z M167.5,269.3v1c0,0.2,0.1,0.4,0.3,0.4
		h11.3c0.2,0,0.3-0.2,0.3-0.4v-1c0-0.2-0.1-0.4-0.3-0.4h-11.3C167.7,268.9,167.5,269.1,167.5,269.3z M197.4,305.4h-1
		c-0.2,0-0.4-0.1-0.4-0.3v-11.3c0-0.2,0.2-0.3,0.4-0.3h1c0.2,0,0.4,0.1,0.4,0.3v11.3C197.7,305.3,197.6,305.4,197.4,305.4z
		 M191.1,305.4h-1c-0.2,0-0.4-0.1-0.4-0.3v-11.3c0-0.2,0.2-0.3,0.4-0.3h1c0.2,0,0.4,0.1,0.4,0.3v11.3
		C191.5,305.3,191.3,305.4,191.1,305.4z M203.7,305.4h-1c-0.2,0-0.4-0.1-0.4-0.3v-11.3c0-0.2,0.2-0.3,0.4-0.3h1
		c0.2,0,0.4,0.1,0.4,0.3v11.3C204,305.3,203.9,305.4,203.7,305.4z M226.3,269.3v1c0,0.2-0.1,0.4-0.3,0.4h-11.3
		c-0.2,0-0.3-0.2-0.3-0.4v-1c0-0.2,0.1-0.4,0.3-0.4h11.3C226.1,268.9,226.3,269.1,226.3,269.3z"/>
	<path class="st4" d="M218.3,293.8V284h-1.7v9.7c0,1.1-0.9,2-2,2h-9.7v1.7h9.7C216.6,297.5,218.3,295.8,218.3,293.8 M204.9,256.4
		h9.7c1.1,0,2,0.9,2,2v9.7h1.7v-9.7c0-2-1.7-3.7-3.7-3.7h-9.7V256.4z M177.2,268.1v-9.7c0-1.1,0.9-2,2-2h9.7v-1.7h-9.7
		c-2,0-3.7,1.7-3.7,3.7v9.7H177.2z M177.2,274.4v-2.8h-1.7v2.8H177.2z M177.2,277.8h-1.7v2.8h1.7V277.8z M192.3,295.8v1.7h2.8v-1.7
		H192.3z M198.6,295.8v1.7h2.8v-1.7H198.6z M218.3,271.5h-1.7v2.8h1.7V271.5z M218.3,277.8h-1.7v2.8h1.7V277.8z M198.6,256.4h2.8
		v-1.7h-2.8V256.4z M195.2,256.4v-1.7h-2.8v1.7H195.2z M188.9,295.8h-9.7c-1.1,0-2-0.9-2-2V284h-1.7v9.7c0,2,1.7,3.7,3.7,3.7h9.7
		V295.8z"/>
	<path class="st4" d="M205.1,289.7V289v-9.2c-0.4-0.2-0.7-0.5-0.7-1c0-0.5,0.5-1.1,1.1-1.1c0.6,0,1.1,0.6,1.1,1.1
		c0,0.5-0.3,0.9-0.7,1v8.9l2-0.7v-0.6l0.7-0.3v1.4l-0.7,0.3l-2,0.7L205.1,289.7z M198,288.5v-11.7l3,1.1v7.3c0.4,0.2,0.7,0.5,0.7,1
		c0,0.5-0.5,1.1-1.1,1.1c-0.6,0-1.1-0.6-1.1-1.1c0-0.5,0.3-0.9,0.7-1v-6.8l-1.6-0.5V288l3.7,1.3c0.2-0.3,0.5-0.4,0.9-0.4
		c0.6,0,1.1,0.5,1.1,1.1c0,0.6-0.5,1.1-1.1,1.1c-0.6,0-1.1-0.5-1.1-1.1L198,288.5z M205.5,274.2v-7.3c-0.4-0.2-0.7-0.5-0.7-1
		s0.5-1.1,1.1-1.1c0.6,0,1.1,0.6,1.1,1.1s-0.3,0.9-0.7,1v6.8l1.6,0.5V267l0.7,0.3v8l-0.7-0.3L205.5,274.2z M203.2,275v-3.6
		c-0.4-0.2-0.7-0.6-0.7-1c0-0.6,0.5-1.1,1.1-1.1c0.6,0,1.1,0.5,1.1,1.1c0,0.5-0.3,0.9-0.7,1v3.1l3.8,1.3l0.7,0.3v9.6l2.4-0.8v-7.7
		c-0.4-0.2-0.7-0.6-0.7-1c0-0.6,0.5-1.1,1.1-1.1c0.6,0,1.1,0.5,1.1,1.1c0,0.5-0.3,0.9-0.7,1v8.2l-3.9,1.4v-10.1L203.2,275z
		 M207.8,266.2v-2.1l-3.7-1.3c-0.2,0.3-0.5,0.4-0.9,0.4c-0.3,0-0.7-0.2-0.9-0.4c-0.2-0.2-0.2-0.4-0.2-0.7c0,0,0,0,0,0
		c0-0.6,0.5-1.1,1.1-1.1c0.6,0,1.1,0.5,1.1,1.1l4.2,1.4v2.1l3.2,1.1v7.5c-0.1,0-0.2,0-0.4,0c-0.1,0-0.2,0-0.4,0v-6.9L207.8,266.2z
		 M198,276.1v-12.5l0.7-0.3l2-0.7l0.7-0.3v0.8v9.2c0.4,0.2,0.7,0.5,0.7,1c0,0.5-0.5,1.1-1.1,1.1c-0.6,0-1.1-0.6-1.1-1.1
		c0-0.5,0.3-0.9,0.7-1v-8.9l-2,0.7v11.4l3.8,1.3l0.7,0.3v0.8v2.9c0.4,0.2,0.7,0.6,0.7,1c0,0.6-0.5,1.1-1.1,1.1
		c-0.6,0-1.1-0.5-1.1-1.1c0-0.5,0.3-0.9,0.7-1v-3.1l-3.8-1.3L198,276.1z M190.5,288.9c0.3,0,0.7,0.2,0.9,0.4l3.7-1.3v-10.2l-1.6,0.5
		v6.8c0.4,0.2,0.7,0.5,0.7,1c0,0.5-0.5,1.1-1.1,1.1c-0.6,0-1.1-0.6-1.1-1.1c0-0.5,0.3-0.9,0.7-1v-7.3l3-1.1v11.7l-4.2,1.4
		c0,0.6-0.5,1.1-1.1,1.1c-0.6,0-1.1-0.5-1.1-1.1C189.4,289.4,189.9,288.9,190.5,288.9z M188,288.7v-8.9c-0.4-0.2-0.7-0.5-0.7-1
		c0-0.5,0.5-1.1,1.1-1.1c0.6,0,1.1,0.6,1.1,1.1c0,0.5-0.3,0.9-0.7,1v9.2v0.8l-0.7-0.3l-2-0.7l-0.7-0.3v-1.4l0.7,0.3v0.6L188,288.7z
		 M192.4,263.2v-0.8l0.7,0.3l2,0.7l0.7,0.3v12.5l-0.7,0.3l-3.8,1.3v3.1c0.4,0.2,0.7,0.6,0.7,1c0,0.6-0.5,1.1-1.1,1.1
		c-0.6,0-1.1-0.5-1.1-1.1c0-0.5,0.3-0.9,0.7-1v-2.9v-0.8l0.7-0.3l3.8-1.3v-11.4l-2-0.7v8.9c0.4,0.2,0.7,0.5,0.7,1
		c0,0.5-0.5,1.1-1.1,1.1c-0.6,0-1.1-0.6-1.1-1.1c0-0.5,0.3-0.9,0.7-1V263.2z M185.3,275.3v-8l0.7-0.3v7.2l1.6-0.5v-6.8
		c-0.4-0.2-0.7-0.5-0.7-1s0.5-1.1,1.1-1.1c0.6,0,1.1,0.6,1.1,1.1s-0.3,0.9-0.7,1v7.3L186,275L185.3,275.3z M179.2,294.9h9.7v-1.1
		c0-0.7,0.6-1.2,1.2-1.2h1c0.7,0,1.2,0.5,1.2,1.2v1.1h2.8v-1.1c0-0.7,0.6-1.2,1.2-1.2h1c0.7,0,1.2,0.5,1.2,1.2v1.1h2.8v-1.1
		c0-0.7,0.6-1.2,1.2-1.2h1c0.7,0,1.2,0.5,1.2,1.2v1.1h9.7c0.6,0,1.1-0.5,1.1-1.1V284h-1.1c-0.7,0-1.2-0.6-1.2-1.2v-1
		c0-0.7,0.5-1.2,1.2-1.2h1.1v-2.8h-1.1c-0.7,0-1.2-0.6-1.2-1.2v-1c0-0.7,0.5-1.2,1.2-1.2h1.1v-2.8h-1.1c-0.7,0-1.2-0.6-1.2-1.2v-1
		c0-0.7,0.5-1.2,1.2-1.2h1.1v-9.7c0-0.6-0.5-1.1-1.1-1.1h-9.7v1.1c0,0.7-0.6,1.2-1.2,1.2h-1c-0.7,0-1.2-0.5-1.2-1.2v-1.1h-2.8v1.1
		c0,0.7-0.6,1.2-1.2,1.2h-1c-0.7,0-1.2-0.5-1.2-1.2v-1.1h-2.8v1.1c0,0.7-0.6,1.2-1.2,1.2h-1c-0.7,0-1.2-0.5-1.2-1.2v-1.1h-9.7
		c-0.6,0-1.1,0.5-1.1,1.1v9.7h1.1c0.7,0,1.2,0.6,1.2,1.2v1c0,0.7-0.5,1.2-1.2,1.2h-1.1v2.8h1.1c0.7,0,1.2,0.6,1.2,1.2v1
		c0,0.7-0.5,1.2-1.2,1.2h-1.1v2.8h1.1c0.7,0,1.2,0.6,1.2,1.2v1c0,0.7-0.5,1.2-1.2,1.2h-1.1v9.7C178.1,294.4,178.6,294.9,179.2,294.9
		z M182.9,284.8l2.4,0.8v-9.6l0.7-0.3l3.8-1.3v-3.1c-0.4-0.2-0.7-0.6-0.7-1c0-0.6,0.5-1.1,1.1-1.1c0.6,0,1.1,0.5,1.1,1.1
		c0,0.5-0.3,0.9-0.7,1v3.6l-4.5,1.6v10.1l-3.9-1.4v-8.2c-0.4-0.2-0.7-0.6-0.7-1c0-0.6,0.5-1.1,1.1-1.1c0.6,0,1.1,0.5,1.1,1.1
		c0,0.5-0.3,0.9-0.7,1V284.8z M182.1,266.8l3.2-1.1v-2.1l4.2-1.4c0-0.6,0.5-1.1,1.1-1.1c0.6,0,1.1,0.5,1.1,1.1c0,0,0,0,0,0
		c0,0.3-0.1,0.5-0.2,0.7c-0.2,0.3-0.5,0.4-0.9,0.4c-0.3,0-0.7-0.2-0.9-0.4l-3.7,1.3v2.1l-3.2,1.1v6.9c-0.1,0-0.2,0-0.4,0
		c-0.1,0-0.2,0-0.4,0V266.8z"/>
</g>
<g>
	<g>
		<g>
			<g>
				<g>
					<path class="st2" d="M197.2,176.3h-6l-1.2-4.9c-0.8-0.3-1.6-0.6-2.4-1l-4.4,2.6l-7-7l1.1-1.1l6.1,6.1l4.1-2.4l0.4,0.2
						c1,0.5,2,0.9,3,1.2l0.4,0.1l1.2,4.6h3.3v-44.9h-3.3l-1.2,4.6l-0.4,0.1c-1,0.3-2,0.7-3,1.2l-0.4,0.2l-4.1-2.4l-5.7,5.7l2.4,4.1
						l-0.2,0.4c-0.5,1-0.9,2-1.2,3l-0.1,0.4l-4.6,1.2v8.1l4.6,1.2l0.1,0.4c0.3,1,0.7,2,1.2,3l-1.4,0.7c-0.5-0.9-0.9-1.8-1.2-2.8
						l-4.9-1.2v-10.5l4.9-1.2c0.3-0.8,0.6-1.6,1-2.4l-2.6-4.4l7.4-7.4l4.4,2.6c0.8-0.4,1.6-0.7,2.4-1l1.2-4.9h6V176.3z"/>
				</g>
				<g>
					<path class="st2" d="M196.5,164c-6.4,0-11.6-5.2-11.6-11.6c0-6.4,5.2-11.6,11.6-11.6v1.5c-5.5,0-10.1,4.5-10.1,10.1
						c0,5.5,4.5,10.1,10.1,10.1V164z"/>
				</g>
			</g>
			<g>
				<path class="st2" d="M202.7,142.3v-1.5c3,0,5.4-2.4,5.4-5.4c0-3-2.4-5.4-5.4-5.4c-3,0-5.4,2.4-5.4,5.4h-1.5c0-3.8,3.1-7,7-7
					c3.8,0,7,3.1,7,7C209.6,139.2,206.5,142.3,202.7,142.3z"/>
			</g>
			<g>
				<path class="st2" d="M212,151.6V150c3,0,5.4-2.4,5.4-5.4c0-2.7-2-5-4.7-5.4l0.2-1.5c3.5,0.4,6.1,3.4,6.1,6.9
					C218.9,148.4,215.8,151.6,212,151.6z"/>
			</g>
			<g>
				<path class="st2" d="M208.1,145.4v-1.5c2.1,0,3.9-1.7,3.9-3.9c0-1.9-1.4-3.5-3.2-3.8l0.3-1.5c2.6,0.4,4.5,2.7,4.5,5.3
					C213.5,142.9,211.1,145.4,208.1,145.4z"/>
			</g>
			<g>
				<path class="st2" d="M215.3,164.5l-0.4-1.5c2-0.6,3.3-2.4,3.3-4.5c0-0.9-0.2-1.7-0.7-2.4l-0.3-0.5l0.4-0.4
					c0.9-1,1.4-2.3,1.4-3.6c0-1.6-0.7-3-1.8-4.1l1-1.2c1.5,1.3,2.4,3.2,2.4,5.2c0,1.5-0.5,3-1.4,4.2c0.4,0.9,0.7,1.8,0.7,2.8
					C219.7,161.3,217.9,163.7,215.3,164.5z"/>
			</g>
			<g>
				<path class="st2" d="M201.9,176.3c-3.4,0-6.2-2.8-6.2-6.2h1.5c0,2.6,2.1,4.6,4.6,4.6c2.6,0,4.6-2.1,4.6-4.6s-2.1-4.6-4.6-4.6
					V164c3.4,0,6.2,2.8,6.2,6.2C208.1,173.6,205.3,176.3,201.9,176.3z"/>
			</g>
			<g>
				<path class="st2" d="M207.3,173.2c-0.3,0-0.6,0-0.9-0.1l0.2-1.5c0.2,0,0.4,0,0.7,0c2.6,0,4.6-2.1,4.6-4.6h1.5
					C213.5,170.5,210.7,173.2,207.3,173.2z"/>
			</g>
			<g>
				<path class="st2" d="M211.2,167.8c-2.6,0-4.6-2.1-4.6-4.6h1.5c0,1.7,1.4,3.1,3.1,3.1s3.1-1.4,3.1-3.1s-1.4-3.1-3.1-3.1v-1.5
					c2.6,0,4.6,2.1,4.6,4.6S213.7,167.8,211.2,167.8z"/>
			</g>
			<g>
				<rect x="200.3" y="169.4" class="st2" width="1.5" height="1.5"/>
			</g>
			<g>
				<rect x="204.2" y="151.6" class="st2" width="1.5" height="1.5"/>
			</g>
			<g>
				<rect x="199.6" y="134.5" class="st2" width="1.5" height="1.5"/>
			</g>
			<g>
				<rect x="212.7" y="146.1" class="st2" width="1.5" height="1.5"/>
			</g>
			<g>
				<rect x="198.8" y="157" class="st2" width="1.5" height="1.5"/>
			</g>
			<g>
				<rect x="213.5" y="155.4" class="st2" width="1.5" height="1.5"/>
			</g>
			<g>
				<path class="st2" d="M194,167.6c-4.1-0.6-7.8-2.9-10.2-6.3l1.3-0.9c2.2,3,5.5,5.1,9.2,5.7L194,167.6z"/>
			</g>
			<g>
				<path class="st2" d="M182.8,159.7c-1.2-2.2-1.8-4.8-1.8-7.3c0-7.6,5.5-14.1,13-15.3l0.2,1.5c-6.8,1.1-11.7,6.9-11.7,13.7
					c0,2.3,0.6,4.6,1.7,6.6L182.8,159.7z"/>
			</g>
		</g>
		<polygon class="st2" points="211.4,168.8 211,166.8 236.2,161.9 233.2,146.1 218,143.3 218.4,141.3 234.9,144.4 238.5,163.5 		"/>
		<circle class="st2" cx="234" cy="145.3" r="3.1"/>
		<circle class="st2" cx="228.8" cy="135.4" r="3.1"/>
		<circle class="st2" cx="228.5" cy="170.8" r="3.1"/>
		<circle class="st2" cx="226.4" cy="154.6" r="3.1"/>
		<circle class="st2" cx="235.9" cy="162.7" r="3.1"/>
		
			<rect x="226.6" y="154.5" transform="matrix(0.9947 -0.103 0.103 0.9947 -15.5817 24.2961)" class="st2" width="2" height="17.2"/>
		<polygon class="st2" points="219.2,156.8 218.9,154.8 225.8,153.7 227.9,134.2 229.9,134.5 227.6,155.4 		"/>
	</g>
</g>
</svg>
