<svg id="Calque_1" data-name="Calque 1" xmlns="http://www.w3.org/2000/svg" viewBox="0 0 724 259.38"><defs><style>.cls-1{fill:none;}.cls-1,.cls-2,.cls-3,.cls-4{stroke:#f3c07f;stroke-miterlimit:10;}.cls-2{fill:#a63a11;}.cls-2,.cls-3,.cls-4{stroke-width:2px;}.cls-3{fill:#f36631;}.cls-4{fill:#d73a11;}</style></defs><line class="cls-1" x1="193.05" y1="79.38" x2="300.22" y2="143.07"/><line class="cls-1" x1="193.05" y1="206.76" x2="300.22" y2="143.07"/><line class="cls-1" x1="193.05" y1="164.3" x2="300.22" y2="143.07"/><line class="cls-1" x1="193.05" y1="121.84" x2="300.22" y2="143.07"/><line class="cls-1" x1="193.05" y1="79.38" x2="85.88" y2="58.15"/><line class="cls-1" x1="193.05" y1="121.84" x2="85.88" y2="100.61"/><line class="cls-1" x1="193.05" y1="164.3" x2="85.88" y2="143.07"/><line class="cls-1" x1="193.05" y1="206.76" x2="85.88" y2="185.53"/><line class="cls-1" x1="85.88" y1="100.61" x2="193.05" y2="79.38"/><line class="cls-1" x1="85.88" y1="143.07" x2="193.05" y2="121.84"/><line class="cls-1" x1="85.88" y1="185.53" x2="193.05" y2="164.3"/><line class="cls-1" x1="85.88" y1="227.99" x2="193.05" y2="206.76"/><line class="cls-1" x1="85.88" y1="227.99" x2="193.05" y2="164.3"/><line class="cls-1" x1="85.88" y1="185.53" x2="193.05" y2="121.84"/><line class="cls-1" x1="85.88" y1="143.07" x2="193.05" y2="79.38"/><line class="cls-1" x1="85.88" y1="227.99" x2="193.05" y2="121.84"/><line class="cls-1" x1="85.88" y1="185.53" x2="193.05" y2="79.38"/><line class="cls-1" x1="85.88" y1="227.99" x2="193.05" y2="79.38"/><line class="cls-1" x1="85.88" y1="58.15" x2="193.05" y2="121.84"/><line class="cls-1" x1="85.88" y1="100.61" x2="193.05" y2="164.3"/><line class="cls-1" x1="85.88" y1="143.07" x2="193.05" y2="206.76"/><line class="cls-1" x1="85.88" y1="100.61" x2="193.05" y2="206.76"/><line class="cls-1" x1="193.05" y1="121.84" x2="85.88" y2="100.61"/><line class="cls-1" x1="85.88" y1="58.15" x2="193.05" y2="164.3"/><line class="cls-1" x1="193.05" y1="206.76" x2="85.88" y2="58.15"/><circle class="cls-2" cx="85.88" cy="58.15" r="14.28"/><circle class="cls-2" cx="85.88" cy="100.61" r="14.28"/><circle class="cls-2" cx="85.88" cy="143.07" r="14.28"/><circle class="cls-2" cx="85.88" cy="185.53" r="14.28"/><circle class="cls-2" cx="85.88" cy="227.99" r="14.28"/><circle class="cls-3" cx="193.05" cy="79.38" r="14.28"/><circle class="cls-3" cx="193.05" cy="121.84" r="14.28"/><circle class="cls-3" cx="193.05" cy="164.3" r="14.28"/><circle class="cls-3" cx="193.05" cy="206.76" r="14.28"/><circle class="cls-4" cx="300.22" cy="143.07" r="14.28"/><path d="M31.3,59.2a1.53,1.53,0,0,0-.37-1.07,2.93,2.93,0,0,0-1.29-.74,5.23,5.23,0,0,1-2-1,2.21,2.21,0,0,1-.71-1.71,2.29,2.29,0,0,1,.79-1.79,2.93,2.93,0,0,1,2-.7,2.74,2.74,0,0,1,2.07.81,2.65,2.65,0,0,1,.76,1.95l0,0H31.29a2,2,0,0,0-.42-1.31,1.63,1.63,0,0,0-2.28-.09,1.52,1.52,0,0,0-.39,1.08,1.32,1.32,0,0,0,.42,1,3.94,3.94,0,0,0,1.38.74,4.48,4.48,0,0,1,1.93,1.07,2.42,2.42,0,0,1,.66,1.76,2.23,2.23,0,0,1-.78,1.8,3,3,0,0,1-2,.67,3.34,3.34,0,0,1-2.16-.73,2.41,2.41,0,0,1-.9-2.07l0,0H28a1.83,1.83,0,0,0,.5,1.41,1.9,1.9,0,0,0,1.31.45,1.53,1.53,0,0,0,1.13-.4A1.46,1.46,0,0,0,31.3,59.2Z"/><path d="M37.44,60.61a2.05,2.05,0,0,1-.7.78,1.78,1.78,0,0,1-1,.27,1.69,1.69,0,0,1-1.45-.72,3.77,3.77,0,0,1-.52-2.22V54.66h1.28v4.07a3.17,3.17,0,0,0,.25,1.49.81.81,0,0,0,.75.45,1.35,1.35,0,0,0,.8-.23,1.61,1.61,0,0,0,.51-.63V54.66h1.29v6.87H37.52Z"/><path d="M43.09,55.75l-.61,0a.92.92,0,0,0-.66.25,1.52,1.52,0,0,0-.4.67v4.9H40.13V54.66H41.3l.1,1a2.21,2.21,0,0,1,.56-.85,1.24,1.24,0,0,1,.81-.31l.26,0a.81.81,0,0,1,.21,0Z"/><path d="M44.69,61.53v-6H43.8v-.92h.89v-.88a2.48,2.48,0,0,1,.53-1.69,1.85,1.85,0,0,1,1.47-.6,1.55,1.55,0,0,1,.37,0,3,3,0,0,1,.44.1l-.13.94-.24,0-.28,0a.73.73,0,0,0-.65.33,1.78,1.78,0,0,0-.22,1v.88h1.2v.92H46v6Z"/><path d="M51.69,61.53c0-.16-.08-.31-.11-.46a3.4,3.4,0,0,1-.06-.46,2.59,2.59,0,0,1-.71.76,1.86,1.86,0,0,1-2.32-.26,2.09,2.09,0,0,1-.5-1.47,1.92,1.92,0,0,1,.67-1.54,2.84,2.84,0,0,1,1.89-.56h1v-.7a1.57,1.57,0,0,0-.27-1,1,1,0,0,0-.8-.35.93.93,0,0,0-.74.32,1.12,1.12,0,0,0-.29.78H48.18l0,0a1.81,1.81,0,0,1,.63-1.42,2.45,2.45,0,0,1,1.72-.62,2.29,2.29,0,0,1,1.65.6,2.25,2.25,0,0,1,.63,1.71V60a6.36,6.36,0,0,0,.05.77,3.66,3.66,0,0,0,.16.73Zm-1.55-.85a1.43,1.43,0,0,0,.82-.26,1.58,1.58,0,0,0,.54-.67V58.34h-1a1.12,1.12,0,0,0-.92.38,1.35,1.35,0,0,0-.33.92,1.27,1.27,0,0,0,.22.76A.76.76,0,0,0,50.14,60.68Z"/><path d="M56.65,60.68a1,1,0,0,0,.81-.37,1.43,1.43,0,0,0,.33-1h1.15l0,0A2.19,2.19,0,0,1,58.3,61a2.3,2.3,0,0,1-1.65.66,2.36,2.36,0,0,1-2-.87A3.51,3.51,0,0,1,54,58.58v-.95a3.52,3.52,0,0,1,.68-2.22,2.36,2.36,0,0,1,2-.88,2.19,2.19,0,0,1,1.69.7A2.4,2.4,0,0,1,59,57l0,0H57.79a1.89,1.89,0,0,0-.32-1.13,1,1,0,0,0-.83-.43,1.07,1.07,0,0,0-1,.6,3.22,3.22,0,0,0-.31,1.51v1a3.21,3.21,0,0,0,.31,1.52A1.07,1.07,0,0,0,56.65,60.68Z"/><path d="M62.59,61.66a2.45,2.45,0,0,1-2-.85,3.22,3.22,0,0,1-.74-2.18v-1a3.37,3.37,0,0,1,.72-2.22,2.28,2.28,0,0,1,1.83-.88,2.17,2.17,0,0,1,1.8.8,3.36,3.36,0,0,1,.63,2.14v.89h-3.7v.27a2.55,2.55,0,0,0,.39,1.47,1.25,1.25,0,0,0,1.11.58,2.25,2.25,0,0,0,.91-.16,2.64,2.64,0,0,0,.73-.5l.4.8a2.3,2.3,0,0,1-.87.61A3.24,3.24,0,0,1,62.59,61.66Zm-.15-6.15a1,1,0,0,0-.89.55,2.81,2.81,0,0,0-.38,1.38h2.42v-.26A2.27,2.27,0,0,0,63.3,56,1,1,0,0,0,62.44,55.51Z"/><path d="M142.6,17.94h-4.22V22h4.89v1.2H136.8V11.86h6.43v1.2h-4.85v3.68h4.22Z"/><path d="M148,16.29h0l2-4.43h1.86l-3,5.63L152,23.23h-1.9L148,18.68h0l-2.09,4.55H144l3-5.74-3-5.63H146Z"/><path d="M159.24,17.94H155V22h4.89v1.2h-6.47V11.86h6.43v1.2H155v3.68h4.22Z"/><path d="M163.39,11.86l2.66,9.28h0l2.67-9.28h2V23.23h-1.57V18.86l.14-4.37h0l-2.74,8.75h-1l-2.73-8.74h0l.15,4.36v4.37h-1.57V11.86Z"/><path d="M174.56,18.73v4.5H173V11.86h3.73a3.31,3.31,0,0,1,2.5.94,3.47,3.47,0,0,1,.91,2.49,3.48,3.48,0,0,1-.91,2.5,3.31,3.31,0,0,1-2.5.94Zm0-1.2h2.15a1.58,1.58,0,0,0,1.36-.63,2.6,2.6,0,0,0,.46-1.59,2.65,2.65,0,0,0-.46-1.61,1.55,1.55,0,0,0-1.36-.64h-2.15Z"/><path d="M183.4,22h4.44v1.2h-6V11.86h1.58Z"/><path d="M195.05,17.94h-4.22V22h4.9v1.2h-6.48V11.86h6.43v1.2h-4.85v3.68h4.22Z"/><path d="M204.51,23.25h-1.58V13.44l-2.23.15v-1l3.81-.72Z"/><path d="M32.25,104H31l-3.5-6.88,0,0V104H26.14V94.75h1.29l3.5,6.85h0V94.75h1.28Z"/><path d="M33.64,100.12a3.4,3.4,0,0,1,.72-2.24,2.36,2.36,0,0,1,2-.89,2.41,2.41,0,0,1,2,.88,3.45,3.45,0,0,1,.72,2.25V101a3.41,3.41,0,0,1-.72,2.25,2.63,2.63,0,0,1-3.91,0,3.41,3.41,0,0,1-.72-2.25Zm1.29.87a3.1,3.1,0,0,0,.34,1.55,1.13,1.13,0,0,0,1,.6,1.11,1.11,0,0,0,1-.6A3.09,3.09,0,0,0,37.7,101v-.88a3.06,3.06,0,0,0-.35-1.53,1.11,1.11,0,0,0-1-.61,1.13,1.13,0,0,0-1,.6,3.11,3.11,0,0,0-.34,1.54Z"/><path d="M41.39,97.12l.07.93a2,2,0,0,1,.71-.78,1.76,1.76,0,0,1,1-.28,1.55,1.55,0,0,1,1,.32,1.94,1.94,0,0,1,.61,1,2.35,2.35,0,0,1,.71-.93A1.74,1.74,0,0,1,46.53,97a1.61,1.61,0,0,1,1.38.72,3.83,3.83,0,0,1,.5,2.2V104H47.12V99.9a3,3,0,0,0-.26-1.48A.84.84,0,0,0,46.1,98a1,1,0,0,0-.74.33,2.13,2.13,0,0,0-.43.88s0,0,0,.17,0,.24,0,.3V104H43.67V99.9a2.92,2.92,0,0,0-.27-1.46.82.82,0,0,0-.77-.44,1.08,1.08,0,0,0-.69.22,1.5,1.5,0,0,0-.45.63V104H40.21V97.12Z"/><path d="M55,101.13a3.7,3.7,0,0,1-.59,2.18,2,2,0,0,1-1.67.81,1.8,1.8,0,0,1-.94-.24,2,2,0,0,1-.68-.7L51,104H49.89v-9.9h1.29v3.75a2,2,0,0,1,.65-.63,1.79,1.79,0,0,1,.88-.22,1.91,1.91,0,0,1,1.68.88,4.09,4.09,0,0,1,.59,2.32Zm-1.29-.94a3.43,3.43,0,0,0-.31-1.59,1,1,0,0,0-1-.6,1.11,1.11,0,0,0-.74.25,1.66,1.66,0,0,0-.47.69v3.3a1.41,1.41,0,0,0,.48.65,1.15,1.15,0,0,0,.74.23,1.07,1.07,0,0,0,1-.53,3,3,0,0,0,.3-1.46Z"/><path d="M59.17,98.21l-.61,0a1,1,0,0,0-.66.24,1.52,1.52,0,0,0-.4.68V104H56.21V97.12h1.17l.1,1A2.21,2.21,0,0,1,58,97.3a1.22,1.22,0,0,1,.81-.31l.26,0a.81.81,0,0,1,.21,0Z"/><path d="M62.59,104.12a2.45,2.45,0,0,1-2-.85,3.22,3.22,0,0,1-.74-2.18v-1a3.37,3.37,0,0,1,.72-2.22A2.25,2.25,0,0,1,62.44,97a2.17,2.17,0,0,1,1.8.8,3.34,3.34,0,0,1,.63,2.14v.89h-3.7v.27a2.55,2.55,0,0,0,.39,1.47,1.25,1.25,0,0,0,1.11.58,2.25,2.25,0,0,0,.91-.16,2.64,2.64,0,0,0,.73-.5l.4.8a2.3,2.3,0,0,1-.87.61A3.24,3.24,0,0,1,62.59,104.12ZM62.44,98a1,1,0,0,0-.89.55,2.81,2.81,0,0,0-.38,1.38h2.42v-.26a2.27,2.27,0,0,0-.29-1.2A1,1,0,0,0,62.44,98Z"/><path d="M8.28,138.18H5.91v8.27H4.62v-8.27H2.26v-1h6Z"/><path d="M10.71,144.08l.09.45h0l1.32-4.95h1.4l-2.4,7.93a3.6,3.6,0,0,1-.66,1.21,1.42,1.42,0,0,1-1.18.5l-.34,0-.36-.08.14-1,.19,0h.19a.66.66,0,0,0,.59-.32,2.31,2.31,0,0,0,.34-.76l.23-.69-2.12-6.84h1.4Z"/><path d="M19.52,143.59a3.58,3.58,0,0,1-.6,2.17,1.92,1.92,0,0,1-1.65.82,1.83,1.83,0,0,1-.89-.2,1.85,1.85,0,0,1-.65-.57v3.28H14.44v-9.51h1.15l.08.79a2,2,0,0,1,.67-.68,1.72,1.72,0,0,1,.91-.24,1.89,1.89,0,0,1,1.67.9,4.28,4.28,0,0,1,.6,2.39Zm-1.29-.85a3.62,3.62,0,0,0-.33-1.65,1.08,1.08,0,0,0-1-.63,1.06,1.06,0,0,0-.7.23,1.64,1.64,0,0,0-.47.64v3.47a1.42,1.42,0,0,0,.46.6,1.29,1.29,0,0,0,.72.2,1.06,1.06,0,0,0,1-.55,2.84,2.84,0,0,0,.33-1.46Z"/><path d="M23.24,146.58a2.45,2.45,0,0,1-2-.85,3.22,3.22,0,0,1-.74-2.18v-1a3.37,3.37,0,0,1,.72-2.22,2.25,2.25,0,0,1,1.83-.88,2.17,2.17,0,0,1,1.8.8,3.34,3.34,0,0,1,.63,2.14v.89h-3.7v.27a2.57,2.57,0,0,0,.39,1.47,1.25,1.25,0,0,0,1.11.58,2.08,2.08,0,0,0,.91-.17,2.4,2.4,0,0,0,.73-.49l.4.8a2.34,2.34,0,0,1-.86.61A3.33,3.33,0,0,1,23.24,146.58Zm-.15-6.15a1,1,0,0,0-.89.55,2.81,2.81,0,0,0-.38,1.38h2.42v-.26a2.27,2.27,0,0,0-.29-1.2A1,1,0,0,0,23.09,140.43Z"/><path d="M29.25,143.1a5.23,5.23,0,0,1,.59-2.65,1.88,1.88,0,0,1,1.68-1,1.67,1.67,0,0,1,.86.22,2,2,0,0,1,.65.62v-3.74h1.28v9.9H33.19l-.1-.79a2,2,0,0,1-.67.69,1.81,1.81,0,0,1-.91.23,1.88,1.88,0,0,1-1.67-.91,4.47,4.47,0,0,1-.59-2.44Zm1.29.13a3.92,3.92,0,0,0,.31,1.72,1,1,0,0,0,1,.63,1.16,1.16,0,0,0,.72-.22,1.84,1.84,0,0,0,.48-.65v-3.33a2,2,0,0,0-.48-.68,1.08,1.08,0,0,0-.7-.24,1,1,0,0,0-1,.73,4.66,4.66,0,0,0-.32,1.91Z"/><path d="M38.29,146.58a2.45,2.45,0,0,1-2-.85,3.22,3.22,0,0,1-.74-2.18v-1a3.37,3.37,0,0,1,.72-2.22,2.25,2.25,0,0,1,1.83-.88,2.17,2.17,0,0,1,1.8.8,3.34,3.34,0,0,1,.63,2.14v.89h-3.7v.27a2.57,2.57,0,0,0,.39,1.47,1.25,1.25,0,0,0,1.11.58,2.16,2.16,0,0,0,.92-.17,2.49,2.49,0,0,0,.72-.49l.41.8a2.47,2.47,0,0,1-.87.61A3.33,3.33,0,0,1,38.29,146.58Zm-.15-6.15a1,1,0,0,0-.89.55,2.81,2.81,0,0,0-.38,1.38h2.42v-.26a2.27,2.27,0,0,0-.29-1.2A1,1,0,0,0,38.14,140.43Z"/><path d="M49.63,143.59a3.65,3.65,0,0,1-.59,2.17,1.94,1.94,0,0,1-1.67.82,1.8,1.8,0,0,1-.94-.24,2,2,0,0,1-.68-.7l-.09.81H44.54v-9.9h1.29v3.75a2,2,0,0,1,.65-.63,1.77,1.77,0,0,1,.88-.22,1.91,1.91,0,0,1,1.68.88,4.09,4.09,0,0,1,.59,2.32Zm-1.29-.94a3.43,3.43,0,0,0-.31-1.59,1,1,0,0,0-1-.6,1.11,1.11,0,0,0-.74.25,1.66,1.66,0,0,0-.47.69v3.3a1.41,1.41,0,0,0,.48.65,1.15,1.15,0,0,0,.74.23,1.06,1.06,0,0,0,1-.54,3,3,0,0,0,.3-1.45Z"/><path d="M52.23,137.78H50.94v-1.23h1.29Zm0,8.67H50.94v-6.87h1.29Z"/><path d="M56.27,146.58a2.45,2.45,0,0,1-2-.85,3.22,3.22,0,0,1-.74-2.18v-1a3.37,3.37,0,0,1,.72-2.22,2.26,2.26,0,0,1,1.84-.88,2.16,2.16,0,0,1,1.79.8,3.34,3.34,0,0,1,.63,2.14v.89H54.86v.27a2.57,2.57,0,0,0,.39,1.47,1.25,1.25,0,0,0,1.1.58,2.16,2.16,0,0,0,.92-.17,2.49,2.49,0,0,0,.72-.49l.41.8a2.47,2.47,0,0,1-.87.61A3.29,3.29,0,0,1,56.27,146.58Zm-.14-6.15a1,1,0,0,0-.9.55,2.81,2.81,0,0,0-.37,1.38h2.41v-.26a2.18,2.18,0,0,0-.29-1.2A.94.94,0,0,0,56.13,140.43Z"/><path d="M60.86,139.58l.07,1a2.42,2.42,0,0,1,.72-.85,1.75,1.75,0,0,1,1-.3,1.65,1.65,0,0,1,1.41.67,3.46,3.46,0,0,1,.5,2.07v4.26H63.26V142.2a2.48,2.48,0,0,0-.27-1.35.94.94,0,0,0-.83-.39,1.12,1.12,0,0,0-.7.24,1.78,1.78,0,0,0-.49.66v5.09H59.68v-6.87Z"/><path d="M321.79,142.79v3.66H320.5v-9.24h3a2.65,2.65,0,0,1,2,.77,2.78,2.78,0,0,1,.73,2,2.83,2.83,0,0,1-.73,2,2.68,2.68,0,0,1-2,.76Zm0-1h1.75a1.28,1.28,0,0,0,1.1-.51A2.12,2.12,0,0,0,325,140a2.18,2.18,0,0,0-.37-1.31,1.27,1.27,0,0,0-1.1-.52h-1.75Z"/><path d="M330.49,140.67l-.61,0a1,1,0,0,0-.66.24,1.52,1.52,0,0,0-.4.68v4.9h-1.29v-6.87h1.17l.1,1a2.21,2.21,0,0,1,.56-.85,1.22,1.22,0,0,1,.81-.31l.26,0a.81.81,0,0,1,.21.05Z"/><path d="M332.92,137.78h-1.29v-1.23h1.29Zm0,8.67h-1.29v-6.87h1.29Z"/><path d="M336.54,142.09h0l1.08-2.51h1.48L337.3,143l1.89,3.48h-1.47l-1.12-2.59h0l-1.13,2.59H334l1.88-3.48L334,139.58h1.46Z"/><path d="M50.39,184.61H47v3.32h4v1H45.67v-9.24H50.9v1H47v3h3.43Zm-1.82-7.29H50v0L48.51,179h-1Z"/><path d="M53.62,180.33V182h1.07V183H53.62v4.09a1.34,1.34,0,0,0,.16.76.47.47,0,0,0,.41.22,1.23,1.23,0,0,0,.28,0l.31,0,.13.88a2.72,2.72,0,0,1-.48.15,3.43,3.43,0,0,1-.56,0,1.4,1.4,0,0,1-1.13-.48,2.31,2.31,0,0,1-.4-1.51V183h-.9V182h.9v-1.71Z"/><path d="M59.46,188.91a4.48,4.48,0,0,1-.12-.46,2.31,2.31,0,0,1-.05-.46,2.49,2.49,0,0,1-.72.76,1.86,1.86,0,0,1-2.32-.26,2.09,2.09,0,0,1-.49-1.47,1.89,1.89,0,0,1,.67-1.54,2.8,2.8,0,0,1,1.88-.56h1v-.71a1.55,1.55,0,0,0-.28-1,1,1,0,0,0-.8-.35,1,1,0,0,0-.74.32,1.12,1.12,0,0,0-.28.78H55.94l0,0a1.79,1.79,0,0,1,.64-1.42,2.42,2.42,0,0,1,1.72-.62,2.29,2.29,0,0,1,1.64.6,2.22,2.22,0,0,1,.64,1.71v3.19a6.4,6.4,0,0,0,0,.77,5.93,5.93,0,0,0,.16.73Zm-1.56-.85a1.4,1.4,0,0,0,.83-.27,1.65,1.65,0,0,0,.54-.66v-1.42h-1a1.17,1.17,0,0,0-.92.38,1.39,1.39,0,0,0-.32.93,1.2,1.2,0,0,0,.22.76A.75.75,0,0,0,57.9,188.06Z"/><path d="M63.67,180.33V182h1.07V183H63.67v4.09a1.34,1.34,0,0,0,.16.76.47.47,0,0,0,.41.22,1.27,1.27,0,0,0,.28,0l.31,0,.13.88a2.72,2.72,0,0,1-.48.15,3.43,3.43,0,0,1-.56,0,1.39,1.39,0,0,1-1.13-.48,2.31,2.31,0,0,1-.41-1.51V183h-.89V182h.89v-1.71Z"/><path d="M6.06,230.39H9.67v1H4.77v-9.24H6.06Z"/><path d="M10.4,227.5a3.5,3.5,0,0,1,.71-2.25,2.41,2.41,0,0,1,2-.88,2.39,2.39,0,0,1,1.95.88,3.45,3.45,0,0,1,.72,2.25v.88a3.46,3.46,0,0,1-.71,2.25,2.4,2.4,0,0,1-1.95.87,2.41,2.41,0,0,1-2-.87,3.46,3.46,0,0,1-.71-2.25Zm1.29.87a3.1,3.1,0,0,0,.34,1.55,1.2,1.2,0,0,0,2.08,0,3.1,3.1,0,0,0,.34-1.55v-.88a3.07,3.07,0,0,0-.34-1.53A1.2,1.2,0,0,0,12,226a3.11,3.11,0,0,0-.34,1.54Z"/><path d="M19.35,230.52a1,1,0,0,0,.82-.37,1.44,1.44,0,0,0,.33-1h1.15v0a2.11,2.11,0,0,1-.65,1.63,2.28,2.28,0,0,1-1.66.67,2.34,2.34,0,0,1-2-.87,3.45,3.45,0,0,1-.68-2.21v-.95a3.46,3.46,0,0,1,.68-2.22,2.32,2.32,0,0,1,2-.88,2.2,2.2,0,0,1,1.69.7,2.48,2.48,0,0,1,.63,1.8l0,0H20.5a1.87,1.87,0,0,0-.32-1.13,1,1,0,0,0-.83-.43,1.09,1.09,0,0,0-1.05.6,3.36,3.36,0,0,0-.3,1.51v.95a3.34,3.34,0,0,0,.3,1.52A1.09,1.09,0,0,0,19.35,230.52Z"/><path d="M26.31,231.37a4.35,4.35,0,0,1-.11-.46,3.4,3.4,0,0,1-.06-.46,2.49,2.49,0,0,1-.72.76A1.86,1.86,0,0,1,23.1,231a2.09,2.09,0,0,1-.49-1.47,1.89,1.89,0,0,1,.67-1.54,2.81,2.81,0,0,1,1.88-.56h1v-.71a1.49,1.49,0,0,0-.28-1,1.05,1.05,0,0,0-1.54,0,1.12,1.12,0,0,0-.28.78H22.79l0,0a1.82,1.82,0,0,1,.64-1.42,2.44,2.44,0,0,1,1.72-.62,2.29,2.29,0,0,1,1.65.6,2.25,2.25,0,0,1,.63,1.71v3.19a4.82,4.82,0,0,0,.05.77,4.5,4.5,0,0,0,.15.73Zm-1.55-.85a1.37,1.37,0,0,0,.82-.27,1.57,1.57,0,0,0,.54-.66v-1.42h-1a1.13,1.13,0,0,0-.91.38,1.39,1.39,0,0,0-.33.93,1.22,1.22,0,0,0,.22.76A.76.76,0,0,0,24.76,230.52Z"/><path d="M30.25,231.37H29v-9.91h1.29Z"/><path d="M33.18,222.7H31.89v-1.24h1.29Zm0,8.67H31.89V224.5h1.29Z"/><path d="M37.94,229.65a1,1,0,0,0-.26-.68,3.52,3.52,0,0,0-1-.6,5.3,5.3,0,0,1-1.57-.88,1.59,1.59,0,0,1-.51-1.21,1.73,1.73,0,0,1,.63-1.35,2.68,2.68,0,0,1,3.33,0,1.93,1.93,0,0,1,.6,1.5v0H37.91a1.31,1.31,0,0,0-.28-.84.92.92,0,0,0-.76-.35,1,1,0,0,0-.76.28.87.87,0,0,0-.27.64.81.81,0,0,0,.24.62,3.86,3.86,0,0,0,1,.59,4.79,4.79,0,0,1,1.6.88,1.65,1.65,0,0,1,.52,1.26,1.72,1.72,0,0,1-.64,1.39,2.65,2.65,0,0,1-1.71.53,2.45,2.45,0,0,1-1.79-.64,2,2,0,0,1-.62-1.51v0h1.2a1.27,1.27,0,0,0,.37,1,1.24,1.24,0,0,0,.85.3,1.14,1.14,0,0,0,.79-.26A.84.84,0,0,0,37.94,229.65Z"/><path d="M43.89,231.37c0-.16-.08-.31-.11-.46a3.4,3.4,0,0,1-.06-.46,2.49,2.49,0,0,1-.72.76,1.66,1.66,0,0,1-1,.29,1.71,1.71,0,0,1-1.36-.55,2.09,2.09,0,0,1-.5-1.47,1.92,1.92,0,0,1,.67-1.54,2.83,2.83,0,0,1,1.88-.56h1v-.71a1.49,1.49,0,0,0-.28-1,1,1,0,0,0-.79-.35,1,1,0,0,0-.75.32,1.16,1.16,0,0,0-.28.78H40.38l0,0A1.81,1.81,0,0,1,41,225a2.45,2.45,0,0,1,1.72-.62,2.29,2.29,0,0,1,1.65.6,2.25,2.25,0,0,1,.63,1.71v3.19a6.36,6.36,0,0,0,0,.77,4.5,4.5,0,0,0,.15.73Zm-1.55-.85a1.37,1.37,0,0,0,.82-.27,1.5,1.5,0,0,0,.54-.66v-1.42h-1a1.16,1.16,0,0,0-.92.38,1.39,1.39,0,0,0-.33.93,1.29,1.29,0,0,0,.22.76A.76.76,0,0,0,42.34,230.52Z"/><path d="M48.1,222.79v1.71h1.07v.92H48.1v4.09a1.34,1.34,0,0,0,.16.76.48.48,0,0,0,.41.22,1.37,1.37,0,0,0,.29,0l.3-.05.14.88a3.14,3.14,0,0,1-.49.15,3.31,3.31,0,0,1-.55.05,1.41,1.41,0,0,1-1.14-.48,2.31,2.31,0,0,1-.4-1.51v-4.09h-.9v-.92h.9v-1.71Z"/><path d="M51.82,222.7H50.53v-1.24h1.29Zm0,8.67H50.53V224.5h1.29Z"/><path d="M53.12,227.5a3.45,3.45,0,0,1,.72-2.25,2.61,2.61,0,0,1,3.91,0,3.45,3.45,0,0,1,.72,2.25v.88a3.41,3.41,0,0,1-.72,2.25,2.63,2.63,0,0,1-3.91,0,3.41,3.41,0,0,1-.72-2.25Zm1.29.87a3.21,3.21,0,0,0,.34,1.55,1.13,1.13,0,0,0,1,.6,1.11,1.11,0,0,0,1-.6,3.09,3.09,0,0,0,.35-1.55v-.88a3.06,3.06,0,0,0-.35-1.53,1.1,1.1,0,0,0-1-.61,1.13,1.13,0,0,0-1,.6,3.22,3.22,0,0,0-.34,1.54Z"/><path d="M60.86,224.5l.07,1a2.47,2.47,0,0,1,.72-.84,1.75,1.75,0,0,1,1-.3,1.65,1.65,0,0,1,1.41.67,3.46,3.46,0,0,1,.5,2.07v4.26H63.26v-4.25a2.48,2.48,0,0,0-.27-1.35.94.94,0,0,0-.83-.39,1.12,1.12,0,0,0-.7.24,1.78,1.78,0,0,0-.49.66v5.09H59.68V224.5Z"/><line class="cls-1" x1="562.24" y1="79.38" x2="669.41" y2="143.07"/><line class="cls-1" x1="562.24" y1="206.76" x2="669.41" y2="143.07"/><line class="cls-1" x1="562.24" y1="164.3" x2="669.41" y2="143.07"/><line class="cls-1" x1="562.24" y1="121.84" x2="669.41" y2="143.07"/><line class="cls-1" x1="562.24" y1="79.38" x2="455.07" y2="58.15"/><line class="cls-1" x1="562.24" y1="121.84" x2="455.07" y2="100.61"/><line class="cls-1" x1="562.24" y1="164.3" x2="455.07" y2="143.07"/><line class="cls-1" x1="562.24" y1="206.76" x2="455.07" y2="185.53"/><line class="cls-1" x1="455.07" y1="100.61" x2="562.24" y2="79.38"/><line class="cls-1" x1="455.07" y1="143.07" x2="562.24" y2="121.84"/><line class="cls-1" x1="455.07" y1="185.53" x2="562.24" y2="164.3"/><line class="cls-1" x1="455.07" y1="227.99" x2="562.24" y2="206.76"/><line class="cls-1" x1="455.07" y1="227.99" x2="562.24" y2="164.3"/><line class="cls-1" x1="455.07" y1="185.53" x2="562.24" y2="121.84"/><line class="cls-1" x1="455.07" y1="143.07" x2="562.24" y2="79.38"/><line class="cls-1" x1="455.07" y1="227.99" x2="562.24" y2="121.84"/><line class="cls-1" x1="455.07" y1="185.53" x2="562.24" y2="79.38"/><line class="cls-1" x1="455.07" y1="227.99" x2="562.24" y2="79.38"/><line class="cls-1" x1="455.07" y1="58.15" x2="562.24" y2="121.84"/><line class="cls-1" x1="455.07" y1="100.61" x2="562.24" y2="164.3"/><line class="cls-1" x1="455.07" y1="143.07" x2="562.24" y2="206.76"/><line class="cls-1" x1="455.07" y1="100.61" x2="562.24" y2="206.76"/><line class="cls-1" x1="562.24" y1="121.84" x2="455.07" y2="100.61"/><line class="cls-1" x1="455.07" y1="58.15" x2="562.24" y2="164.3"/><line class="cls-1" x1="562.24" y1="206.76" x2="455.07" y2="58.15"/><circle class="cls-2" cx="455.07" cy="58.15" r="14.28"/><circle class="cls-2" cx="455.07" cy="100.61" r="14.28"/><circle class="cls-2" cx="455.07" cy="143.07" r="14.28"/><circle class="cls-2" cx="455.07" cy="185.53" r="14.28"/><circle class="cls-2" cx="455.07" cy="227.99" r="14.28"/><circle class="cls-3" cx="562.24" cy="79.38" r="14.28"/><circle class="cls-3" cx="562.24" cy="121.84" r="14.28"/><circle class="cls-3" cx="562.24" cy="164.3" r="14.28"/><circle class="cls-3" cx="562.24" cy="206.76" r="14.28"/><circle class="cls-4" cx="669.41" cy="143.07" r="14.28"/><path d="M376.89,53.26h-2.37v8.27h-1.29V53.26h-2.36v-1h6Z"/><path d="M379.7,61.66a2.47,2.47,0,0,1-2-.85,3.21,3.21,0,0,1-.73-2.18v-1a3.37,3.37,0,0,1,.72-2.22,2.28,2.28,0,0,1,1.83-.88,2.17,2.17,0,0,1,1.8.8,3.42,3.42,0,0,1,.62,2.14v.89h-3.69v.27a2.55,2.55,0,0,0,.39,1.47,1.25,1.25,0,0,0,1.11.58,2.28,2.28,0,0,0,.91-.16,2.64,2.64,0,0,0,.73-.5l.4.8a2.3,2.3,0,0,1-.87.61A3.24,3.24,0,0,1,379.7,61.66Zm-.15-6.15a1,1,0,0,0-.9.55,2.81,2.81,0,0,0-.37,1.38h2.42v-.26a2.27,2.27,0,0,0-.29-1.2A1,1,0,0,0,379.55,55.51Z"/><path d="M384.29,54.66l.07.93a2.07,2.07,0,0,1,.71-.78,1.89,1.89,0,0,1,1-.28,1.53,1.53,0,0,1,1,.32,2,2,0,0,1,.62.95,2.26,2.26,0,0,1,.71-.93,1.74,1.74,0,0,1,1.05-.34,1.58,1.58,0,0,1,1.38.72,3.82,3.82,0,0,1,.51,2.2v4.08H390V57.44a3.1,3.1,0,0,0-.26-1.48.84.84,0,0,0-.77-.42.93.93,0,0,0-.73.33,2,2,0,0,0-.43.88s0,0,0,.17,0,.24,0,.3v4.31h-1.28V57.44a2.92,2.92,0,0,0-.27-1.46.85.85,0,0,0-.77-.44,1.09,1.09,0,0,0-.7.22,1.41,1.41,0,0,0-.44.63v5.14h-1.28V54.66Z"/><path d="M397.88,58.67a3.58,3.58,0,0,1-.6,2.17,1.93,1.93,0,0,1-1.66.82,1.79,1.79,0,0,1-.88-.2,1.85,1.85,0,0,1-.65-.57v3.28H392.8V54.66H394l.08.79a2,2,0,0,1,.67-.68,1.69,1.69,0,0,1,.91-.24,1.9,1.9,0,0,1,1.67.9,4.28,4.28,0,0,1,.6,2.39Zm-1.29-.85a3.48,3.48,0,0,0-.34-1.65,1.06,1.06,0,0,0-1-.63,1.08,1.08,0,0,0-.71.23,1.62,1.62,0,0,0-.46.64v3.47a1.34,1.34,0,0,0,.46.6,1.18,1.18,0,0,0,.72.2,1.07,1.07,0,0,0,1-.55,2.84,2.84,0,0,0,.33-1.46Z"/><path d="M401.59,61.66a2.46,2.46,0,0,1-2-.85,3.21,3.21,0,0,1-.73-2.18v-1a3.37,3.37,0,0,1,.72-2.22,2.28,2.28,0,0,1,1.83-.88,2.17,2.17,0,0,1,1.8.8,3.42,3.42,0,0,1,.62,2.14v.89h-3.69v.27a2.55,2.55,0,0,0,.39,1.47,1.25,1.25,0,0,0,1.11.58,2.28,2.28,0,0,0,.91-.16,2.46,2.46,0,0,0,.72-.5l.41.8a2.38,2.38,0,0,1-.87.61A3.26,3.26,0,0,1,401.59,61.66Zm-.14-6.15a1,1,0,0,0-.9.55,2.92,2.92,0,0,0-.37,1.38h2.42v-.26a2.27,2.27,0,0,0-.29-1.2A1,1,0,0,0,401.45,55.51Zm.38-3.52h1.43l0,0-1.51,1.65h-1Z"/><path d="M408,55.75l-.6,0a.89.89,0,0,0-.66.25,1.53,1.53,0,0,0-.41.67v4.9H405V54.66h1.17l.1,1a2.21,2.21,0,0,1,.56-.85,1.2,1.2,0,0,1,.81-.31l.26,0a.81.81,0,0,1,.21,0Z"/><path d="M412.53,61.53c0-.16-.08-.31-.11-.46a3.4,3.4,0,0,1-.06-.46,2.49,2.49,0,0,1-.72.76,1.67,1.67,0,0,1-1,.29,1.74,1.74,0,0,1-1.36-.55,2.14,2.14,0,0,1-.49-1.47,1.89,1.89,0,0,1,.67-1.54,2.81,2.81,0,0,1,1.88-.56h1v-.7a1.51,1.51,0,0,0-.28-1,1,1,0,0,0-.79-.35,1,1,0,0,0-.75.32,1.12,1.12,0,0,0-.28.78H409l0,0a1.78,1.78,0,0,1,.63-1.42,2.45,2.45,0,0,1,1.72-.62,2.29,2.29,0,0,1,1.65.6,2.25,2.25,0,0,1,.63,1.71V60a6.36,6.36,0,0,0,.05.77,4.5,4.5,0,0,0,.15.73ZM411,60.68a1.43,1.43,0,0,0,.82-.26,1.58,1.58,0,0,0,.54-.67V58.34h-1a1.1,1.1,0,0,0-.91.38,1.35,1.35,0,0,0-.33.92,1.2,1.2,0,0,0,.22.76A.76.76,0,0,0,411,60.68Z"/><path d="M416.74,53v1.71h1.07v.92h-1.07v4.09a1.34,1.34,0,0,0,.16.76.47.47,0,0,0,.41.22,1.23,1.23,0,0,0,.28,0l.31-.05.14.88a3.14,3.14,0,0,1-.49.15,3.43,3.43,0,0,1-.56,0,1.4,1.4,0,0,1-1.13-.48,2.31,2.31,0,0,1-.4-1.51V55.58h-.9v-.92h.9V53Z"/><path d="M422.71,60.61a2.05,2.05,0,0,1-.7.78,1.8,1.8,0,0,1-1,.27,1.68,1.68,0,0,1-1.45-.72,3.77,3.77,0,0,1-.52-2.22V54.66h1.28v4.07a3.17,3.17,0,0,0,.25,1.49.81.81,0,0,0,.75.45,1.35,1.35,0,0,0,.8-.23,1.61,1.61,0,0,0,.51-.63V54.66h1.29v6.87h-1.15Z"/><path d="M428.36,55.75l-.61,0a.92.92,0,0,0-.66.25,1.43,1.43,0,0,0-.4.67v4.9H425.4V54.66h1.17l.1,1a2.21,2.21,0,0,1,.56-.85,1.22,1.22,0,0,1,.81-.31l.26,0a.81.81,0,0,1,.21,0Z"/><path d="M431.78,61.66a2.45,2.45,0,0,1-2-.85,3.22,3.22,0,0,1-.74-2.18v-1a3.37,3.37,0,0,1,.72-2.22,2.28,2.28,0,0,1,1.83-.88,2.17,2.17,0,0,1,1.8.8,3.36,3.36,0,0,1,.63,2.14v.89h-3.7v.27a2.55,2.55,0,0,0,.39,1.47,1.25,1.25,0,0,0,1.11.58,2.25,2.25,0,0,0,.91-.16,2.64,2.64,0,0,0,.73-.5l.4.8a2.34,2.34,0,0,1-.86.61A3.33,3.33,0,0,1,431.78,61.66Zm-.15-6.15a1,1,0,0,0-.89.55,2.81,2.81,0,0,0-.38,1.38h2.42v-.26a2.27,2.27,0,0,0-.29-1.2A1,1,0,0,0,431.63,55.51Z"/><path d="M411.38,100.33V104h-1.29V94.75h3a2.64,2.64,0,0,1,2,.77,2.79,2.79,0,0,1,.74,2,2.83,2.83,0,0,1-.74,2,2.67,2.67,0,0,1-2,.76Zm0-1h1.74a1.29,1.29,0,0,0,1.11-.51,2.12,2.12,0,0,0,.37-1.29,2.18,2.18,0,0,0-.37-1.31,1.3,1.3,0,0,0-1.11-.52h-1.74Z"/><path d="M418.49,104H417.2v-9.9h1.29Z"/><path d="M423.67,103.07a2,2,0,0,1-.7.78,1.77,1.77,0,0,1-1,.27,1.7,1.7,0,0,1-1.46-.72,3.84,3.84,0,0,1-.52-2.22V97.12h1.28v4.07a3.3,3.3,0,0,0,.25,1.49.81.81,0,0,0,.76.44,1.34,1.34,0,0,0,.79-.22,1.55,1.55,0,0,0,.52-.63V97.12h1.28V104h-1.15Z"/><path d="M427.73,95.32h-1.28V94.09h1.28Zm0,8.67h-1.28V97.12h1.28Z"/><path d="M431.78,104.12a2.45,2.45,0,0,1-2-.85,3.22,3.22,0,0,1-.74-2.18v-1a3.37,3.37,0,0,1,.72-2.22,2.25,2.25,0,0,1,1.83-.88,2.17,2.17,0,0,1,1.8.8,3.34,3.34,0,0,1,.63,2.14v.89h-3.7v.27a2.55,2.55,0,0,0,.39,1.47,1.25,1.25,0,0,0,1.11.58,2.25,2.25,0,0,0,.91-.16,2.64,2.64,0,0,0,.73-.5l.4.8a2.34,2.34,0,0,1-.86.61A3.33,3.33,0,0,1,431.78,104.12ZM431.63,98a1,1,0,0,0-.89.55,2.81,2.81,0,0,0-.38,1.38h2.42v-.26a2.27,2.27,0,0,0-.29-1.2A1,1,0,0,0,431.63,98Z"/><path d="M411.67,144.12a1.52,1.52,0,0,0-.37-1.07,3.06,3.06,0,0,0-1.29-.74,5.23,5.23,0,0,1-2-1,2.21,2.21,0,0,1-.71-1.71,2.29,2.29,0,0,1,.79-1.79,2.93,2.93,0,0,1,2-.7,2.76,2.76,0,0,1,2.07.81,2.65,2.65,0,0,1,.76,2l0,0h-1.23a2,2,0,0,0-.42-1.31,1.63,1.63,0,0,0-2.28-.09,1.52,1.52,0,0,0-.39,1.08,1.32,1.32,0,0,0,.42,1,3.79,3.79,0,0,0,1.38.73,4.59,4.59,0,0,1,1.93,1.08,2.42,2.42,0,0,1,.66,1.76,2.23,2.23,0,0,1-.78,1.8,3,3,0,0,1-2.05.67,3.39,3.39,0,0,1-2.17-.73,2.43,2.43,0,0,1-.89-2.07l0,0h1.23a1.83,1.83,0,0,0,.5,1.41,1.88,1.88,0,0,0,1.31.45,1.53,1.53,0,0,0,1.13-.4A1.46,1.46,0,0,0,411.67,144.12Z"/><path d="M413.93,142.58a3.45,3.45,0,0,1,.71-2.24,2.61,2.61,0,0,1,3.92,0,3.5,3.5,0,0,1,.71,2.25v.88a3.41,3.41,0,0,1-.71,2.25,2.64,2.64,0,0,1-3.92,0,3.46,3.46,0,0,1-.71-2.25Zm1.29.87a3.1,3.1,0,0,0,.34,1.55,1.2,1.2,0,0,0,2.08,0,3.1,3.1,0,0,0,.34-1.55v-.88a3.07,3.07,0,0,0-.34-1.53,1.2,1.2,0,0,0-2.08,0,3.11,3.11,0,0,0-.34,1.54Z"/><path d="M421.87,146.45h-1.29v-9.9h1.29Z"/><path d="M425.91,146.58a2.46,2.46,0,0,1-2-.85,3.22,3.22,0,0,1-.74-2.18v-1a3.37,3.37,0,0,1,.73-2.22,2.25,2.25,0,0,1,1.83-.88,2.16,2.16,0,0,1,1.79.8,3.34,3.34,0,0,1,.63,2.14v.89H424.5v.27a2.57,2.57,0,0,0,.39,1.47,1.25,1.25,0,0,0,1.11.58,2.11,2.11,0,0,0,.91-.17,2.49,2.49,0,0,0,.72-.49l.41.8a2.47,2.47,0,0,1-.87.61A3.26,3.26,0,0,1,425.91,146.58Zm-.14-6.15a1,1,0,0,0-.9.55,2.81,2.81,0,0,0-.37,1.38h2.42v-.26a2.18,2.18,0,0,0-.3-1.2A.94.94,0,0,0,425.77,140.43Z"/><path d="M430.71,137.78h-1.29v-1.23h1.29Zm0,8.67h-1.29v-6.87h1.29Z"/><path d="M433.64,146.45h-1.29v-9.9h1.29Z"/><path d="M695.16,143.64l0,0a3,3,0,0,1-.74,2.14,3.1,3.1,0,0,1-4.23-.15,3.67,3.67,0,0,1-.82-2.55v-2.57a3.76,3.76,0,0,1,.81-2.56,2.7,2.7,0,0,1,2.14-.92,2.83,2.83,0,0,1,2.09.74,3.12,3.12,0,0,1,.75,2.18l0,0h-1.22a2.55,2.55,0,0,0-.4-1.49,1.46,1.46,0,0,0-1.2-.48,1.39,1.39,0,0,0-1.23.64,3.17,3.17,0,0,0-.44,1.83v2.59a3.2,3.2,0,0,0,.45,1.85,1.63,1.63,0,0,0,2.43.18,2.53,2.53,0,0,0,.38-1.5Z"/><path d="M697.78,146.45H696.5v-9.9h1.28Z"/><path d="M700.72,137.78h-1.29v-1.23h1.29Zm0,8.67h-1.29v-6.87h1.29Z"/><path d="M703.45,139.58l.07.93a2.16,2.16,0,0,1,.71-.78,1.81,1.81,0,0,1,1-.28,1.53,1.53,0,0,1,1,.32,1.91,1.91,0,0,1,.62.95,2.26,2.26,0,0,1,.71-.93,1.67,1.67,0,0,1,1.05-.34,1.58,1.58,0,0,1,1.38.72,3.82,3.82,0,0,1,.51,2.2v4.08h-1.29v-4.09a3.07,3.07,0,0,0-.26-1.48.84.84,0,0,0-.77-.42,1,1,0,0,0-.73.33,2,2,0,0,0-.43.88s0,0,0,.17,0,.24,0,.3v4.31h-1.28v-4.09a2.92,2.92,0,0,0-.27-1.46.84.84,0,0,0-.77-.44,1.12,1.12,0,0,0-.7.22,1.49,1.49,0,0,0-.44.63v5.14h-1.28v-6.87Z"/><path d="M715.46,146.45a4.48,4.48,0,0,1-.12-.46,2.31,2.31,0,0,1-.05-.46,2.62,2.62,0,0,1-.72.76,1.86,1.86,0,0,1-2.32-.26,2.09,2.09,0,0,1-.49-1.47,1.89,1.89,0,0,1,.67-1.54,2.8,2.8,0,0,1,1.88-.56h1v-.71a1.55,1.55,0,0,0-.28-1,1,1,0,0,0-.8-.35.93.93,0,0,0-.74.32,1.12,1.12,0,0,0-.29.78h-1.22l0,0a1.81,1.81,0,0,1,.63-1.42,2.46,2.46,0,0,1,1.73-.62,2.29,2.29,0,0,1,1.64.6,2.25,2.25,0,0,1,.63,1.71V145a6.36,6.36,0,0,0,.05.77,4.52,4.52,0,0,0,.16.73Zm-1.56-.85a1.43,1.43,0,0,0,.82-.26,1.68,1.68,0,0,0,.55-.67v-1.42h-1a1.16,1.16,0,0,0-.92.38,1.39,1.39,0,0,0-.33.93,1.21,1.21,0,0,0,.23.76A.74.74,0,0,0,713.9,145.6Z"/><path d="M719.66,137.87v1.71h1.08v.92h-1.08v4.09a1.43,1.43,0,0,0,.16.76.5.5,0,0,0,.42.22,1.27,1.27,0,0,0,.28,0l.31-.05.13.88a2.84,2.84,0,0,1-.49.15,3.31,3.31,0,0,1-.55.05,1.38,1.38,0,0,1-1.13-.48,2.31,2.31,0,0,1-.41-1.51V140.5h-.89v-.92h.89v-1.71Z"/><path d="M414.84,186.86l.12.54h0l.13-.53,1.89-7.2h1.36l-2.78,9.24h-1.24l-2.77-9.24H413Z"/><path d="M421.48,189a2.47,2.47,0,0,1-2-.85,3.21,3.21,0,0,1-.73-2.18v-1a3.37,3.37,0,0,1,.72-2.22,2.25,2.25,0,0,1,1.83-.88,2.17,2.17,0,0,1,1.8.8,3.4,3.4,0,0,1,.62,2.14v.89h-3.69V186a2.57,2.57,0,0,0,.39,1.47,1.25,1.25,0,0,0,1.11.58,2.11,2.11,0,0,0,.91-.17,2.4,2.4,0,0,0,.73-.49l.4.8a2.3,2.3,0,0,1-.87.61A3.24,3.24,0,0,1,421.48,189Zm-.15-6.15a1,1,0,0,0-.9.55,2.92,2.92,0,0,0-.37,1.38h2.42v-.26a2.27,2.27,0,0,0-.29-1.2A.94.94,0,0,0,421.33,182.89Z"/><path d="M426.06,182l.07,1a2.61,2.61,0,0,1,.73-.84,1.7,1.7,0,0,1,1-.3,1.63,1.63,0,0,1,1.4.67,3.39,3.39,0,0,1,.5,2.07v4.26h-1.29v-4.25a2.48,2.48,0,0,0-.27-1.35.94.94,0,0,0-.82-.39,1.08,1.08,0,0,0-.7.24,1.7,1.7,0,0,0-.5.66v5.09h-1.29V182Z"/><path d="M432.86,180.33V182h1.07V183h-1.07v4.09a1.34,1.34,0,0,0,.16.76.47.47,0,0,0,.41.22,1.27,1.27,0,0,0,.28,0l.31,0,.13.88a2.72,2.72,0,0,1-.48.15,3.43,3.43,0,0,1-.56,0,1.39,1.39,0,0,1-1.13-.48,2.31,2.31,0,0,1-.41-1.51V183h-.89V182h.89v-1.71Z"/><path d="M395.49,231.37h-1.28v-4.08h-3.54v4.08h-1.29v-9.24h1.29v4.18h3.54v-4.18h1.28Z"/><path d="M400.76,230.45a2.14,2.14,0,0,1-.7.78,1.78,1.78,0,0,1-1,.27,1.68,1.68,0,0,1-1.45-.72,3.77,3.77,0,0,1-.52-2.22V224.5h1.28v4.07a3.17,3.17,0,0,0,.25,1.49.81.81,0,0,0,.75.44,1.37,1.37,0,0,0,.8-.22,1.61,1.61,0,0,0,.51-.63V224.5H402v6.87h-1.15Z"/><path d="M404.62,224.5l.07.93a2.16,2.16,0,0,1,.71-.78,1.81,1.81,0,0,1,1-.28,1.53,1.53,0,0,1,1,.32,1.91,1.91,0,0,1,.62.95,2.26,2.26,0,0,1,.71-.93,1.67,1.67,0,0,1,1.05-.34,1.58,1.58,0,0,1,1.38.72,3.82,3.82,0,0,1,.51,2.2v4.08h-1.29v-4.09a3.07,3.07,0,0,0-.26-1.48.84.84,0,0,0-.77-.42,1,1,0,0,0-.73.33,2,2,0,0,0-.43.88s0,0,0,.17,0,.24,0,.3v4.31h-1.28v-4.09a2.92,2.92,0,0,0-.27-1.46.84.84,0,0,0-.77-.44,1.12,1.12,0,0,0-.7.22,1.49,1.49,0,0,0-.44.63v5.14h-1.28V224.5Z"/><path d="M414.5,222.7h-1.29v-1.24h1.29Zm0,8.67h-1.29V224.5h1.29Z"/><path d="M415.82,228a5.23,5.23,0,0,1,.59-2.65,1.88,1.88,0,0,1,1.68-1,1.67,1.67,0,0,1,.86.22,2,2,0,0,1,.65.62v-3.75h1.28v9.91h-1.12l-.1-.79a2,2,0,0,1-.67.69,1.81,1.81,0,0,1-.91.23,1.88,1.88,0,0,1-1.67-.91,4.47,4.47,0,0,1-.59-2.44Zm1.29.13a3.92,3.92,0,0,0,.31,1.72,1,1,0,0,0,1,.63,1.16,1.16,0,0,0,.72-.22,1.84,1.84,0,0,0,.48-.65V226.3a2,2,0,0,0-.48-.68,1.08,1.08,0,0,0-.7-.24,1,1,0,0,0-1,.73,4.66,4.66,0,0,0-.32,1.91Z"/><path d="M423.75,222.7h-1.29v-1.24h1.29Zm0,8.67h-1.29V224.5h1.29Z"/><path d="M427,222.79v1.71H428v.92H427v4.09a1.43,1.43,0,0,0,.16.76.5.5,0,0,0,.42.22,1.27,1.27,0,0,0,.28,0l.31-.05.13.88a3.14,3.14,0,0,1-.49.15,3.31,3.31,0,0,1-.55.05,1.41,1.41,0,0,1-1.14-.48,2.37,2.37,0,0,1-.4-1.51v-4.09h-.89v-.92h.89v-1.71Z"/><path d="M431.78,231.5a2.45,2.45,0,0,1-2-.85,3.22,3.22,0,0,1-.74-2.18v-1a3.37,3.37,0,0,1,.72-2.22,2.25,2.25,0,0,1,1.83-.88,2.17,2.17,0,0,1,1.8.8,3.34,3.34,0,0,1,.63,2.14v.89h-3.7v.27a2.57,2.57,0,0,0,.39,1.47,1.25,1.25,0,0,0,1.11.58,2.08,2.08,0,0,0,.91-.17,2.4,2.4,0,0,0,.73-.49l.4.8a2.34,2.34,0,0,1-.86.61A3.33,3.33,0,0,1,431.78,231.5Zm-.15-6.15a1,1,0,0,0-.89.55,2.81,2.81,0,0,0-.38,1.38h2.42V227a2.27,2.27,0,0,0-.29-1.2A.94.94,0,0,0,431.63,225.35Zm.38-3.52h1.44v0L432,223.52h-1Z"/><line class="cls-1" x1="354.61" y1="43.87" x2="354.61" y2="242.27"/><line class="cls-1" x1="134.96" y1="27.39" x2="205.8" y2="27.39"/><path d="M509.38,17.94h-4.22V22h4.89v1.2h-6.48V11.86H510v1.2h-4.84v3.68h4.22Z"/><path d="M514.74,16.29h0l2-4.43h1.87l-3,5.63,3.08,5.74h-1.89l-2.11-4.55h0l-2.1,4.55H510.8l3-5.74-3-5.63h1.85Z"/><path d="M526,17.94H521.8V22h4.89v1.2h-6.48V11.86h6.43v1.2H521.8v3.68H526Z"/><path d="M530.17,11.86l2.65,9.28h0l2.66-9.28h2.05V23.23H536V18.86l.14-4.37h0l-2.73,8.75h-1l-2.72-8.74h-.05l.15,4.36v4.37h-1.57V11.86Z"/><path d="M541.34,18.73v4.5h-1.59V11.86h3.74a3.31,3.31,0,0,1,2.5.94,3.46,3.46,0,0,1,.9,2.49,3.47,3.47,0,0,1-.9,2.5,3.31,3.31,0,0,1-2.5.94Zm0-1.2h2.15a1.59,1.59,0,0,0,1.36-.63,2.67,2.67,0,0,0,.46-1.59,2.71,2.71,0,0,0-.46-1.61,1.56,1.56,0,0,0-1.36-.64h-2.15Z"/><path d="M550.18,22h4.44v1.2h-6V11.86h1.58Z"/><path d="M561.83,17.94h-4.22V22h4.89v1.2H556V11.86h6.43v1.2h-4.85v3.68h4.22Z"/><path d="M573.53,23.23h-6.38V22.18l3.13-4.11a10.67,10.67,0,0,0,1.05-1.78,3.42,3.42,0,0,0,.3-1.36,2.63,2.63,0,0,0-.37-1.47,1.19,1.19,0,0,0-1-.56,1.42,1.42,0,0,0-1.25.62,3.08,3.08,0,0,0-.42,1.72H567l0,0a3.57,3.57,0,0,1,.84-2.49,3,3,0,0,1,2.37-1,2.83,2.83,0,0,1,2.2.88,3.31,3.31,0,0,1,.81,2.33,4.1,4.1,0,0,1-.5,1.92,13.29,13.29,0,0,1-1.44,2.12L569.13,22h4.4Z"/><line class="cls-1" x1="501.74" y1="27.39" x2="575.57" y2="27.39"/></svg>